<?xml version="1.0" encoding="UTF-8" standalone="no"?>
<!-- Created with Inkscape (http://www.inkscape.org/) -->

<svg
   width="18.807343mm"
   height="2.0828476mm"
   viewBox="0 0 18.807343 2.0828476"
   version="1.1"
   id="svg5"
   xmlns="http://www.w3.org/2000/svg"
   xmlns:svg="http://www.w3.org/2000/svg">
  <defs
     id="defs2" />
  <g
     id="layer1"
     style="display:inline"
     transform="translate(-40.103799,-126.58632)">
    <g
       aria-label="Fondsenboek Online"
       id="text852"
       style="font-weight:100;font-size:2.82223px;font-family:HelveticaNeue;-inkscape-font-specification:'HelveticaNeue Thin';display:inline;stroke:#000000;stroke-width:0;stroke-linecap:round;stroke-linejoin:bevel">
      <path
         d="m 40.103797,128.63527 h 0.118533 v -0.99625 h 0.787403 v -0.10724 H 40.22233 v -0.80434 h 0.846669 v -0.10724 h -0.965202 z"
         id="path1296" />
      <path
         d="m 42.124513,127.89584 c 0,-0.42333 -0.09596,-0.77046 -0.485423,-0.77046 -0.406401,0 -0.502357,0.34713 -0.502357,0.77046 0,0.42616 0.09596,0.7733 0.485423,0.7733 0.406401,0 0.502357,-0.34714 0.502357,-0.7733 z m -0.118533,0.003 c 0,0.42333 -0.09313,0.67451 -0.375357,0.67451 -0.282223,0 -0.375357,-0.25118 -0.375357,-0.67451 0,-0.42616 0.09313,-0.67734 0.375357,-0.67734 0.282223,0 0.375357,0.25118 0.375357,0.67734 z"
         id="path1298" />
      <path
         d="m 42.375693,128.63527 h 0.107245 v -0.94545 c 0,-0.25682 0.127,-0.46849 0.352779,-0.46849 0.183445,0 0.293512,0.0903 0.293512,0.35278 v 1.06116 h 0.107244 v -1.11196 c 0,-0.2794 -0.163689,-0.39793 -0.372534,-0.39793 -0.200378,0 -0.324556,0.127 -0.375357,0.25682 h -0.0056 v -0.22296 h -0.107245 z"
         id="path1300" />
      <path
         d="m 44.325853,128.63527 h 0.107245 v -2.01507 h -0.107245 v 0.79869 h -0.0056 c -0.05362,-0.15805 -0.16369,-0.29351 -0.36689,-0.29351 -0.364068,0 -0.465668,0.31609 -0.465668,0.76764 0,0.4572 0.115711,0.77612 0.460023,0.77612 0.206023,0 0.335846,-0.11854 0.372535,-0.31892 h 0.0056 z m -0.719668,-0.74225 c 0,-0.44873 0.09878,-0.67169 0.352778,-0.67169 0.222956,0 0.369712,0.18627 0.36689,0.67169 0,0.4318 -0.09878,0.68016 -0.361245,0.68016 -0.29069,0 -0.358423,-0.3048 -0.358423,-0.68016 z"
         id="path1302" />
      <path
         d="m 45.466036,127.57411 v -0.0452 c 0,-0.18062 -0.05645,-0.40357 -0.383823,-0.40357 -0.234246,0 -0.403579,0.13546 -0.403579,0.381 0,0.18909 0.09313,0.29633 0.276578,0.36971 l 0.217312,0.0875 c 0.163689,0.0649 0.220134,0.16087 0.220134,0.30198 0,0.16369 -0.09031,0.30762 -0.307623,0.30762 -0.245534,0 -0.330201,-0.1524 -0.330201,-0.36125 v -0.048 h -0.107245 v 0.0395 c 0,0.17215 0.02822,0.46567 0.437446,0.46567 0.234245,0 0.426157,-0.15805 0.426157,-0.40641 0,-0.20037 -0.09031,-0.32455 -0.268112,-0.39229 l -0.225779,-0.0847 c -0.146756,-0.0564 -0.220134,-0.13547 -0.220134,-0.29069 0,-0.19474 0.129823,-0.27376 0.285046,-0.27376 0.242711,0 0.276578,0.1778 0.276578,0.31045 v 0.0423 z"
         id="path1304" />
      <path
         d="m 45.801879,127.79424 c 0,-0.19191 0.04233,-0.57291 0.369712,-0.57291 0.304801,0 0.347135,0.3048 0.347135,0.57291 z m 0.83538,0.096 c 0,-0.47696 -0.112889,-0.76482 -0.460023,-0.76482 -0.333023,0 -0.49389,0.2794 -0.49389,0.73095 0,0.50236 0.09595,0.81281 0.476956,0.81281 0.333024,0 0.457202,-0.29069 0.457202,-0.51647 h -0.107245 c 0,0.11006 -0.0508,0.42051 -0.361245,0.42051 -0.344313,0 -0.347135,-0.44591 -0.347135,-0.68298 z"
         id="path1306" />
      <path
         d="m 46.868681,128.63527 h 0.107245 v -0.94545 c 0,-0.25682 0.127,-0.46849 0.352778,-0.46849 0.183445,0 0.293512,0.0903 0.293512,0.35278 v 1.06116 h 0.107245 v -1.11196 c 0,-0.2794 -0.163689,-0.39793 -0.372534,-0.39793 -0.200379,0 -0.324557,0.127 -0.375357,0.25682 h -0.0056 v -0.22296 h -0.107245 z"
         id="path1308" />
      <path
         d="m 48.022972,128.63527 h 0.107245 v -0.28505 h 0.0056 c 0.03669,0.20038 0.166512,0.31892 0.372535,0.31892 0.344312,0 0.460023,-0.31892 0.460023,-0.77612 0,-0.4318 -0.08467,-0.76764 -0.454379,-0.76764 -0.2286,0 -0.324556,0.13546 -0.378179,0.29351 h -0.0056 v -0.79869 h -0.107245 z m 0.488246,-1.41394 c 0.248356,0 0.338668,0.21167 0.338668,0.67169 0,0.37536 -0.06773,0.68016 -0.358424,0.68016 -0.262467,0 -0.361245,-0.24836 -0.361245,-0.68016 0,-0.45438 0.110067,-0.67169 0.381001,-0.67169 z"
         id="path1310" />
      <path
         d="m 50.170691,127.89584 c 0,-0.42333 -0.09596,-0.77046 -0.485424,-0.77046 -0.406401,0 -0.502357,0.34713 -0.502357,0.77046 0,0.42616 0.09596,0.7733 0.485424,0.7733 0.406401,0 0.502357,-0.34714 0.502357,-0.7733 z m -0.118534,0.003 c 0,0.42333 -0.09313,0.67451 -0.375357,0.67451 -0.282223,0 -0.375356,-0.25118 -0.375356,-0.67451 0,-0.42616 0.09313,-0.67734 0.375356,-0.67734 0.282223,0 0.375357,0.25118 0.375357,0.67734 z"
         id="path1312" />
      <path
         d="m 50.503715,127.79424 c 0,-0.19191 0.04233,-0.57291 0.369712,-0.57291 0.304801,0 0.347135,0.3048 0.347135,0.57291 z m 0.83538,0.096 c 0,-0.47696 -0.112889,-0.76482 -0.460023,-0.76482 -0.333023,0 -0.49389,0.2794 -0.49389,0.73095 0,0.50236 0.09596,0.81281 0.476957,0.81281 0.333023,0 0.457201,-0.29069 0.457201,-0.51647 h -0.107245 c 0,0.11006 -0.0508,0.42051 -0.361245,0.42051 -0.344312,0 -0.347135,-0.44591 -0.347135,-0.68298 z"
         id="path1314" />
      <path
         d="m 51.570517,128.63527 h 0.107245 v -0.54187 l 0.245534,-0.29069 0.479779,0.83256 h 0.135467 l -0.539046,-0.92851 0.457201,-0.54752 H 52.32123 l -0.637824,0.78458 h -0.0056 v -1.32362 h -0.107245 z"
         id="path1316" />
      <path
         d="m 53.960946,126.58633 c -0.369712,0 -0.651935,0.25965 -0.651935,1.0414 0,0.78176 0.265289,1.04141 0.651935,1.04141 0.285045,0 0.649113,-0.15805 0.649113,-1.04141 0,-0.78175 -0.248356,-1.0414 -0.649113,-1.0414 z m 0,0.096 c 0.409223,0 0.530579,0.40075 0.530579,0.94544 0,0.64065 -0.160867,0.94545 -0.530579,0.94545 -0.420512,0 -0.533402,-0.39229 -0.533402,-0.94545 0,-0.55315 0.13829,-0.94544 0.533402,-0.94544 z"
         id="path1318" />
      <path
         d="m 54.861239,128.63527 h 0.107245 v -0.94545 c 0,-0.25682 0.127,-0.46849 0.352778,-0.46849 0.183445,0 0.293512,0.0903 0.293512,0.35278 v 1.06116 h 0.107245 v -1.11196 c 0,-0.2794 -0.163689,-0.39793 -0.372534,-0.39793 -0.200379,0 -0.324557,0.127 -0.375357,0.25682 h -0.0056 v -0.22296 h -0.107245 z"
         id="path1320" />
      <path
         d="m 56.021174,128.63527 h 0.107245 v -2.01507 h -0.107245 z"
         id="path1322" />
      <path
         d="m 56.438866,128.63527 h 0.107245 v -1.47603 h -0.107245 z m 0,-1.72721 h 0.107245 v -0.28786 h -0.107245 z"
         id="path1324" />
      <path
         d="m 56.84527,128.63527 h 0.107244 v -0.94545 c 0,-0.25682 0.127001,-0.46849 0.352779,-0.46849 0.183445,0 0.293512,0.0903 0.293512,0.35278 v 1.06116 h 0.107245 v -1.11196 c 0,-0.2794 -0.16369,-0.39793 -0.372535,-0.39793 -0.200378,0 -0.324556,0.127 -0.375356,0.25682 h -0.0056 v -0.22296 H 56.84527 Z"
         id="path1326" />
      <path
         d="m 58.07576,127.79424 c 0,-0.19191 0.04233,-0.57291 0.369712,-0.57291 0.304801,0 0.347134,0.3048 0.347134,0.57291 z m 0.83538,0.096 c 0,-0.47696 -0.112889,-0.76482 -0.460024,-0.76482 -0.333023,0 -0.49389,0.2794 -0.49389,0.73095 0,0.50236 0.09596,0.81281 0.476957,0.81281 0.333023,0 0.457201,-0.29069 0.457201,-0.51647 h -0.107245 c 0,0.11006 -0.0508,0.42051 -0.361245,0.42051 -0.344312,0 -0.347134,-0.44591 -0.347134,-0.68298 z"
         id="path1328" />
    </g>
  </g>
</svg>
