<?xml version="1.0" encoding="UTF-8" standalone="no"?>
<svg
   width="1920"
   height="1080"
   viewBox="0 0 1920 1080"
   version="1.1"
   id="svg177"
   sodipodi:docname="fb-hero-v5-00001a-objecttopath.svg"
   inkscape:version="1.3.2 (091e20e, 2023-11-25)"
   xmlns:inkscape="http://www.inkscape.org/namespaces/inkscape"
   xmlns:sodipodi="http://sodipodi.sourceforge.net/DTD/sodipodi-0.dtd"
   xmlns="http://www.w3.org/2000/svg"
   xmlns:svg="http://www.w3.org/2000/svg">
  <defs
     id="defs177" />
  <sodipodi:namedview
     id="namedview177"
     pagecolor="#ffffff"
     bordercolor="#000000"
     borderopacity="0.25"
     inkscape:showpageshadow="2"
     inkscape:pageopacity="0.0"
     inkscape:pagecheckerboard="0"
     inkscape:deskcolor="#d1d1d1"
     inkscape:zoom="0.21197917"
     inkscape:cx="960"
     inkscape:cy="540.14742"
     inkscape:window-width="1280"
     inkscape:window-height="738"
     inkscape:window-x="0"
     inkscape:window-y="25"
     inkscape:window-maximized="0"
     inkscape:current-layer="svg177" />
  <path
     d="M0,0 l1920,0 l0,1080 l-1920,0 Z M0,0"
     fill="rgb(21,71,85)"
     transform="matrix(1,0,0,-1,0,1080)"
     id="path1" />
  <path
     style="font-size:288px;fill:#666666"
     d="m 172.40625,709.28125 q -15.1875,7.17187 -28.26563,9.84375 -12.9375,2.67187 -30.65624,2.67187 -34.17188,0 -61.031255,-21.23437 Q 25.734375,679.32812 18.84375,642.76562 H 0 l 6.1875,-16.59375 h 10.546875 q -0.28125,-2.95312 -0.421875,-6.1875 -0.140625,-3.375 -0.140625,-6.46875 0,-3.65625 0.140625,-7.3125 0.140625,-3.65625 0.421875,-7.03125 H 0 l 6.1875,-16.59375 h 13.078125 q 8.15625,-36.14062 34.3125,-56.95312 26.15625,-20.8125 60.328125,-20.8125 19.82812,0 33.1875,2.95312 13.5,2.8125 25.3125,9.14063 v 29.39062 h -2.25 q -11.25,-9.14062 -25.17188,-13.35937 -13.92187,-4.35938 -31.35937,-4.35938 -22.078125,0 -40.078125,14.625 -18,14.48438 -24.75,39.375 h 66.796875 l -6.1875,16.59375 h -63.5625 q -0.28125,3.375 -0.5625,7.03125 -0.140625,3.65625 -0.140625,7.3125 0,3.23438 0.140625,6.46875 0.140625,3.23438 0.421875,6.1875 h 53.4375 l -6.1875,16.59375 h -44.4375 q 6.890625,25.59375 25.453125,40.35938 18.5625,14.625 39.65625,14.625 22.07812,0 34.59375,-4.35938 12.51562,-4.5 22.07812,-13.07812 h 2.10938 z"
     id="text1"
     transform="matrix(0.9,0.0,0.0,0.9,108.0,271.79999999999995)"
     aria-label="€" />
  <path
     style="font-size:288px;fill:#666666"
     d="m 172.40625,709.28125 q -15.1875,7.17187 -28.26563,9.84375 -12.9375,2.67187 -30.65624,2.67187 -34.17188,0 -61.031255,-21.23437 Q 25.734375,679.32812 18.84375,642.76562 H 0 l 6.1875,-16.59375 h 10.546875 q -0.28125,-2.95312 -0.421875,-6.1875 -0.140625,-3.375 -0.140625,-6.46875 0,-3.65625 0.140625,-7.3125 0.140625,-3.65625 0.421875,-7.03125 H 0 l 6.1875,-16.59375 h 13.078125 q 8.15625,-36.14062 34.3125,-56.95312 26.15625,-20.8125 60.328125,-20.8125 19.82812,0 33.1875,2.95312 13.5,2.8125 25.3125,9.14063 v 29.39062 h -2.25 q -11.25,-9.14062 -25.17188,-13.35937 -13.92187,-4.35938 -31.35937,-4.35938 -22.078125,0 -40.078125,14.625 -18,14.48438 -24.75,39.375 h 66.796875 l -6.1875,16.59375 h -63.5625 q -0.28125,3.375 -0.5625,7.03125 -0.140625,3.65625 -0.140625,7.3125 0,3.23438 0.140625,6.46875 0.140625,3.23438 0.421875,6.1875 h 53.4375 l -6.1875,16.59375 h -44.4375 q 6.890625,25.59375 25.453125,40.35938 18.5625,14.625 39.65625,14.625 22.07812,0 34.59375,-4.35938 12.51562,-4.5 22.07812,-13.07812 h 2.10938 z"
     id="text2"
     transform="matrix(0.9,0.0,0.0,0.9,108.0,55.799999999999955)"
     aria-label="€" />
  <path
     style="font-size:288px;fill:#666666"
     d="m 172.40625,709.28125 q -15.1875,7.17187 -28.26563,9.84375 -12.9375,2.67187 -30.65624,2.67187 -34.17188,0 -61.031255,-21.23437 Q 25.734375,679.32812 18.84375,642.76562 H 0 l 6.1875,-16.59375 h 10.546875 q -0.28125,-2.95312 -0.421875,-6.1875 -0.140625,-3.375 -0.140625,-6.46875 0,-3.65625 0.140625,-7.3125 0.140625,-3.65625 0.421875,-7.03125 H 0 l 6.1875,-16.59375 h 13.078125 q 8.15625,-36.14062 34.3125,-56.95312 26.15625,-20.8125 60.328125,-20.8125 19.82812,0 33.1875,2.95312 13.5,2.8125 25.3125,9.14063 v 29.39062 h -2.25 q -11.25,-9.14062 -25.17188,-13.35937 -13.92187,-4.35938 -31.35937,-4.35938 -22.078125,0 -40.078125,14.625 -18,14.48438 -24.75,39.375 h 66.796875 l -6.1875,16.59375 h -63.5625 q -0.28125,3.375 -0.5625,7.03125 -0.140625,3.65625 -0.140625,7.3125 0,3.23438 0.140625,6.46875 0.140625,3.23438 0.421875,6.1875 h 53.4375 l -6.1875,16.59375 h -44.4375 q 6.890625,25.59375 25.453125,40.35938 18.5625,14.625 39.65625,14.625 22.07812,0 34.59375,-4.35938 12.51562,-4.5 22.07812,-13.07812 h 2.10938 z"
     id="text3"
     transform="matrix(0.9,0.0,0.0,0.9,108.0,-160.20000000000005)"
     aria-label="€" />
  <path
     style="font-size:288px;fill:#666666"
     d="m 172.40625,709.28125 q -15.1875,7.17187 -28.26563,9.84375 -12.9375,2.67187 -30.65624,2.67187 -34.17188,0 -61.031255,-21.23437 Q 25.734375,679.32812 18.84375,642.76562 H 0 l 6.1875,-16.59375 h 10.546875 q -0.28125,-2.95312 -0.421875,-6.1875 -0.140625,-3.375 -0.140625,-6.46875 0,-3.65625 0.140625,-7.3125 0.140625,-3.65625 0.421875,-7.03125 H 0 l 6.1875,-16.59375 h 13.078125 q 8.15625,-36.14062 34.3125,-56.95312 26.15625,-20.8125 60.328125,-20.8125 19.82812,0 33.1875,2.95312 13.5,2.8125 25.3125,9.14063 v 29.39062 h -2.25 q -11.25,-9.14062 -25.17188,-13.35937 -13.92187,-4.35938 -31.35937,-4.35938 -22.078125,0 -40.078125,14.625 -18,14.48438 -24.75,39.375 h 66.796875 l -6.1875,16.59375 h -63.5625 q -0.28125,3.375 -0.5625,7.03125 -0.140625,3.65625 -0.140625,7.3125 0,3.23438 0.140625,6.46875 0.140625,3.23438 0.421875,6.1875 h 53.4375 l -6.1875,16.59375 h -44.4375 q 6.890625,25.59375 25.453125,40.35938 18.5625,14.625 39.65625,14.625 22.07812,0 34.59375,-4.35938 12.51562,-4.5 22.07812,-13.07812 h 2.10938 z"
     id="text4"
     transform="matrix(0.9,0.0,0.0,0.9,108.0,-376.20000000000005)"
     aria-label="€" />
  <path
     style="font-size:288px;fill:#666666"
     d="m 172.40625,709.28125 q -15.1875,7.17187 -28.26563,9.84375 -12.9375,2.67187 -30.65624,2.67187 -34.17188,0 -61.031255,-21.23437 Q 25.734375,679.32812 18.84375,642.76562 H 0 l 6.1875,-16.59375 h 10.546875 q -0.28125,-2.95312 -0.421875,-6.1875 -0.140625,-3.375 -0.140625,-6.46875 0,-3.65625 0.140625,-7.3125 0.140625,-3.65625 0.421875,-7.03125 H 0 l 6.1875,-16.59375 h 13.078125 q 8.15625,-36.14062 34.3125,-56.95312 26.15625,-20.8125 60.328125,-20.8125 19.82812,0 33.1875,2.95312 13.5,2.8125 25.3125,9.14063 v 29.39062 h -2.25 q -11.25,-9.14062 -25.17188,-13.35937 -13.92187,-4.35938 -31.35937,-4.35938 -22.078125,0 -40.078125,14.625 -18,14.48438 -24.75,39.375 h 66.796875 l -6.1875,16.59375 h -63.5625 q -0.28125,3.375 -0.5625,7.03125 -0.140625,3.65625 -0.140625,7.3125 0,3.23438 0.140625,6.46875 0.140625,3.23438 0.421875,6.1875 h 53.4375 l -6.1875,16.59375 h -44.4375 q 6.890625,25.59375 25.453125,40.35938 18.5625,14.625 39.65625,14.625 22.07812,0 34.59375,-4.35938 12.51562,-4.5 22.07812,-13.07812 h 2.10938 z"
     id="text5"
     transform="matrix(0.9,0.0,0.0,0.9,324.0,271.79999999999995)"
     aria-label="€" />
  <path
     style="font-size:288px;fill:#666666"
     d="m 172.40625,709.28125 q -15.1875,7.17187 -28.26563,9.84375 -12.9375,2.67187 -30.65624,2.67187 -34.17188,0 -61.031255,-21.23437 Q 25.734375,679.32812 18.84375,642.76562 H 0 l 6.1875,-16.59375 h 10.546875 q -0.28125,-2.95312 -0.421875,-6.1875 -0.140625,-3.375 -0.140625,-6.46875 0,-3.65625 0.140625,-7.3125 0.140625,-3.65625 0.421875,-7.03125 H 0 l 6.1875,-16.59375 h 13.078125 q 8.15625,-36.14062 34.3125,-56.95312 26.15625,-20.8125 60.328125,-20.8125 19.82812,0 33.1875,2.95312 13.5,2.8125 25.3125,9.14063 v 29.39062 h -2.25 q -11.25,-9.14062 -25.17188,-13.35937 -13.92187,-4.35938 -31.35937,-4.35938 -22.078125,0 -40.078125,14.625 -18,14.48438 -24.75,39.375 h 66.796875 l -6.1875,16.59375 h -63.5625 q -0.28125,3.375 -0.5625,7.03125 -0.140625,3.65625 -0.140625,7.3125 0,3.23438 0.140625,6.46875 0.140625,3.23438 0.421875,6.1875 h 53.4375 l -6.1875,16.59375 h -44.4375 q 6.890625,25.59375 25.453125,40.35938 18.5625,14.625 39.65625,14.625 22.07812,0 34.59375,-4.35938 12.51562,-4.5 22.07812,-13.07812 h 2.10938 z"
     id="text6"
     transform="matrix(0.9,0.0,0.0,0.9,324.0,55.799999999999955)"
     aria-label="€" />
  <path
     style="font-size:288px;fill:#666666"
     d="m 172.40625,709.28125 q -15.1875,7.17187 -28.26563,9.84375 -12.9375,2.67187 -30.65624,2.67187 -34.17188,0 -61.031255,-21.23437 Q 25.734375,679.32812 18.84375,642.76562 H 0 l 6.1875,-16.59375 h 10.546875 q -0.28125,-2.95312 -0.421875,-6.1875 -0.140625,-3.375 -0.140625,-6.46875 0,-3.65625 0.140625,-7.3125 0.140625,-3.65625 0.421875,-7.03125 H 0 l 6.1875,-16.59375 h 13.078125 q 8.15625,-36.14062 34.3125,-56.95312 26.15625,-20.8125 60.328125,-20.8125 19.82812,0 33.1875,2.95312 13.5,2.8125 25.3125,9.14063 v 29.39062 h -2.25 q -11.25,-9.14062 -25.17188,-13.35937 -13.92187,-4.35938 -31.35937,-4.35938 -22.078125,0 -40.078125,14.625 -18,14.48438 -24.75,39.375 h 66.796875 l -6.1875,16.59375 h -63.5625 q -0.28125,3.375 -0.5625,7.03125 -0.140625,3.65625 -0.140625,7.3125 0,3.23438 0.140625,6.46875 0.140625,3.23438 0.421875,6.1875 h 53.4375 l -6.1875,16.59375 h -44.4375 q 6.890625,25.59375 25.453125,40.35938 18.5625,14.625 39.65625,14.625 22.07812,0 34.59375,-4.35938 12.51562,-4.5 22.07812,-13.07812 h 2.10938 z"
     id="text7"
     transform="matrix(0.9,0.0,0.0,0.9,324.0,-160.20000000000005)"
     aria-label="€" />
  <path
     style="font-size:288px;fill:#666666"
     d="m 172.40625,709.28125 q -15.1875,7.17187 -28.26563,9.84375 -12.9375,2.67187 -30.65624,2.67187 -34.17188,0 -61.031255,-21.23437 Q 25.734375,679.32812 18.84375,642.76562 H 0 l 6.1875,-16.59375 h 10.546875 q -0.28125,-2.95312 -0.421875,-6.1875 -0.140625,-3.375 -0.140625,-6.46875 0,-3.65625 0.140625,-7.3125 0.140625,-3.65625 0.421875,-7.03125 H 0 l 6.1875,-16.59375 h 13.078125 q 8.15625,-36.14062 34.3125,-56.95312 26.15625,-20.8125 60.328125,-20.8125 19.82812,0 33.1875,2.95312 13.5,2.8125 25.3125,9.14063 v 29.39062 h -2.25 q -11.25,-9.14062 -25.17188,-13.35937 -13.92187,-4.35938 -31.35937,-4.35938 -22.078125,0 -40.078125,14.625 -18,14.48438 -24.75,39.375 h 66.796875 l -6.1875,16.59375 h -63.5625 q -0.28125,3.375 -0.5625,7.03125 -0.140625,3.65625 -0.140625,7.3125 0,3.23438 0.140625,6.46875 0.140625,3.23438 0.421875,6.1875 h 53.4375 l -6.1875,16.59375 h -44.4375 q 6.890625,25.59375 25.453125,40.35938 18.5625,14.625 39.65625,14.625 22.07812,0 34.59375,-4.35938 12.51562,-4.5 22.07812,-13.07812 h 2.10938 z"
     id="text8"
     transform="matrix(0.9,0.0,0.0,0.9,324.0,-376.20000000000005)"
     aria-label="€" />
  <path
     style="font-size:288px;fill:#666666"
     d="m 172.40625,709.28125 q -15.1875,7.17187 -28.26563,9.84375 -12.9375,2.67187 -30.65624,2.67187 -34.17188,0 -61.031255,-21.23437 Q 25.734375,679.32812 18.84375,642.76562 H 0 l 6.1875,-16.59375 h 10.546875 q -0.28125,-2.95312 -0.421875,-6.1875 -0.140625,-3.375 -0.140625,-6.46875 0,-3.65625 0.140625,-7.3125 0.140625,-3.65625 0.421875,-7.03125 H 0 l 6.1875,-16.59375 h 13.078125 q 8.15625,-36.14062 34.3125,-56.95312 26.15625,-20.8125 60.328125,-20.8125 19.82812,0 33.1875,2.95312 13.5,2.8125 25.3125,9.14063 v 29.39062 h -2.25 q -11.25,-9.14062 -25.17188,-13.35937 -13.92187,-4.35938 -31.35937,-4.35938 -22.078125,0 -40.078125,14.625 -18,14.48438 -24.75,39.375 h 66.796875 l -6.1875,16.59375 h -63.5625 q -0.28125,3.375 -0.5625,7.03125 -0.140625,3.65625 -0.140625,7.3125 0,3.23438 0.140625,6.46875 0.140625,3.23438 0.421875,6.1875 h 53.4375 l -6.1875,16.59375 h -44.4375 q 6.890625,25.59375 25.453125,40.35938 18.5625,14.625 39.65625,14.625 22.07812,0 34.59375,-4.35938 12.51562,-4.5 22.07812,-13.07812 h 2.10938 z"
     id="text9"
     transform="matrix(0.9,0.0,0.0,0.9,540.0,271.79999999999995)"
     aria-label="€" />
  <path
     style="font-size:288px;fill:#666666"
     d="m 172.40625,709.28125 q -15.1875,7.17187 -28.26563,9.84375 -12.9375,2.67187 -30.65624,2.67187 -34.17188,0 -61.031255,-21.23437 Q 25.734375,679.32812 18.84375,642.76562 H 0 l 6.1875,-16.59375 h 10.546875 q -0.28125,-2.95312 -0.421875,-6.1875 -0.140625,-3.375 -0.140625,-6.46875 0,-3.65625 0.140625,-7.3125 0.140625,-3.65625 0.421875,-7.03125 H 0 l 6.1875,-16.59375 h 13.078125 q 8.15625,-36.14062 34.3125,-56.95312 26.15625,-20.8125 60.328125,-20.8125 19.82812,0 33.1875,2.95312 13.5,2.8125 25.3125,9.14063 v 29.39062 h -2.25 q -11.25,-9.14062 -25.17188,-13.35937 -13.92187,-4.35938 -31.35937,-4.35938 -22.078125,0 -40.078125,14.625 -18,14.48438 -24.75,39.375 h 66.796875 l -6.1875,16.59375 h -63.5625 q -0.28125,3.375 -0.5625,7.03125 -0.140625,3.65625 -0.140625,7.3125 0,3.23438 0.140625,6.46875 0.140625,3.23438 0.421875,6.1875 h 53.4375 l -6.1875,16.59375 h -44.4375 q 6.890625,25.59375 25.453125,40.35938 18.5625,14.625 39.65625,14.625 22.07812,0 34.59375,-4.35938 12.51562,-4.5 22.07812,-13.07812 h 2.10938 z"
     id="text10"
     transform="matrix(0.9,0.0,0.0,0.9,540.0,55.799999999999955)"
     aria-label="€" />
  <path
     style="font-size:288px;fill:#666666"
     d="m 172.40625,709.28125 q -15.1875,7.17187 -28.26563,9.84375 -12.9375,2.67187 -30.65624,2.67187 -34.17188,0 -61.031255,-21.23437 Q 25.734375,679.32812 18.84375,642.76562 H 0 l 6.1875,-16.59375 h 10.546875 q -0.28125,-2.95312 -0.421875,-6.1875 -0.140625,-3.375 -0.140625,-6.46875 0,-3.65625 0.140625,-7.3125 0.140625,-3.65625 0.421875,-7.03125 H 0 l 6.1875,-16.59375 h 13.078125 q 8.15625,-36.14062 34.3125,-56.95312 26.15625,-20.8125 60.328125,-20.8125 19.82812,0 33.1875,2.95312 13.5,2.8125 25.3125,9.14063 v 29.39062 h -2.25 q -11.25,-9.14062 -25.17188,-13.35937 -13.92187,-4.35938 -31.35937,-4.35938 -22.078125,0 -40.078125,14.625 -18,14.48438 -24.75,39.375 h 66.796875 l -6.1875,16.59375 h -63.5625 q -0.28125,3.375 -0.5625,7.03125 -0.140625,3.65625 -0.140625,7.3125 0,3.23438 0.140625,6.46875 0.140625,3.23438 0.421875,6.1875 h 53.4375 l -6.1875,16.59375 h -44.4375 q 6.890625,25.59375 25.453125,40.35938 18.5625,14.625 39.65625,14.625 22.07812,0 34.59375,-4.35938 12.51562,-4.5 22.07812,-13.07812 h 2.10938 z"
     id="text11"
     transform="matrix(0.9,0.0,0.0,0.9,540.0,-160.20000000000005)"
     aria-label="€" />
  <path
     style="font-size:288px;fill:#666666"
     d="m 172.40625,709.28125 q -15.1875,7.17187 -28.26563,9.84375 -12.9375,2.67187 -30.65624,2.67187 -34.17188,0 -61.031255,-21.23437 Q 25.734375,679.32812 18.84375,642.76562 H 0 l 6.1875,-16.59375 h 10.546875 q -0.28125,-2.95312 -0.421875,-6.1875 -0.140625,-3.375 -0.140625,-6.46875 0,-3.65625 0.140625,-7.3125 0.140625,-3.65625 0.421875,-7.03125 H 0 l 6.1875,-16.59375 h 13.078125 q 8.15625,-36.14062 34.3125,-56.95312 26.15625,-20.8125 60.328125,-20.8125 19.82812,0 33.1875,2.95312 13.5,2.8125 25.3125,9.14063 v 29.39062 h -2.25 q -11.25,-9.14062 -25.17188,-13.35937 -13.92187,-4.35938 -31.35937,-4.35938 -22.078125,0 -40.078125,14.625 -18,14.48438 -24.75,39.375 h 66.796875 l -6.1875,16.59375 h -63.5625 q -0.28125,3.375 -0.5625,7.03125 -0.140625,3.65625 -0.140625,7.3125 0,3.23438 0.140625,6.46875 0.140625,3.23438 0.421875,6.1875 h 53.4375 l -6.1875,16.59375 h -44.4375 q 6.890625,25.59375 25.453125,40.35938 18.5625,14.625 39.65625,14.625 22.07812,0 34.59375,-4.35938 12.51562,-4.5 22.07812,-13.07812 h 2.10938 z"
     id="text12"
     transform="matrix(0.9,0.0,0.0,0.9,540.0,-376.20000000000005)"
     aria-label="€" />
  <path
     style="font-size:288px;fill:#666666"
     d="m 172.40625,709.28125 q -15.1875,7.17187 -28.26563,9.84375 -12.9375,2.67187 -30.65624,2.67187 -34.17188,0 -61.031255,-21.23437 Q 25.734375,679.32812 18.84375,642.76562 H 0 l 6.1875,-16.59375 h 10.546875 q -0.28125,-2.95312 -0.421875,-6.1875 -0.140625,-3.375 -0.140625,-6.46875 0,-3.65625 0.140625,-7.3125 0.140625,-3.65625 0.421875,-7.03125 H 0 l 6.1875,-16.59375 h 13.078125 q 8.15625,-36.14062 34.3125,-56.95312 26.15625,-20.8125 60.328125,-20.8125 19.82812,0 33.1875,2.95312 13.5,2.8125 25.3125,9.14063 v 29.39062 h -2.25 q -11.25,-9.14062 -25.17188,-13.35937 -13.92187,-4.35938 -31.35937,-4.35938 -22.078125,0 -40.078125,14.625 -18,14.48438 -24.75,39.375 h 66.796875 l -6.1875,16.59375 h -63.5625 q -0.28125,3.375 -0.5625,7.03125 -0.140625,3.65625 -0.140625,7.3125 0,3.23438 0.140625,6.46875 0.140625,3.23438 0.421875,6.1875 h 53.4375 l -6.1875,16.59375 h -44.4375 q 6.890625,25.59375 25.453125,40.35938 18.5625,14.625 39.65625,14.625 22.07812,0 34.59375,-4.35938 12.51562,-4.5 22.07812,-13.07812 h 2.10938 z"
     id="text13"
     transform="matrix(0.9,0.0,0.0,0.9,756.0,271.79999999999995)"
     aria-label="€" />
  <path
     style="font-size:288px;fill:#666666"
     d="m 172.40625,709.28125 q -15.1875,7.17187 -28.26563,9.84375 -12.9375,2.67187 -30.65624,2.67187 -34.17188,0 -61.031255,-21.23437 Q 25.734375,679.32812 18.84375,642.76562 H 0 l 6.1875,-16.59375 h 10.546875 q -0.28125,-2.95312 -0.421875,-6.1875 -0.140625,-3.375 -0.140625,-6.46875 0,-3.65625 0.140625,-7.3125 0.140625,-3.65625 0.421875,-7.03125 H 0 l 6.1875,-16.59375 h 13.078125 q 8.15625,-36.14062 34.3125,-56.95312 26.15625,-20.8125 60.328125,-20.8125 19.82812,0 33.1875,2.95312 13.5,2.8125 25.3125,9.14063 v 29.39062 h -2.25 q -11.25,-9.14062 -25.17188,-13.35937 -13.92187,-4.35938 -31.35937,-4.35938 -22.078125,0 -40.078125,14.625 -18,14.48438 -24.75,39.375 h 66.796875 l -6.1875,16.59375 h -63.5625 q -0.28125,3.375 -0.5625,7.03125 -0.140625,3.65625 -0.140625,7.3125 0,3.23438 0.140625,6.46875 0.140625,3.23438 0.421875,6.1875 h 53.4375 l -6.1875,16.59375 h -44.4375 q 6.890625,25.59375 25.453125,40.35938 18.5625,14.625 39.65625,14.625 22.07812,0 34.59375,-4.35938 12.51562,-4.5 22.07812,-13.07812 h 2.10938 z"
     id="text14"
     transform="matrix(0.9,0.0,0.0,0.9,756.0,55.799999999999955)"
     aria-label="€" />
  <path
     style="font-size:288px;fill:#666666"
     d="m 172.40625,709.28125 q -15.1875,7.17187 -28.26563,9.84375 -12.9375,2.67187 -30.65624,2.67187 -34.17188,0 -61.031255,-21.23437 Q 25.734375,679.32812 18.84375,642.76562 H 0 l 6.1875,-16.59375 h 10.546875 q -0.28125,-2.95312 -0.421875,-6.1875 -0.140625,-3.375 -0.140625,-6.46875 0,-3.65625 0.140625,-7.3125 0.140625,-3.65625 0.421875,-7.03125 H 0 l 6.1875,-16.59375 h 13.078125 q 8.15625,-36.14062 34.3125,-56.95312 26.15625,-20.8125 60.328125,-20.8125 19.82812,0 33.1875,2.95312 13.5,2.8125 25.3125,9.14063 v 29.39062 h -2.25 q -11.25,-9.14062 -25.17188,-13.35937 -13.92187,-4.35938 -31.35937,-4.35938 -22.078125,0 -40.078125,14.625 -18,14.48438 -24.75,39.375 h 66.796875 l -6.1875,16.59375 h -63.5625 q -0.28125,3.375 -0.5625,7.03125 -0.140625,3.65625 -0.140625,7.3125 0,3.23438 0.140625,6.46875 0.140625,3.23438 0.421875,6.1875 h 53.4375 l -6.1875,16.59375 h -44.4375 q 6.890625,25.59375 25.453125,40.35938 18.5625,14.625 39.65625,14.625 22.07812,0 34.59375,-4.35938 12.51562,-4.5 22.07812,-13.07812 h 2.10938 z"
     id="text15"
     transform="matrix(0.9,0.0,0.0,0.9,756.0,-160.20000000000005)"
     aria-label="€" />
  <path
     style="font-size:288px;fill:#666666"
     d="m 172.40625,709.28125 q -15.1875,7.17187 -28.26563,9.84375 -12.9375,2.67187 -30.65624,2.67187 -34.17188,0 -61.031255,-21.23437 Q 25.734375,679.32812 18.84375,642.76562 H 0 l 6.1875,-16.59375 h 10.546875 q -0.28125,-2.95312 -0.421875,-6.1875 -0.140625,-3.375 -0.140625,-6.46875 0,-3.65625 0.140625,-7.3125 0.140625,-3.65625 0.421875,-7.03125 H 0 l 6.1875,-16.59375 h 13.078125 q 8.15625,-36.14062 34.3125,-56.95312 26.15625,-20.8125 60.328125,-20.8125 19.82812,0 33.1875,2.95312 13.5,2.8125 25.3125,9.14063 v 29.39062 h -2.25 q -11.25,-9.14062 -25.17188,-13.35937 -13.92187,-4.35938 -31.35937,-4.35938 -22.078125,0 -40.078125,14.625 -18,14.48438 -24.75,39.375 h 66.796875 l -6.1875,16.59375 h -63.5625 q -0.28125,3.375 -0.5625,7.03125 -0.140625,3.65625 -0.140625,7.3125 0,3.23438 0.140625,6.46875 0.140625,3.23438 0.421875,6.1875 h 53.4375 l -6.1875,16.59375 h -44.4375 q 6.890625,25.59375 25.453125,40.35938 18.5625,14.625 39.65625,14.625 22.07812,0 34.59375,-4.35938 12.51562,-4.5 22.07812,-13.07812 h 2.10938 z"
     id="text16"
     transform="matrix(0.9,0.0,0.0,0.9,756.0,-376.20000000000005)"
     aria-label="€" />
  <path
     style="font-size:288px;fill:#666666"
     d="m 172.40625,709.28125 q -15.1875,7.17187 -28.26563,9.84375 -12.9375,2.67187 -30.65624,2.67187 -34.17188,0 -61.031255,-21.23437 Q 25.734375,679.32812 18.84375,642.76562 H 0 l 6.1875,-16.59375 h 10.546875 q -0.28125,-2.95312 -0.421875,-6.1875 -0.140625,-3.375 -0.140625,-6.46875 0,-3.65625 0.140625,-7.3125 0.140625,-3.65625 0.421875,-7.03125 H 0 l 6.1875,-16.59375 h 13.078125 q 8.15625,-36.14062 34.3125,-56.95312 26.15625,-20.8125 60.328125,-20.8125 19.82812,0 33.1875,2.95312 13.5,2.8125 25.3125,9.14063 v 29.39062 h -2.25 q -11.25,-9.14062 -25.17188,-13.35937 -13.92187,-4.35938 -31.35937,-4.35938 -22.078125,0 -40.078125,14.625 -18,14.48438 -24.75,39.375 h 66.796875 l -6.1875,16.59375 h -63.5625 q -0.28125,3.375 -0.5625,7.03125 -0.140625,3.65625 -0.140625,7.3125 0,3.23438 0.140625,6.46875 0.140625,3.23438 0.421875,6.1875 h 53.4375 l -6.1875,16.59375 h -44.4375 q 6.890625,25.59375 25.453125,40.35938 18.5625,14.625 39.65625,14.625 22.07812,0 34.59375,-4.35938 12.51562,-4.5 22.07812,-13.07812 h 2.10938 z"
     id="text17"
     transform="matrix(0.9,0.0,0.0,0.9,972.0,271.79999999999995)"
     aria-label="€" />
  <path
     style="font-size:288px;fill:#666666"
     d="m 172.40625,709.28125 q -15.1875,7.17187 -28.26563,9.84375 -12.9375,2.67187 -30.65624,2.67187 -34.17188,0 -61.031255,-21.23437 Q 25.734375,679.32812 18.84375,642.76562 H 0 l 6.1875,-16.59375 h 10.546875 q -0.28125,-2.95312 -0.421875,-6.1875 -0.140625,-3.375 -0.140625,-6.46875 0,-3.65625 0.140625,-7.3125 0.140625,-3.65625 0.421875,-7.03125 H 0 l 6.1875,-16.59375 h 13.078125 q 8.15625,-36.14062 34.3125,-56.95312 26.15625,-20.8125 60.328125,-20.8125 19.82812,0 33.1875,2.95312 13.5,2.8125 25.3125,9.14063 v 29.39062 h -2.25 q -11.25,-9.14062 -25.17188,-13.35937 -13.92187,-4.35938 -31.35937,-4.35938 -22.078125,0 -40.078125,14.625 -18,14.48438 -24.75,39.375 h 66.796875 l -6.1875,16.59375 h -63.5625 q -0.28125,3.375 -0.5625,7.03125 -0.140625,3.65625 -0.140625,7.3125 0,3.23438 0.140625,6.46875 0.140625,3.23438 0.421875,6.1875 h 53.4375 l -6.1875,16.59375 h -44.4375 q 6.890625,25.59375 25.453125,40.35938 18.5625,14.625 39.65625,14.625 22.07812,0 34.59375,-4.35938 12.51562,-4.5 22.07812,-13.07812 h 2.10938 z"
     id="text18"
     transform="matrix(0.9,0.0,0.0,0.9,972.0,55.799999999999955)"
     aria-label="€" />
  <path
     style="font-size:288px;fill:#666666"
     d="m 172.40625,709.28125 q -15.1875,7.17187 -28.26563,9.84375 -12.9375,2.67187 -30.65624,2.67187 -34.17188,0 -61.031255,-21.23437 Q 25.734375,679.32812 18.84375,642.76562 H 0 l 6.1875,-16.59375 h 10.546875 q -0.28125,-2.95312 -0.421875,-6.1875 -0.140625,-3.375 -0.140625,-6.46875 0,-3.65625 0.140625,-7.3125 0.140625,-3.65625 0.421875,-7.03125 H 0 l 6.1875,-16.59375 h 13.078125 q 8.15625,-36.14062 34.3125,-56.95312 26.15625,-20.8125 60.328125,-20.8125 19.82812,0 33.1875,2.95312 13.5,2.8125 25.3125,9.14063 v 29.39062 h -2.25 q -11.25,-9.14062 -25.17188,-13.35937 -13.92187,-4.35938 -31.35937,-4.35938 -22.078125,0 -40.078125,14.625 -18,14.48438 -24.75,39.375 h 66.796875 l -6.1875,16.59375 h -63.5625 q -0.28125,3.375 -0.5625,7.03125 -0.140625,3.65625 -0.140625,7.3125 0,3.23438 0.140625,6.46875 0.140625,3.23438 0.421875,6.1875 h 53.4375 l -6.1875,16.59375 h -44.4375 q 6.890625,25.59375 25.453125,40.35938 18.5625,14.625 39.65625,14.625 22.07812,0 34.59375,-4.35938 12.51562,-4.5 22.07812,-13.07812 h 2.10938 z"
     id="text19"
     transform="matrix(0.9,0.0,0.0,0.9,972.0,-160.20000000000005)"
     aria-label="€" />
  <path
     style="font-size:288px;fill:#666666"
     d="m 172.40625,709.28125 q -15.1875,7.17187 -28.26563,9.84375 -12.9375,2.67187 -30.65624,2.67187 -34.17188,0 -61.031255,-21.23437 Q 25.734375,679.32812 18.84375,642.76562 H 0 l 6.1875,-16.59375 h 10.546875 q -0.28125,-2.95312 -0.421875,-6.1875 -0.140625,-3.375 -0.140625,-6.46875 0,-3.65625 0.140625,-7.3125 0.140625,-3.65625 0.421875,-7.03125 H 0 l 6.1875,-16.59375 h 13.078125 q 8.15625,-36.14062 34.3125,-56.95312 26.15625,-20.8125 60.328125,-20.8125 19.82812,0 33.1875,2.95312 13.5,2.8125 25.3125,9.14063 v 29.39062 h -2.25 q -11.25,-9.14062 -25.17188,-13.35937 -13.92187,-4.35938 -31.35937,-4.35938 -22.078125,0 -40.078125,14.625 -18,14.48438 -24.75,39.375 h 66.796875 l -6.1875,16.59375 h -63.5625 q -0.28125,3.375 -0.5625,7.03125 -0.140625,3.65625 -0.140625,7.3125 0,3.23438 0.140625,6.46875 0.140625,3.23438 0.421875,6.1875 h 53.4375 l -6.1875,16.59375 h -44.4375 q 6.890625,25.59375 25.453125,40.35938 18.5625,14.625 39.65625,14.625 22.07812,0 34.59375,-4.35938 12.51562,-4.5 22.07812,-13.07812 h 2.10938 z"
     id="text20"
     transform="matrix(0.9,0.0,0.0,0.9,972.0,-376.20000000000005)"
     aria-label="€" />
  <path
     style="font-size:288px;fill:#666666"
     d="m 172.40625,709.28125 q -15.1875,7.17187 -28.26563,9.84375 -12.9375,2.67187 -30.65624,2.67187 -34.17188,0 -61.031255,-21.23437 Q 25.734375,679.32812 18.84375,642.76562 H 0 l 6.1875,-16.59375 h 10.546875 q -0.28125,-2.95312 -0.421875,-6.1875 -0.140625,-3.375 -0.140625,-6.46875 0,-3.65625 0.140625,-7.3125 0.140625,-3.65625 0.421875,-7.03125 H 0 l 6.1875,-16.59375 h 13.078125 q 8.15625,-36.14062 34.3125,-56.95312 26.15625,-20.8125 60.328125,-20.8125 19.82812,0 33.1875,2.95312 13.5,2.8125 25.3125,9.14063 v 29.39062 h -2.25 q -11.25,-9.14062 -25.17188,-13.35937 -13.92187,-4.35938 -31.35937,-4.35938 -22.078125,0 -40.078125,14.625 -18,14.48438 -24.75,39.375 h 66.796875 l -6.1875,16.59375 h -63.5625 q -0.28125,3.375 -0.5625,7.03125 -0.140625,3.65625 -0.140625,7.3125 0,3.23438 0.140625,6.46875 0.140625,3.23438 0.421875,6.1875 h 53.4375 l -6.1875,16.59375 h -44.4375 q 6.890625,25.59375 25.453125,40.35938 18.5625,14.625 39.65625,14.625 22.07812,0 34.59375,-4.35938 12.51562,-4.5 22.07812,-13.07812 h 2.10938 z"
     id="text21"
     transform="matrix(0.9,0.0,0.0,0.9,1188.0,271.79999999999995)"
     aria-label="€" />
  <path
     style="font-size:288px;fill:#666666"
     d="m 172.40625,709.28125 q -15.1875,7.17187 -28.26563,9.84375 -12.9375,2.67187 -30.65624,2.67187 -34.17188,0 -61.031255,-21.23437 Q 25.734375,679.32812 18.84375,642.76562 H 0 l 6.1875,-16.59375 h 10.546875 q -0.28125,-2.95312 -0.421875,-6.1875 -0.140625,-3.375 -0.140625,-6.46875 0,-3.65625 0.140625,-7.3125 0.140625,-3.65625 0.421875,-7.03125 H 0 l 6.1875,-16.59375 h 13.078125 q 8.15625,-36.14062 34.3125,-56.95312 26.15625,-20.8125 60.328125,-20.8125 19.82812,0 33.1875,2.95312 13.5,2.8125 25.3125,9.14063 v 29.39062 h -2.25 q -11.25,-9.14062 -25.17188,-13.35937 -13.92187,-4.35938 -31.35937,-4.35938 -22.078125,0 -40.078125,14.625 -18,14.48438 -24.75,39.375 h 66.796875 l -6.1875,16.59375 h -63.5625 q -0.28125,3.375 -0.5625,7.03125 -0.140625,3.65625 -0.140625,7.3125 0,3.23438 0.140625,6.46875 0.140625,3.23438 0.421875,6.1875 h 53.4375 l -6.1875,16.59375 h -44.4375 q 6.890625,25.59375 25.453125,40.35938 18.5625,14.625 39.65625,14.625 22.07812,0 34.59375,-4.35938 12.51562,-4.5 22.07812,-13.07812 h 2.10938 z"
     id="text22"
     transform="matrix(0.9,0.0,0.0,0.9,1188.0,55.799999999999955)"
     aria-label="€" />
  <path
     style="font-size:288px;fill:#666666"
     d="m 172.40625,709.28125 q -15.1875,7.17187 -28.26563,9.84375 -12.9375,2.67187 -30.65624,2.67187 -34.17188,0 -61.031255,-21.23437 Q 25.734375,679.32812 18.84375,642.76562 H 0 l 6.1875,-16.59375 h 10.546875 q -0.28125,-2.95312 -0.421875,-6.1875 -0.140625,-3.375 -0.140625,-6.46875 0,-3.65625 0.140625,-7.3125 0.140625,-3.65625 0.421875,-7.03125 H 0 l 6.1875,-16.59375 h 13.078125 q 8.15625,-36.14062 34.3125,-56.95312 26.15625,-20.8125 60.328125,-20.8125 19.82812,0 33.1875,2.95312 13.5,2.8125 25.3125,9.14063 v 29.39062 h -2.25 q -11.25,-9.14062 -25.17188,-13.35937 -13.92187,-4.35938 -31.35937,-4.35938 -22.078125,0 -40.078125,14.625 -18,14.48438 -24.75,39.375 h 66.796875 l -6.1875,16.59375 h -63.5625 q -0.28125,3.375 -0.5625,7.03125 -0.140625,3.65625 -0.140625,7.3125 0,3.23438 0.140625,6.46875 0.140625,3.23438 0.421875,6.1875 h 53.4375 l -6.1875,16.59375 h -44.4375 q 6.890625,25.59375 25.453125,40.35938 18.5625,14.625 39.65625,14.625 22.07812,0 34.59375,-4.35938 12.51562,-4.5 22.07812,-13.07812 h 2.10938 z"
     id="text23"
     transform="matrix(0.9,0.0,0.0,0.9,1188.0,-160.20000000000005)"
     aria-label="€" />
  <path
     style="font-size:288px;fill:#666666"
     d="m 172.40625,709.28125 q -15.1875,7.17187 -28.26563,9.84375 -12.9375,2.67187 -30.65624,2.67187 -34.17188,0 -61.031255,-21.23437 Q 25.734375,679.32812 18.84375,642.76562 H 0 l 6.1875,-16.59375 h 10.546875 q -0.28125,-2.95312 -0.421875,-6.1875 -0.140625,-3.375 -0.140625,-6.46875 0,-3.65625 0.140625,-7.3125 0.140625,-3.65625 0.421875,-7.03125 H 0 l 6.1875,-16.59375 h 13.078125 q 8.15625,-36.14062 34.3125,-56.95312 26.15625,-20.8125 60.328125,-20.8125 19.82812,0 33.1875,2.95312 13.5,2.8125 25.3125,9.14063 v 29.39062 h -2.25 q -11.25,-9.14062 -25.17188,-13.35937 -13.92187,-4.35938 -31.35937,-4.35938 -22.078125,0 -40.078125,14.625 -18,14.48438 -24.75,39.375 h 66.796875 l -6.1875,16.59375 h -63.5625 q -0.28125,3.375 -0.5625,7.03125 -0.140625,3.65625 -0.140625,7.3125 0,3.23438 0.140625,6.46875 0.140625,3.23438 0.421875,6.1875 h 53.4375 l -6.1875,16.59375 h -44.4375 q 6.890625,25.59375 25.453125,40.35938 18.5625,14.625 39.65625,14.625 22.07812,0 34.59375,-4.35938 12.51562,-4.5 22.07812,-13.07812 h 2.10938 z"
     id="text24"
     transform="matrix(0.9,0.0,0.0,0.9,1188.0,-376.20000000000005)"
     aria-label="€" />
  <path
     style="font-size:288px;fill:#666666"
     d="m 172.40625,709.28125 q -15.1875,7.17187 -28.26563,9.84375 -12.9375,2.67187 -30.65624,2.67187 -34.17188,0 -61.031255,-21.23437 Q 25.734375,679.32812 18.84375,642.76562 H 0 l 6.1875,-16.59375 h 10.546875 q -0.28125,-2.95312 -0.421875,-6.1875 -0.140625,-3.375 -0.140625,-6.46875 0,-3.65625 0.140625,-7.3125 0.140625,-3.65625 0.421875,-7.03125 H 0 l 6.1875,-16.59375 h 13.078125 q 8.15625,-36.14062 34.3125,-56.95312 26.15625,-20.8125 60.328125,-20.8125 19.82812,0 33.1875,2.95312 13.5,2.8125 25.3125,9.14063 v 29.39062 h -2.25 q -11.25,-9.14062 -25.17188,-13.35937 -13.92187,-4.35938 -31.35937,-4.35938 -22.078125,0 -40.078125,14.625 -18,14.48438 -24.75,39.375 h 66.796875 l -6.1875,16.59375 h -63.5625 q -0.28125,3.375 -0.5625,7.03125 -0.140625,3.65625 -0.140625,7.3125 0,3.23438 0.140625,6.46875 0.140625,3.23438 0.421875,6.1875 h 53.4375 l -6.1875,16.59375 h -44.4375 q 6.890625,25.59375 25.453125,40.35938 18.5625,14.625 39.65625,14.625 22.07812,0 34.59375,-4.35938 12.51562,-4.5 22.07812,-13.07812 h 2.10938 z"
     id="text25"
     transform="matrix(0.9,0.0,0.0,0.9,1404.0,271.79999999999995)"
     aria-label="€" />
  <path
     style="font-size:288px;fill:#666666"
     d="m 172.40625,709.28125 q -15.1875,7.17187 -28.26563,9.84375 -12.9375,2.67187 -30.65624,2.67187 -34.17188,0 -61.031255,-21.23437 Q 25.734375,679.32812 18.84375,642.76562 H 0 l 6.1875,-16.59375 h 10.546875 q -0.28125,-2.95312 -0.421875,-6.1875 -0.140625,-3.375 -0.140625,-6.46875 0,-3.65625 0.140625,-7.3125 0.140625,-3.65625 0.421875,-7.03125 H 0 l 6.1875,-16.59375 h 13.078125 q 8.15625,-36.14062 34.3125,-56.95312 26.15625,-20.8125 60.328125,-20.8125 19.82812,0 33.1875,2.95312 13.5,2.8125 25.3125,9.14063 v 29.39062 h -2.25 q -11.25,-9.14062 -25.17188,-13.35937 -13.92187,-4.35938 -31.35937,-4.35938 -22.078125,0 -40.078125,14.625 -18,14.48438 -24.75,39.375 h 66.796875 l -6.1875,16.59375 h -63.5625 q -0.28125,3.375 -0.5625,7.03125 -0.140625,3.65625 -0.140625,7.3125 0,3.23438 0.140625,6.46875 0.140625,3.23438 0.421875,6.1875 h 53.4375 l -6.1875,16.59375 h -44.4375 q 6.890625,25.59375 25.453125,40.35938 18.5625,14.625 39.65625,14.625 22.07812,0 34.59375,-4.35938 12.51562,-4.5 22.07812,-13.07812 h 2.10938 z"
     id="text26"
     transform="matrix(0.9,0.0,0.0,0.9,1404.0,55.799999999999955)"
     aria-label="€" />
  <path
     style="font-size:288px;fill:#666666"
     d="m 172.40625,709.28125 q -15.1875,7.17187 -28.26563,9.84375 -12.9375,2.67187 -30.65624,2.67187 -34.17188,0 -61.031255,-21.23437 Q 25.734375,679.32812 18.84375,642.76562 H 0 l 6.1875,-16.59375 h 10.546875 q -0.28125,-2.95312 -0.421875,-6.1875 -0.140625,-3.375 -0.140625,-6.46875 0,-3.65625 0.140625,-7.3125 0.140625,-3.65625 0.421875,-7.03125 H 0 l 6.1875,-16.59375 h 13.078125 q 8.15625,-36.14062 34.3125,-56.95312 26.15625,-20.8125 60.328125,-20.8125 19.82812,0 33.1875,2.95312 13.5,2.8125 25.3125,9.14063 v 29.39062 h -2.25 q -11.25,-9.14062 -25.17188,-13.35937 -13.92187,-4.35938 -31.35937,-4.35938 -22.078125,0 -40.078125,14.625 -18,14.48438 -24.75,39.375 h 66.796875 l -6.1875,16.59375 h -63.5625 q -0.28125,3.375 -0.5625,7.03125 -0.140625,3.65625 -0.140625,7.3125 0,3.23438 0.140625,6.46875 0.140625,3.23438 0.421875,6.1875 h 53.4375 l -6.1875,16.59375 h -44.4375 q 6.890625,25.59375 25.453125,40.35938 18.5625,14.625 39.65625,14.625 22.07812,0 34.59375,-4.35938 12.51562,-4.5 22.07812,-13.07812 h 2.10938 z"
     id="text27"
     transform="matrix(0.9,0.0,0.0,0.9,1404.0,-160.20000000000005)"
     aria-label="€" />
  <path
     style="font-size:288px;fill:#666666"
     d="m 172.40625,709.28125 q -15.1875,7.17187 -28.26563,9.84375 -12.9375,2.67187 -30.65624,2.67187 -34.17188,0 -61.031255,-21.23437 Q 25.734375,679.32812 18.84375,642.76562 H 0 l 6.1875,-16.59375 h 10.546875 q -0.28125,-2.95312 -0.421875,-6.1875 -0.140625,-3.375 -0.140625,-6.46875 0,-3.65625 0.140625,-7.3125 0.140625,-3.65625 0.421875,-7.03125 H 0 l 6.1875,-16.59375 h 13.078125 q 8.15625,-36.14062 34.3125,-56.95312 26.15625,-20.8125 60.328125,-20.8125 19.82812,0 33.1875,2.95312 13.5,2.8125 25.3125,9.14063 v 29.39062 h -2.25 q -11.25,-9.14062 -25.17188,-13.35937 -13.92187,-4.35938 -31.35937,-4.35938 -22.078125,0 -40.078125,14.625 -18,14.48438 -24.75,39.375 h 66.796875 l -6.1875,16.59375 h -63.5625 q -0.28125,3.375 -0.5625,7.03125 -0.140625,3.65625 -0.140625,7.3125 0,3.23438 0.140625,6.46875 0.140625,3.23438 0.421875,6.1875 h 53.4375 l -6.1875,16.59375 h -44.4375 q 6.890625,25.59375 25.453125,40.35938 18.5625,14.625 39.65625,14.625 22.07812,0 34.59375,-4.35938 12.51562,-4.5 22.07812,-13.07812 h 2.10938 z"
     id="text28"
     transform="matrix(0.9,0.0,0.0,0.9,1404.0,-376.20000000000005)"
     aria-label="€" />
  <path
     style="font-size:288px;fill:#666666"
     d="m 172.40625,709.28125 q -15.1875,7.17187 -28.26563,9.84375 -12.9375,2.67187 -30.65624,2.67187 -34.17188,0 -61.031255,-21.23437 Q 25.734375,679.32812 18.84375,642.76562 H 0 l 6.1875,-16.59375 h 10.546875 q -0.28125,-2.95312 -0.421875,-6.1875 -0.140625,-3.375 -0.140625,-6.46875 0,-3.65625 0.140625,-7.3125 0.140625,-3.65625 0.421875,-7.03125 H 0 l 6.1875,-16.59375 h 13.078125 q 8.15625,-36.14062 34.3125,-56.95312 26.15625,-20.8125 60.328125,-20.8125 19.82812,0 33.1875,2.95312 13.5,2.8125 25.3125,9.14063 v 29.39062 h -2.25 q -11.25,-9.14062 -25.17188,-13.35937 -13.92187,-4.35938 -31.35937,-4.35938 -22.078125,0 -40.078125,14.625 -18,14.48438 -24.75,39.375 h 66.796875 l -6.1875,16.59375 h -63.5625 q -0.28125,3.375 -0.5625,7.03125 -0.140625,3.65625 -0.140625,7.3125 0,3.23438 0.140625,6.46875 0.140625,3.23438 0.421875,6.1875 h 53.4375 l -6.1875,16.59375 h -44.4375 q 6.890625,25.59375 25.453125,40.35938 18.5625,14.625 39.65625,14.625 22.07812,0 34.59375,-4.35938 12.51562,-4.5 22.07812,-13.07812 h 2.10938 z"
     id="text29"
     transform="matrix(0.9,0.0,0.0,0.9,1620.0,271.79999999999995)"
     aria-label="€" />
  <path
     style="font-size:288px;fill:#666666"
     d="m 172.40625,709.28125 q -15.1875,7.17187 -28.26563,9.84375 -12.9375,2.67187 -30.65624,2.67187 -34.17188,0 -61.031255,-21.23437 Q 25.734375,679.32812 18.84375,642.76562 H 0 l 6.1875,-16.59375 h 10.546875 q -0.28125,-2.95312 -0.421875,-6.1875 -0.140625,-3.375 -0.140625,-6.46875 0,-3.65625 0.140625,-7.3125 0.140625,-3.65625 0.421875,-7.03125 H 0 l 6.1875,-16.59375 h 13.078125 q 8.15625,-36.14062 34.3125,-56.95312 26.15625,-20.8125 60.328125,-20.8125 19.82812,0 33.1875,2.95312 13.5,2.8125 25.3125,9.14063 v 29.39062 h -2.25 q -11.25,-9.14062 -25.17188,-13.35937 -13.92187,-4.35938 -31.35937,-4.35938 -22.078125,0 -40.078125,14.625 -18,14.48438 -24.75,39.375 h 66.796875 l -6.1875,16.59375 h -63.5625 q -0.28125,3.375 -0.5625,7.03125 -0.140625,3.65625 -0.140625,7.3125 0,3.23438 0.140625,6.46875 0.140625,3.23438 0.421875,6.1875 h 53.4375 l -6.1875,16.59375 h -44.4375 q 6.890625,25.59375 25.453125,40.35938 18.5625,14.625 39.65625,14.625 22.07812,0 34.59375,-4.35938 12.51562,-4.5 22.07812,-13.07812 h 2.10938 z"
     id="text30"
     transform="matrix(0.9,0.0,0.0,0.9,1620.0,55.799999999999955)"
     aria-label="€" />
  <path
     style="font-size:288px;fill:#666666"
     d="m 172.40625,709.28125 q -15.1875,7.17187 -28.26563,9.84375 -12.9375,2.67187 -30.65624,2.67187 -34.17188,0 -61.031255,-21.23437 Q 25.734375,679.32812 18.84375,642.76562 H 0 l 6.1875,-16.59375 h 10.546875 q -0.28125,-2.95312 -0.421875,-6.1875 -0.140625,-3.375 -0.140625,-6.46875 0,-3.65625 0.140625,-7.3125 0.140625,-3.65625 0.421875,-7.03125 H 0 l 6.1875,-16.59375 h 13.078125 q 8.15625,-36.14062 34.3125,-56.95312 26.15625,-20.8125 60.328125,-20.8125 19.82812,0 33.1875,2.95312 13.5,2.8125 25.3125,9.14063 v 29.39062 h -2.25 q -11.25,-9.14062 -25.17188,-13.35937 -13.92187,-4.35938 -31.35937,-4.35938 -22.078125,0 -40.078125,14.625 -18,14.48438 -24.75,39.375 h 66.796875 l -6.1875,16.59375 h -63.5625 q -0.28125,3.375 -0.5625,7.03125 -0.140625,3.65625 -0.140625,7.3125 0,3.23438 0.140625,6.46875 0.140625,3.23438 0.421875,6.1875 h 53.4375 l -6.1875,16.59375 h -44.4375 q 6.890625,25.59375 25.453125,40.35938 18.5625,14.625 39.65625,14.625 22.07812,0 34.59375,-4.35938 12.51562,-4.5 22.07812,-13.07812 h 2.10938 z"
     id="text31"
     transform="matrix(0.9,0.0,0.0,0.9,1620.0,-160.20000000000005)"
     aria-label="€" />
  <path
     style="font-size:288px;fill:#666666"
     d="m 172.40625,709.28125 q -15.1875,7.17187 -28.26563,9.84375 -12.9375,2.67187 -30.65624,2.67187 -34.17188,0 -61.031255,-21.23437 Q 25.734375,679.32812 18.84375,642.76562 H 0 l 6.1875,-16.59375 h 10.546875 q -0.28125,-2.95312 -0.421875,-6.1875 -0.140625,-3.375 -0.140625,-6.46875 0,-3.65625 0.140625,-7.3125 0.140625,-3.65625 0.421875,-7.03125 H 0 l 6.1875,-16.59375 h 13.078125 q 8.15625,-36.14062 34.3125,-56.95312 26.15625,-20.8125 60.328125,-20.8125 19.82812,0 33.1875,2.95312 13.5,2.8125 25.3125,9.14063 v 29.39062 h -2.25 q -11.25,-9.14062 -25.17188,-13.35937 -13.92187,-4.35938 -31.35937,-4.35938 -22.078125,0 -40.078125,14.625 -18,14.48438 -24.75,39.375 h 66.796875 l -6.1875,16.59375 h -63.5625 q -0.28125,3.375 -0.5625,7.03125 -0.140625,3.65625 -0.140625,7.3125 0,3.23438 0.140625,6.46875 0.140625,3.23438 0.421875,6.1875 h 53.4375 l -6.1875,16.59375 h -44.4375 q 6.890625,25.59375 25.453125,40.35938 18.5625,14.625 39.65625,14.625 22.07812,0 34.59375,-4.35938 12.51562,-4.5 22.07812,-13.07812 h 2.10938 z"
     id="text32"
     transform="matrix(0.9,0.0,0.0,0.9,1620.0,-376.20000000000005)"
     aria-label="€" />
  <path
     d="M60,777 l1200,0 l0,240 l-1200,0 Z M60,777"
     fill="rgb(21,71,85)"
     transform="matrix(0.9,0.0,0.0,-0.9,54.0,972.0)"
     id="path32" />
  <path
     style="font-size:288px"
     d="M 161.85937,533.35937 H 55.96875 v 59.0625 h 90.98437 v 24.75 H 55.96875 V 718 H 28.125 V 508.60937 h 133.73437 z"
     id="text33"
     transform="matrix(0.9,0.0,0.0,0.9,108.0,-376.20000000000005)"
     aria-label="F" />
  <path
     style="font-size:288px"
     d="m 184.21875,532.65625 q 12.79687,14.0625 19.54687,34.45312 6.89063,20.39063 6.89063,46.26563 0,25.875 -7.03125,46.40625 -6.89063,20.39062 -19.40625,34.03125 -12.9375,14.20312 -30.65625,21.375 -17.57813,7.17187 -40.21875,7.17187 -22.078125,0 -40.21875,-7.3125 -18,-7.3125 -30.65625,-21.23437 -12.65625,-13.92188 -19.546875,-34.17188 -6.75,-20.25 -6.75,-46.26562 0,-25.59375 6.75,-45.84375 6.75,-20.39063 19.6875,-34.875 12.375,-13.78125 30.65625,-21.09375 18.421875,-7.3125 40.078125,-7.3125 22.5,0 40.35937,7.45312 18,7.3125 30.51563,20.95313 z M 181.6875,613.375 q 0,-40.78125 -18.28125,-62.85938 -18.28125,-22.21875 -49.92187,-22.21875 -31.92188,0 -50.20313,22.21875 -18.140625,22.07813 -18.140625,62.85938 0,41.20312 18.5625,63.14062 18.5625,21.79688 49.781255,21.79688 31.21874,0 49.64062,-21.79688 18.5625,-21.9375 18.5625,-63.14062 z"
     id="text34"
     transform="matrix(0.9,0.0,0.0,0.9,324.0,-376.20000000000005)"
     aria-label="O" />
  <path
     style="font-size:288px"
     d="M 187.875,718 H 153.42187 L 54.140625,530.6875 V 718 H 28.125 V 508.60937 h 43.171875 l 90.562495,171 v -171 H 187.875 Z"
     id="text35"
     transform="matrix(0.9,0.0,0.0,0.9,540.0,-376.20000000000005)"
     aria-label="N" />
  <path
     style="font-size:288px"
     d="m 205.03125,613.51562 q 0,28.54688 -12.51563,51.75 -12.375,23.20313 -33.04687,36 Q 145.125,710.125 127.40625,714.0625 109.82813,718 81,718 H 28.125 V 508.60937 h 52.3125 q 30.65625,0 48.65625,4.5 18.14062,4.35938 30.65625,12.09375 21.375,13.35938 33.32812,35.57813 11.95313,22.21875 11.95313,52.73437 z m -29.10938,-0.42187 q 0,-24.60938 -8.57812,-41.48438 Q 158.76562,554.73437 141.75,545.03125 129.375,538 115.45313,535.32812 101.53125,532.51562 82.125,532.51562 H 55.96875 V 694.09375 H 82.125 q 20.10938,0 35.01563,-2.95313 15.04687,-2.95312 27.56249,-10.96875 15.60938,-9.98437 23.34375,-26.29687 7.875,-16.3125 7.875,-40.78125 z"
     id="text36"
     transform="matrix(0.9,0.0,0.0,0.9,756.0,-376.20000000000005)"
     aria-label="D" />
  <path
     style="font-size:288px"
     d="m 180.28125,658.23437 q 0,12.23438 -5.76563,24.1875 -5.625,11.95313 -15.89062,20.25 -11.25,9 -26.29688,14.0625 -14.90624,5.0625 -35.999995,5.0625 -22.640625,0 -40.78125,-4.21875 -18,-4.21875 -36.703125,-12.51562 v -34.875 h 1.96875 q 15.890625,13.21875 36.703125,20.39062 20.8125,7.17188 39.09375,7.17188 25.875005,0 40.218745,-9.70313 14.48438,-9.70312 14.48438,-25.875 0,-13.92187 -6.89063,-20.53125 -6.75,-6.60937 -20.67187,-10.26562 -10.54687,-2.8125 -22.92187,-4.64063 Q 88.59375,624.90625 74.8125,622.09375 46.96875,616.1875 33.46875,601.98437 20.109375,587.64062 20.109375,564.71875 q 0,-26.29688 22.21875,-43.03125 22.21875,-16.875 56.390625,-16.875 22.07813,0 40.5,4.21875 18.42187,4.21875 32.625,10.40625 v 32.90625 H 169.875 q -11.95313,-10.125 -31.5,-16.73438 -19.40625,-6.75 -39.796875,-6.75 -22.359375,0 -36,9.28125 -13.5,9.28125 -13.5,23.90625 0,13.07813 6.75,20.53125 6.75,7.45313 23.765625,11.39063 9,1.96875 25.59375,4.78125 16.59375,2.8125 28.125,5.76562 23.34375,6.1875 35.15625,18.70313 11.8125,12.51562 11.8125,35.01562 z"
     id="text37"
     transform="matrix(0.9,0.0,0.0,0.9,972.0,-376.20000000000005)"
     aria-label="S" />
  <path
     d="M60,537 l480,0 l0,240 l-480,0 Z M60,537"
     fill="rgb(21,71,85)"
     transform="matrix(0.9,0.0,0.0,-0.9,54.0,972.0)"
     id="path37" />
  <path
     style="font-size:288px"
     d="M 166.07812,718 H 28.125 V 508.60937 h 137.95312 v 24.75 H 55.96875 v 57.375 h 110.10937 v 24.75 H 55.96875 V 693.25 h 110.10937 z"
     id="text38"
     transform="matrix(0.9,0.0,0.0,0.9,108.0,-160.20000000000005)"
     aria-label="E" />
  <path
     style="font-size:288px"
     d="M 187.875,718 H 153.42187 L 54.140625,530.6875 V 718 H 28.125 V 508.60937 h 43.171875 l 90.562495,171 v -171 H 187.875 Z"
     id="text39"
     transform="matrix(0.9,0.0,0.0,0.9,324.0,-160.20000000000005)"
     aria-label="N" />
  <path
     d="M60,297 l960,0 l0,240 l-960,0 Z M60,297"
     fill="rgb(21,71,85)"
     transform="matrix(0.9,0.0,0.0,-0.9,54.0,972.0)"
     id="path39" />
  <path
     style="font-size:288px;fill:#fcc500"
     d="m 186.04687,653.59375 q 0,15.60937 -5.90625,27.5625 -5.90625,11.95312 -15.89062,19.6875 Q 152.4375,710.125 138.23437,714.0625 124.17188,718 102.375,718 H 28.125 V 508.60937 h 62.015625 q 22.921875,0 34.312505,1.6875 11.39062,1.6875 21.79687,7.03125 11.53125,6.04688 16.73437,15.60938 5.20313,9.42187 5.20313,22.64062 0,14.90625 -7.59375,25.45313 -7.59375,10.40625 -20.25,16.73437 v 1.125 q 21.23437,4.35938 33.46875,18.70313 12.23437,14.20312 12.23437,36 z m -46.82812,-94.35938 q 0,-7.59375 -2.53125,-12.79687 Q 134.15625,541.23437 128.53125,538 121.92188,534.20312 112.5,533.35937 103.07813,532.375 89.15625,532.375 h -33.1875 v 60.46875 h 36 q 13.07813,0 20.8125,-1.26563 7.73438,-1.40625 14.34375,-5.625 6.60937,-4.21875 9.28125,-10.82812 2.8125,-6.75 2.8125,-15.89063 z m 17.85937,95.48438 q 0,-12.65625 -3.79687,-20.10938 -3.79688,-7.45312 -13.78125,-12.65625 -6.75,-3.51562 -16.45312,-4.5 -9.5625,-1.125 -23.343755,-1.125 H 55.96875 v 77.90625 H 92.8125 q 18.28125,0 29.95313,-1.82812 11.67187,-1.96875 19.12499,-7.03125 7.875,-5.48438 11.53125,-12.51563 3.65625,-7.03125 3.65625,-18.14062 z"
     id="text40"
     transform="matrix(0.9,0.0,0.0,0.9,108.0,55.799999999999955)"
     aria-label="B" />
  <path
     style="font-size:288px;fill:#fcc500"
     d="m 184.21875,532.65625 q 12.79687,14.0625 19.54687,34.45312 6.89063,20.39063 6.89063,46.26563 0,25.875 -7.03125,46.40625 -6.89063,20.39062 -19.40625,34.03125 -12.9375,14.20312 -30.65625,21.375 -17.57813,7.17187 -40.21875,7.17187 -22.078125,0 -40.21875,-7.3125 -18,-7.3125 -30.65625,-21.23437 -12.65625,-13.92188 -19.546875,-34.17188 -6.75,-20.25 -6.75,-46.26562 0,-25.59375 6.75,-45.84375 6.75,-20.39063 19.6875,-34.875 12.375,-13.78125 30.65625,-21.09375 18.421875,-7.3125 40.078125,-7.3125 22.5,0 40.35937,7.45312 18,7.3125 30.51563,20.95313 z M 181.6875,613.375 q 0,-40.78125 -18.28125,-62.85938 -18.28125,-22.21875 -49.92187,-22.21875 -31.92188,0 -50.20313,22.21875 -18.140625,22.07813 -18.140625,62.85938 0,41.20312 18.5625,63.14062 18.5625,21.79688 49.781255,21.79688 31.21874,0 49.64062,-21.79688 18.5625,-21.9375 18.5625,-63.14062 z"
     id="text41"
     transform="matrix(0.9,0.0,0.0,0.9,324.0,55.799999999999955)"
     aria-label="O" />
  <path
     style="font-size:288px;fill:#fcc500"
     d="M 166.07812,718 H 28.125 V 508.60937 h 137.95312 v 24.75 H 55.96875 v 57.375 h 110.10937 v 24.75 H 55.96875 V 693.25 h 110.10937 z"
     id="text42"
     transform="matrix(0.9,0.0,0.0,0.9,540.0,55.799999999999955)"
     aria-label="E" />
  <path
     style="font-size:288px;fill:#fcc500"
     d="M 196.45312,718 H 160.3125 l -82.828125,-93.23438 -20.8125,22.21875 V 718 H 28.828125 V 508.60937 h 27.84375 V 617.875 L 158.34375,508.60937 h 33.75 l -93.515625,98.4375 z"
     id="text43"
     transform="matrix(0.9,0.0,0.0,0.9,756.0,55.799999999999955)"
     aria-label="K" />
  <path
     d="M60,57 l1440,0 l0,240 l-1440,0 Z M60,57"
     fill="rgb(21,71,85)"
     transform="matrix(0.9,0.0,0.0,-0.9,54.0,972.0)"
     id="path43" />
  <path
     style="font-size:288px;fill:#ffffff"
     d="m 184.21875,532.65625 q 12.79687,14.0625 19.54687,34.45312 6.89063,20.39063 6.89063,46.26563 0,25.875 -7.03125,46.40625 -6.89063,20.39062 -19.40625,34.03125 -12.9375,14.20312 -30.65625,21.375 -17.57813,7.17187 -40.21875,7.17187 -22.078125,0 -40.21875,-7.3125 -18,-7.3125 -30.65625,-21.23437 -12.65625,-13.92188 -19.546875,-34.17188 -6.75,-20.25 -6.75,-46.26562 0,-25.59375 6.75,-45.84375 6.75,-20.39063 19.6875,-34.875 12.375,-13.78125 30.65625,-21.09375 18.421875,-7.3125 40.078125,-7.3125 22.5,0 40.35937,7.45312 18,7.3125 30.51563,20.95313 z M 181.6875,613.375 q 0,-40.78125 -18.28125,-62.85938 -18.28125,-22.21875 -49.92187,-22.21875 -31.92188,0 -50.20313,22.21875 -18.140625,22.07813 -18.140625,62.85938 0,41.20312 18.5625,63.14062 18.5625,21.79688 49.781255,21.79688 31.21874,0 49.64062,-21.79688 18.5625,-21.9375 18.5625,-63.14062 z"
     id="text44"
     transform="matrix(0.9,0.0,0.0,0.9,108.0,271.79999999999995)"
     aria-label="O" />
  <path
     style="font-size:288px;fill:#ffffff"
     d="M 187.875,718 H 153.42187 L 54.140625,530.6875 V 718 H 28.125 V 508.60937 h 43.171875 l 90.562495,171 v -171 H 187.875 Z"
     id="text45"
     transform="matrix(0.9,0.0,0.0,0.9,324.0,271.79999999999995)"
     aria-label="N" />
  <path
     style="font-size:288px;fill:#ffffff"
     d="M 160.59375,718 H 28.125 V 508.60937 H 55.96875 V 693.25 h 104.625 z"
     id="text46"
     transform="matrix(0.9,0.0,0.0,0.9,540.0,271.79999999999995)"
     aria-label="L" />
  <path
     style="font-size:288px;fill:#ffffff"
     d="M 101.95313,718 H 19.265625 V 696.625 H 46.6875 V 529.98437 H 19.265625 v -21.375 h 82.687505 v 21.375 H 74.53125 V 696.625 h 27.42188 z"
     id="text47"
     transform="matrix(0.9,0.0,0.0,0.9,756.0,271.79999999999995)"
     aria-label="I" />
  <path
     style="font-size:288px;fill:#ffffff"
     d="M 187.875,718 H 153.42187 L 54.140625,530.6875 V 718 H 28.125 V 508.60937 h 43.171875 l 90.562495,171 v -171 H 187.875 Z"
     id="text48"
     transform="matrix(0.9,0.0,0.0,0.9,972.0,271.79999999999995)"
     aria-label="N" />
  <path
     style="font-size:288px;fill:#ffffff"
     d="M 166.07812,718 H 28.125 V 508.60937 h 137.95312 v 24.75 H 55.96875 v 57.375 h 110.10937 v 24.75 H 55.96875 V 693.25 h 110.10937 z"
     id="text49"
     transform="matrix(0.9,0.0,0.0,0.9,1188.0,271.79999999999995)"
     aria-label="E" />
  <path
     style="font-size:86.4px;fill:#666666"
     d="M 61.846876,944.86875 H 38.854688 v 22.99219 H 31.851563 V 944.86875 H 8.8593752 v -6.75 H 31.851563 v -22.99219 h 7.003125 v 22.99219 h 22.992188 z"
     id="text50"
     transform="matrix(0.9,0.0,0.0,0.9,54.0,99.89999999999998)"
     aria-label="+" />
  <path
     style="font-size:86.4px;fill:#666666"
     d="M 61.846876,944.86875 H 38.854688 v 22.99219 H 31.851563 V 944.86875 H 8.8593752 v -6.75 H 31.851563 v -22.99219 h 7.003125 v 22.99219 h 22.992188 z"
     id="text51"
     transform="matrix(0.9,0.0,0.0,0.9,270.0,99.89999999999998)"
     aria-label="+" />
  <path
     style="font-size:86.4px;fill:#666666"
     d="M 61.846876,944.86875 H 38.854688 v 22.99219 H 31.851563 V 944.86875 H 8.8593752 v -6.75 H 31.851563 v -22.99219 h 7.003125 v 22.99219 h 22.992188 z"
     id="text52"
     transform="matrix(0.9,0.0,0.0,0.9,54.0,-116.10000000000014)"
     aria-label="+" />
  <path
     style="font-size:86.4px;fill:#666666"
     d="M 61.846876,944.86875 H 38.854688 v 22.99219 H 31.851563 V 944.86875 H 8.8593752 v -6.75 H 31.851563 v -22.99219 h 7.003125 v 22.99219 h 22.992188 z"
     id="text53"
     transform="matrix(0.9,0.0,0.0,0.9,270.0,-116.10000000000014)"
     aria-label="+" />
  <path
     style="font-size:86.4px;fill:#666666"
     d="M 61.846876,944.86875 H 38.854688 v 22.99219 H 31.851563 V 944.86875 H 8.8593752 v -6.75 H 31.851563 v -22.99219 h 7.003125 v 22.99219 h 22.992188 z"
     id="text54"
     transform="matrix(0.9,0.0,0.0,0.9,54.0,-116.10000000000014)"
     aria-label="+" />
  <path
     style="font-size:86.4px;fill:#666666"
     d="M 61.846876,944.86875 H 38.854688 v 22.99219 H 31.851563 V 944.86875 H 8.8593752 v -6.75 H 31.851563 v -22.99219 h 7.003125 v 22.99219 h 22.992188 z"
     id="text55"
     transform="matrix(0.9,0.0,0.0,0.9,270.0,-116.10000000000014)"
     aria-label="+" />
  <path
     style="font-size:86.4px;fill:#666666"
     d="M 61.846876,944.86875 H 38.854688 v 22.99219 H 31.851563 V 944.86875 H 8.8593752 v -6.75 H 31.851563 v -22.99219 h 7.003125 v 22.99219 h 22.992188 z"
     id="text56"
     transform="matrix(0.9,0.0,0.0,0.9,54.0,-332.10000000000014)"
     aria-label="+" />
  <path
     style="font-size:86.4px;fill:#666666"
     d="M 61.846876,944.86875 H 38.854688 v 22.99219 H 31.851563 V 944.86875 H 8.8593752 v -6.75 H 31.851563 v -22.99219 h 7.003125 v 22.99219 h 22.992188 z"
     id="text57"
     transform="matrix(0.9,0.0,0.0,0.9,270.0,-332.10000000000014)"
     aria-label="+" />
  <path
     style="font-size:86.4px;fill:#666666"
     d="M 61.846876,944.86875 H 38.854688 v 22.99219 H 31.851563 V 944.86875 H 8.8593752 v -6.75 H 31.851563 v -22.99219 h 7.003125 v 22.99219 h 22.992188 z"
     id="text58"
     transform="matrix(0.9,0.0,0.0,0.9,54.0,-332.10000000000014)"
     aria-label="+" />
  <path
     style="font-size:86.4px;fill:#666666"
     d="M 61.846876,944.86875 H 38.854688 v 22.99219 H 31.851563 V 944.86875 H 8.8593752 v -6.75 H 31.851563 v -22.99219 h 7.003125 v 22.99219 h 22.992188 z"
     id="text59"
     transform="matrix(0.9,0.0,0.0,0.9,270.0,-332.10000000000014)"
     aria-label="+" />
  <path
     style="font-size:86.4px;fill:#666666"
     d="M 61.846876,944.86875 H 38.854688 v 22.99219 H 31.851563 V 944.86875 H 8.8593752 v -6.75 H 31.851563 v -22.99219 h 7.003125 v 22.99219 h 22.992188 z"
     id="text60"
     transform="matrix(0.9,0.0,0.0,0.9,54.0,-548.1000000000001)"
     aria-label="+" />
  <path
     style="font-size:86.4px;fill:#666666"
     d="M 61.846876,944.86875 H 38.854688 v 22.99219 H 31.851563 V 944.86875 H 8.8593752 v -6.75 H 31.851563 v -22.99219 h 7.003125 v 22.99219 h 22.992188 z"
     id="text61"
     transform="matrix(0.9,0.0,0.0,0.9,270.0,-548.1000000000001)"
     aria-label="+" />
  <path
     style="font-size:86.4px;fill:#666666"
     d="M 61.846876,944.86875 H 38.854688 v 22.99219 H 31.851563 V 944.86875 H 8.8593752 v -6.75 H 31.851563 v -22.99219 h 7.003125 v 22.99219 h 22.992188 z"
     id="text62"
     transform="matrix(0.9,0.0,0.0,0.9,54.0,-548.1000000000001)"
     aria-label="+" />
  <path
     style="font-size:86.4px;fill:#666666"
     d="M 61.846876,944.86875 H 38.854688 v 22.99219 H 31.851563 V 944.86875 H 8.8593752 v -6.75 H 31.851563 v -22.99219 h 7.003125 v 22.99219 h 22.992188 z"
     id="text63"
     transform="matrix(0.9,0.0,0.0,0.9,270.0,-548.1000000000001)"
     aria-label="+" />
  <path
     style="font-size:86.4px;fill:#666666"
     d="M 61.846876,944.86875 H 38.854688 v 22.99219 H 31.851563 V 944.86875 H 8.8593752 v -6.75 H 31.851563 v -22.99219 h 7.003125 v 22.99219 h 22.992188 z"
     id="text64"
     transform="matrix(0.9,0.0,0.0,0.9,54.0,-764.1000000000001)"
     aria-label="+" />
  <path
     style="font-size:86.4px;fill:#666666"
     d="M 61.846876,944.86875 H 38.854688 v 22.99219 H 31.851563 V 944.86875 H 8.8593752 v -6.75 H 31.851563 v -22.99219 h 7.003125 v 22.99219 h 22.992188 z"
     id="text65"
     transform="matrix(0.9,0.0,0.0,0.9,270.0,-764.1000000000001)"
     aria-label="+" />
  <path
     style="font-size:86.4px;fill:#666666"
     d="M 61.846876,944.86875 H 38.854688 v 22.99219 H 31.851563 V 944.86875 H 8.8593752 v -6.75 H 31.851563 v -22.99219 h 7.003125 v 22.99219 h 22.992188 z"
     id="text66"
     transform="matrix(0.9,0.0,0.0,0.9,270.0,99.89999999999998)"
     aria-label="+" />
  <path
     style="font-size:86.4px;fill:#666666"
     d="M 61.846876,944.86875 H 38.854688 v 22.99219 H 31.851563 V 944.86875 H 8.8593752 v -6.75 H 31.851563 v -22.99219 h 7.003125 v 22.99219 h 22.992188 z"
     id="text67"
     transform="matrix(0.9,0.0,0.0,0.9,486.0,99.89999999999998)"
     aria-label="+" />
  <path
     style="font-size:86.4px;fill:#666666"
     d="M 61.846876,944.86875 H 38.854688 v 22.99219 H 31.851563 V 944.86875 H 8.8593752 v -6.75 H 31.851563 v -22.99219 h 7.003125 v 22.99219 h 22.992188 z"
     id="text68"
     transform="matrix(0.9,0.0,0.0,0.9,270.0,-116.10000000000014)"
     aria-label="+" />
  <path
     style="font-size:86.4px;fill:#666666"
     d="M 61.846876,944.86875 H 38.854688 v 22.99219 H 31.851563 V 944.86875 H 8.8593752 v -6.75 H 31.851563 v -22.99219 h 7.003125 v 22.99219 h 22.992188 z"
     id="text69"
     transform="matrix(0.9,0.0,0.0,0.9,486.0,-116.10000000000014)"
     aria-label="+" />
  <path
     style="font-size:86.4px;fill:#666666"
     d="M 61.846876,944.86875 H 38.854688 v 22.99219 H 31.851563 V 944.86875 H 8.8593752 v -6.75 H 31.851563 v -22.99219 h 7.003125 v 22.99219 h 22.992188 z"
     id="text70"
     transform="matrix(0.9,0.0,0.0,0.9,270.0,-116.10000000000014)"
     aria-label="+" />
  <path
     style="font-size:86.4px;fill:#666666"
     d="M 61.846876,944.86875 H 38.854688 v 22.99219 H 31.851563 V 944.86875 H 8.8593752 v -6.75 H 31.851563 v -22.99219 h 7.003125 v 22.99219 h 22.992188 z"
     id="text71"
     transform="matrix(0.9,0.0,0.0,0.9,486.0,-116.10000000000014)"
     aria-label="+" />
  <path
     style="font-size:86.4px;fill:#666666"
     d="M 61.846876,944.86875 H 38.854688 v 22.99219 H 31.851563 V 944.86875 H 8.8593752 v -6.75 H 31.851563 v -22.99219 h 7.003125 v 22.99219 h 22.992188 z"
     id="text72"
     transform="matrix(0.9,0.0,0.0,0.9,270.0,-332.10000000000014)"
     aria-label="+" />
  <path
     style="font-size:86.4px;fill:#666666"
     d="M 61.846876,944.86875 H 38.854688 v 22.99219 H 31.851563 V 944.86875 H 8.8593752 v -6.75 H 31.851563 v -22.99219 h 7.003125 v 22.99219 h 22.992188 z"
     id="text73"
     transform="matrix(0.9,0.0,0.0,0.9,486.0,-332.10000000000014)"
     aria-label="+" />
  <path
     style="font-size:86.4px;fill:#666666"
     d="M 61.846876,944.86875 H 38.854688 v 22.99219 H 31.851563 V 944.86875 H 8.8593752 v -6.75 H 31.851563 v -22.99219 h 7.003125 v 22.99219 h 22.992188 z"
     id="text74"
     transform="matrix(0.9,0.0,0.0,0.9,270.0,-332.10000000000014)"
     aria-label="+" />
  <path
     style="font-size:86.4px;fill:#666666"
     d="M 61.846876,944.86875 H 38.854688 v 22.99219 H 31.851563 V 944.86875 H 8.8593752 v -6.75 H 31.851563 v -22.99219 h 7.003125 v 22.99219 h 22.992188 z"
     id="text75"
     transform="matrix(0.9,0.0,0.0,0.9,486.0,-332.10000000000014)"
     aria-label="+" />
  <path
     style="font-size:86.4px;fill:#666666"
     d="M 61.846876,944.86875 H 38.854688 v 22.99219 H 31.851563 V 944.86875 H 8.8593752 v -6.75 H 31.851563 v -22.99219 h 7.003125 v 22.99219 h 22.992188 z"
     id="text76"
     transform="matrix(0.9,0.0,0.0,0.9,270.0,-548.1000000000001)"
     aria-label="+" />
  <path
     style="font-size:86.4px;fill:#666666"
     d="M 61.846876,944.86875 H 38.854688 v 22.99219 H 31.851563 V 944.86875 H 8.8593752 v -6.75 H 31.851563 v -22.99219 h 7.003125 v 22.99219 h 22.992188 z"
     id="text77"
     transform="matrix(0.9,0.0,0.0,0.9,486.0,-548.1000000000001)"
     aria-label="+" />
  <path
     style="font-size:86.4px;fill:#666666"
     d="M 61.846876,944.86875 H 38.854688 v 22.99219 H 31.851563 V 944.86875 H 8.8593752 v -6.75 H 31.851563 v -22.99219 h 7.003125 v 22.99219 h 22.992188 z"
     id="text78"
     transform="matrix(0.9,0.0,0.0,0.9,270.0,-548.1000000000001)"
     aria-label="+" />
  <path
     style="font-size:86.4px;fill:#666666"
     d="M 61.846876,944.86875 H 38.854688 v 22.99219 H 31.851563 V 944.86875 H 8.8593752 v -6.75 H 31.851563 v -22.99219 h 7.003125 v 22.99219 h 22.992188 z"
     id="text79"
     transform="matrix(0.9,0.0,0.0,0.9,486.0,-548.1000000000001)"
     aria-label="+" />
  <path
     style="font-size:86.4px;fill:#666666"
     d="M 61.846876,944.86875 H 38.854688 v 22.99219 H 31.851563 V 944.86875 H 8.8593752 v -6.75 H 31.851563 v -22.99219 h 7.003125 v 22.99219 h 22.992188 z"
     id="text80"
     transform="matrix(0.9,0.0,0.0,0.9,270.0,-764.1000000000001)"
     aria-label="+" />
  <path
     style="font-size:86.4px;fill:#666666"
     d="M 61.846876,944.86875 H 38.854688 v 22.99219 H 31.851563 V 944.86875 H 8.8593752 v -6.75 H 31.851563 v -22.99219 h 7.003125 v 22.99219 h 22.992188 z"
     id="text81"
     transform="matrix(0.9,0.0,0.0,0.9,486.0,-764.1000000000001)"
     aria-label="+" />
  <path
     style="font-size:86.4px;fill:#666666"
     d="M 61.846876,944.86875 H 38.854688 v 22.99219 H 31.851563 V 944.86875 H 8.8593752 v -6.75 H 31.851563 v -22.99219 h 7.003125 v 22.99219 h 22.992188 z"
     id="text82"
     transform="matrix(0.9,0.0,0.0,0.9,486.0,99.89999999999998)"
     aria-label="+" />
  <path
     style="font-size:86.4px;fill:#666666"
     d="M 61.846876,944.86875 H 38.854688 v 22.99219 H 31.851563 V 944.86875 H 8.8593752 v -6.75 H 31.851563 v -22.99219 h 7.003125 v 22.99219 h 22.992188 z"
     id="text83"
     transform="matrix(0.9,0.0,0.0,0.9,702.0,99.89999999999998)"
     aria-label="+" />
  <path
     style="font-size:86.4px;fill:#666666"
     d="M 61.846876,944.86875 H 38.854688 v 22.99219 H 31.851563 V 944.86875 H 8.8593752 v -6.75 H 31.851563 v -22.99219 h 7.003125 v 22.99219 h 22.992188 z"
     id="text84"
     transform="matrix(0.9,0.0,0.0,0.9,486.0,-116.10000000000014)"
     aria-label="+" />
  <path
     style="font-size:86.4px;fill:#666666"
     d="M 61.846876,944.86875 H 38.854688 v 22.99219 H 31.851563 V 944.86875 H 8.8593752 v -6.75 H 31.851563 v -22.99219 h 7.003125 v 22.99219 h 22.992188 z"
     id="text85"
     transform="matrix(0.9,0.0,0.0,0.9,702.0,-116.10000000000014)"
     aria-label="+" />
  <path
     style="font-size:86.4px;fill:#666666"
     d="M 61.846876,944.86875 H 38.854688 v 22.99219 H 31.851563 V 944.86875 H 8.8593752 v -6.75 H 31.851563 v -22.99219 h 7.003125 v 22.99219 h 22.992188 z"
     id="text86"
     transform="matrix(0.9,0.0,0.0,0.9,486.0,-116.10000000000014)"
     aria-label="+" />
  <path
     style="font-size:86.4px;fill:#666666"
     d="M 61.846876,944.86875 H 38.854688 v 22.99219 H 31.851563 V 944.86875 H 8.8593752 v -6.75 H 31.851563 v -22.99219 h 7.003125 v 22.99219 h 22.992188 z"
     id="text87"
     transform="matrix(0.9,0.0,0.0,0.9,702.0,-116.10000000000014)"
     aria-label="+" />
  <path
     style="font-size:86.4px;fill:#666666"
     d="M 61.846876,944.86875 H 38.854688 v 22.99219 H 31.851563 V 944.86875 H 8.8593752 v -6.75 H 31.851563 v -22.99219 h 7.003125 v 22.99219 h 22.992188 z"
     id="text88"
     transform="matrix(0.9,0.0,0.0,0.9,486.0,-332.10000000000014)"
     aria-label="+" />
  <path
     style="font-size:86.4px;fill:#666666"
     d="M 61.846876,944.86875 H 38.854688 v 22.99219 H 31.851563 V 944.86875 H 8.8593752 v -6.75 H 31.851563 v -22.99219 h 7.003125 v 22.99219 h 22.992188 z"
     id="text89"
     transform="matrix(0.9,0.0,0.0,0.9,702.0,-332.10000000000014)"
     aria-label="+" />
  <path
     style="font-size:86.4px;fill:#666666"
     d="M 61.846876,944.86875 H 38.854688 v 22.99219 H 31.851563 V 944.86875 H 8.8593752 v -6.75 H 31.851563 v -22.99219 h 7.003125 v 22.99219 h 22.992188 z"
     id="text90"
     transform="matrix(0.9,0.0,0.0,0.9,486.0,-332.10000000000014)"
     aria-label="+" />
  <path
     style="font-size:86.4px;fill:#666666"
     d="M 61.846876,944.86875 H 38.854688 v 22.99219 H 31.851563 V 944.86875 H 8.8593752 v -6.75 H 31.851563 v -22.99219 h 7.003125 v 22.99219 h 22.992188 z"
     id="text91"
     transform="matrix(0.9,0.0,0.0,0.9,702.0,-332.10000000000014)"
     aria-label="+" />
  <path
     style="font-size:86.4px;fill:#666666"
     d="M 61.846876,944.86875 H 38.854688 v 22.99219 H 31.851563 V 944.86875 H 8.8593752 v -6.75 H 31.851563 v -22.99219 h 7.003125 v 22.99219 h 22.992188 z"
     id="text92"
     transform="matrix(0.9,0.0,0.0,0.9,486.0,-548.1000000000001)"
     aria-label="+" />
  <path
     style="font-size:86.4px;fill:#666666"
     d="M 61.846876,944.86875 H 38.854688 v 22.99219 H 31.851563 V 944.86875 H 8.8593752 v -6.75 H 31.851563 v -22.99219 h 7.003125 v 22.99219 h 22.992188 z"
     id="text93"
     transform="matrix(0.9,0.0,0.0,0.9,702.0,-548.1000000000001)"
     aria-label="+" />
  <path
     style="font-size:86.4px;fill:#666666"
     d="M 61.846876,944.86875 H 38.854688 v 22.99219 H 31.851563 V 944.86875 H 8.8593752 v -6.75 H 31.851563 v -22.99219 h 7.003125 v 22.99219 h 22.992188 z"
     id="text94"
     transform="matrix(0.9,0.0,0.0,0.9,486.0,-548.1000000000001)"
     aria-label="+" />
  <path
     style="font-size:86.4px;fill:#666666"
     d="M 61.846876,944.86875 H 38.854688 v 22.99219 H 31.851563 V 944.86875 H 8.8593752 v -6.75 H 31.851563 v -22.99219 h 7.003125 v 22.99219 h 22.992188 z"
     id="text95"
     transform="matrix(0.9,0.0,0.0,0.9,702.0,-548.1000000000001)"
     aria-label="+" />
  <path
     style="font-size:86.4px;fill:#666666"
     d="M 61.846876,944.86875 H 38.854688 v 22.99219 H 31.851563 V 944.86875 H 8.8593752 v -6.75 H 31.851563 v -22.99219 h 7.003125 v 22.99219 h 22.992188 z"
     id="text96"
     transform="matrix(0.9,0.0,0.0,0.9,486.0,-764.1000000000001)"
     aria-label="+" />
  <path
     style="font-size:86.4px;fill:#666666"
     d="M 61.846876,944.86875 H 38.854688 v 22.99219 H 31.851563 V 944.86875 H 8.8593752 v -6.75 H 31.851563 v -22.99219 h 7.003125 v 22.99219 h 22.992188 z"
     id="text97"
     transform="matrix(0.9,0.0,0.0,0.9,702.0,-764.1000000000001)"
     aria-label="+" />
  <path
     style="font-size:86.4px;fill:#666666"
     d="M 61.846876,944.86875 H 38.854688 v 22.99219 H 31.851563 V 944.86875 H 8.8593752 v -6.75 H 31.851563 v -22.99219 h 7.003125 v 22.99219 h 22.992188 z"
     id="text98"
     transform="matrix(0.9,0.0,0.0,0.9,702.0,99.89999999999998)"
     aria-label="+" />
  <path
     style="font-size:86.4px;fill:#666666"
     d="M 61.846876,944.86875 H 38.854688 v 22.99219 H 31.851563 V 944.86875 H 8.8593752 v -6.75 H 31.851563 v -22.99219 h 7.003125 v 22.99219 h 22.992188 z"
     id="text99"
     transform="matrix(0.9,0.0,0.0,0.9,918.0,99.89999999999998)"
     aria-label="+" />
  <path
     style="font-size:86.4px;fill:#666666"
     d="M 61.846876,944.86875 H 38.854688 v 22.99219 H 31.851563 V 944.86875 H 8.8593752 v -6.75 H 31.851563 v -22.99219 h 7.003125 v 22.99219 h 22.992188 z"
     id="text100"
     transform="matrix(0.9,0.0,0.0,0.9,702.0,-116.10000000000014)"
     aria-label="+" />
  <path
     style="font-size:86.4px;fill:#666666"
     d="M 61.846876,944.86875 H 38.854688 v 22.99219 H 31.851563 V 944.86875 H 8.8593752 v -6.75 H 31.851563 v -22.99219 h 7.003125 v 22.99219 h 22.992188 z"
     id="text101"
     transform="matrix(0.9,0.0,0.0,0.9,918.0,-116.10000000000014)"
     aria-label="+" />
  <path
     style="font-size:86.4px;fill:#666666"
     d="M 61.846876,944.86875 H 38.854688 v 22.99219 H 31.851563 V 944.86875 H 8.8593752 v -6.75 H 31.851563 v -22.99219 h 7.003125 v 22.99219 h 22.992188 z"
     id="text102"
     transform="matrix(0.9,0.0,0.0,0.9,702.0,-116.10000000000014)"
     aria-label="+" />
  <path
     style="font-size:86.4px;fill:#666666"
     d="M 61.846876,944.86875 H 38.854688 v 22.99219 H 31.851563 V 944.86875 H 8.8593752 v -6.75 H 31.851563 v -22.99219 h 7.003125 v 22.99219 h 22.992188 z"
     id="text103"
     transform="matrix(0.9,0.0,0.0,0.9,918.0,-116.10000000000014)"
     aria-label="+" />
  <path
     style="font-size:86.4px;fill:#666666"
     d="M 61.846876,944.86875 H 38.854688 v 22.99219 H 31.851563 V 944.86875 H 8.8593752 v -6.75 H 31.851563 v -22.99219 h 7.003125 v 22.99219 h 22.992188 z"
     id="text104"
     transform="matrix(0.9,0.0,0.0,0.9,702.0,-332.10000000000014)"
     aria-label="+" />
  <path
     style="font-size:86.4px;fill:#666666"
     d="M 61.846876,944.86875 H 38.854688 v 22.99219 H 31.851563 V 944.86875 H 8.8593752 v -6.75 H 31.851563 v -22.99219 h 7.003125 v 22.99219 h 22.992188 z"
     id="text105"
     transform="matrix(0.9,0.0,0.0,0.9,918.0,-332.10000000000014)"
     aria-label="+" />
  <path
     style="font-size:86.4px;fill:#666666"
     d="M 61.846876,944.86875 H 38.854688 v 22.99219 H 31.851563 V 944.86875 H 8.8593752 v -6.75 H 31.851563 v -22.99219 h 7.003125 v 22.99219 h 22.992188 z"
     id="text106"
     transform="matrix(0.9,0.0,0.0,0.9,702.0,-332.10000000000014)"
     aria-label="+" />
  <path
     style="font-size:86.4px;fill:#666666"
     d="M 61.846876,944.86875 H 38.854688 v 22.99219 H 31.851563 V 944.86875 H 8.8593752 v -6.75 H 31.851563 v -22.99219 h 7.003125 v 22.99219 h 22.992188 z"
     id="text107"
     transform="matrix(0.9,0.0,0.0,0.9,918.0,-332.10000000000014)"
     aria-label="+" />
  <path
     style="font-size:86.4px;fill:#666666"
     d="M 61.846876,944.86875 H 38.854688 v 22.99219 H 31.851563 V 944.86875 H 8.8593752 v -6.75 H 31.851563 v -22.99219 h 7.003125 v 22.99219 h 22.992188 z"
     id="text108"
     transform="matrix(0.9,0.0,0.0,0.9,702.0,-548.1000000000001)"
     aria-label="+" />
  <path
     style="font-size:86.4px;fill:#666666"
     d="M 61.846876,944.86875 H 38.854688 v 22.99219 H 31.851563 V 944.86875 H 8.8593752 v -6.75 H 31.851563 v -22.99219 h 7.003125 v 22.99219 h 22.992188 z"
     id="text109"
     transform="matrix(0.9,0.0,0.0,0.9,918.0,-548.1000000000001)"
     aria-label="+" />
  <path
     style="font-size:86.4px;fill:#666666"
     d="M 61.846876,944.86875 H 38.854688 v 22.99219 H 31.851563 V 944.86875 H 8.8593752 v -6.75 H 31.851563 v -22.99219 h 7.003125 v 22.99219 h 22.992188 z"
     id="text110"
     transform="matrix(0.9,0.0,0.0,0.9,702.0,-548.1000000000001)"
     aria-label="+" />
  <path
     style="font-size:86.4px;fill:#666666"
     d="M 61.846876,944.86875 H 38.854688 v 22.99219 H 31.851563 V 944.86875 H 8.8593752 v -6.75 H 31.851563 v -22.99219 h 7.003125 v 22.99219 h 22.992188 z"
     id="text111"
     transform="matrix(0.9,0.0,0.0,0.9,918.0,-548.1000000000001)"
     aria-label="+" />
  <path
     style="font-size:86.4px;fill:#666666"
     d="M 61.846876,944.86875 H 38.854688 v 22.99219 H 31.851563 V 944.86875 H 8.8593752 v -6.75 H 31.851563 v -22.99219 h 7.003125 v 22.99219 h 22.992188 z"
     id="text112"
     transform="matrix(0.9,0.0,0.0,0.9,702.0,-764.1000000000001)"
     aria-label="+" />
  <path
     style="font-size:86.4px;fill:#666666"
     d="M 61.846876,944.86875 H 38.854688 v 22.99219 H 31.851563 V 944.86875 H 8.8593752 v -6.75 H 31.851563 v -22.99219 h 7.003125 v 22.99219 h 22.992188 z"
     id="text113"
     transform="matrix(0.9,0.0,0.0,0.9,918.0,-764.1000000000001)"
     aria-label="+" />
  <path
     style="font-size:86.4px;fill:#666666"
     d="M 61.846876,944.86875 H 38.854688 v 22.99219 H 31.851563 V 944.86875 H 8.8593752 v -6.75 H 31.851563 v -22.99219 h 7.003125 v 22.99219 h 22.992188 z"
     id="text114"
     transform="matrix(0.9,0.0,0.0,0.9,918.0,99.89999999999998)"
     aria-label="+" />
  <path
     style="font-size:86.4px;fill:#666666"
     d="M 61.846876,944.86875 H 38.854688 v 22.99219 H 31.851563 V 944.86875 H 8.8593752 v -6.75 H 31.851563 v -22.99219 h 7.003125 v 22.99219 h 22.992188 z"
     id="text115"
     transform="matrix(0.9,0.0,0.0,0.9,1134.0,99.89999999999998)"
     aria-label="+" />
  <path
     style="font-size:86.4px;fill:#666666"
     d="M 61.846876,944.86875 H 38.854688 v 22.99219 H 31.851563 V 944.86875 H 8.8593752 v -6.75 H 31.851563 v -22.99219 h 7.003125 v 22.99219 h 22.992188 z"
     id="text116"
     transform="matrix(0.9,0.0,0.0,0.9,918.0,-116.10000000000014)"
     aria-label="+" />
  <path
     style="font-size:86.4px;fill:#666666"
     d="M 61.846876,944.86875 H 38.854688 v 22.99219 H 31.851563 V 944.86875 H 8.8593752 v -6.75 H 31.851563 v -22.99219 h 7.003125 v 22.99219 h 22.992188 z"
     id="text117"
     transform="matrix(0.9,0.0,0.0,0.9,1134.0,-116.10000000000014)"
     aria-label="+" />
  <path
     style="font-size:86.4px;fill:#666666"
     d="M 61.846876,944.86875 H 38.854688 v 22.99219 H 31.851563 V 944.86875 H 8.8593752 v -6.75 H 31.851563 v -22.99219 h 7.003125 v 22.99219 h 22.992188 z"
     id="text118"
     transform="matrix(0.9,0.0,0.0,0.9,918.0,-116.10000000000014)"
     aria-label="+" />
  <path
     style="font-size:86.4px;fill:#666666"
     d="M 61.846876,944.86875 H 38.854688 v 22.99219 H 31.851563 V 944.86875 H 8.8593752 v -6.75 H 31.851563 v -22.99219 h 7.003125 v 22.99219 h 22.992188 z"
     id="text119"
     transform="matrix(0.9,0.0,0.0,0.9,1134.0,-116.10000000000014)"
     aria-label="+" />
  <path
     style="font-size:86.4px;fill:#666666"
     d="M 61.846876,944.86875 H 38.854688 v 22.99219 H 31.851563 V 944.86875 H 8.8593752 v -6.75 H 31.851563 v -22.99219 h 7.003125 v 22.99219 h 22.992188 z"
     id="text120"
     transform="matrix(0.9,0.0,0.0,0.9,918.0,-332.10000000000014)"
     aria-label="+" />
  <path
     style="font-size:86.4px;fill:#666666"
     d="M 61.846876,944.86875 H 38.854688 v 22.99219 H 31.851563 V 944.86875 H 8.8593752 v -6.75 H 31.851563 v -22.99219 h 7.003125 v 22.99219 h 22.992188 z"
     id="text121"
     transform="matrix(0.9,0.0,0.0,0.9,1134.0,-332.10000000000014)"
     aria-label="+" />
  <path
     style="font-size:86.4px;fill:#666666"
     d="M 61.846876,944.86875 H 38.854688 v 22.99219 H 31.851563 V 944.86875 H 8.8593752 v -6.75 H 31.851563 v -22.99219 h 7.003125 v 22.99219 h 22.992188 z"
     id="text122"
     transform="matrix(0.9,0.0,0.0,0.9,918.0,-332.10000000000014)"
     aria-label="+" />
  <path
     style="font-size:86.4px;fill:#666666"
     d="M 61.846876,944.86875 H 38.854688 v 22.99219 H 31.851563 V 944.86875 H 8.8593752 v -6.75 H 31.851563 v -22.99219 h 7.003125 v 22.99219 h 22.992188 z"
     id="text123"
     transform="matrix(0.9,0.0,0.0,0.9,1134.0,-332.10000000000014)"
     aria-label="+" />
  <path
     style="font-size:86.4px;fill:#666666"
     d="M 61.846876,944.86875 H 38.854688 v 22.99219 H 31.851563 V 944.86875 H 8.8593752 v -6.75 H 31.851563 v -22.99219 h 7.003125 v 22.99219 h 22.992188 z"
     id="text124"
     transform="matrix(0.9,0.0,0.0,0.9,918.0,-548.1000000000001)"
     aria-label="+" />
  <path
     style="font-size:86.4px;fill:#666666"
     d="M 61.846876,944.86875 H 38.854688 v 22.99219 H 31.851563 V 944.86875 H 8.8593752 v -6.75 H 31.851563 v -22.99219 h 7.003125 v 22.99219 h 22.992188 z"
     id="text125"
     transform="matrix(0.9,0.0,0.0,0.9,1134.0,-548.1000000000001)"
     aria-label="+" />
  <path
     style="font-size:86.4px;fill:#666666"
     d="M 61.846876,944.86875 H 38.854688 v 22.99219 H 31.851563 V 944.86875 H 8.8593752 v -6.75 H 31.851563 v -22.99219 h 7.003125 v 22.99219 h 22.992188 z"
     id="text126"
     transform="matrix(0.9,0.0,0.0,0.9,918.0,-548.1000000000001)"
     aria-label="+" />
  <path
     style="font-size:86.4px;fill:#666666"
     d="M 61.846876,944.86875 H 38.854688 v 22.99219 H 31.851563 V 944.86875 H 8.8593752 v -6.75 H 31.851563 v -22.99219 h 7.003125 v 22.99219 h 22.992188 z"
     id="text127"
     transform="matrix(0.9,0.0,0.0,0.9,1134.0,-548.1000000000001)"
     aria-label="+" />
  <path
     style="font-size:86.4px;fill:#666666"
     d="M 61.846876,944.86875 H 38.854688 v 22.99219 H 31.851563 V 944.86875 H 8.8593752 v -6.75 H 31.851563 v -22.99219 h 7.003125 v 22.99219 h 22.992188 z"
     id="text128"
     transform="matrix(0.9,0.0,0.0,0.9,918.0,-764.1000000000001)"
     aria-label="+" />
  <path
     style="font-size:86.4px;fill:#666666"
     d="M 61.846876,944.86875 H 38.854688 v 22.99219 H 31.851563 V 944.86875 H 8.8593752 v -6.75 H 31.851563 v -22.99219 h 7.003125 v 22.99219 h 22.992188 z"
     id="text129"
     transform="matrix(0.9,0.0,0.0,0.9,1134.0,-764.1000000000001)"
     aria-label="+" />
  <path
     style="font-size:86.4px;fill:#666666"
     d="M 61.846876,944.86875 H 38.854688 v 22.99219 H 31.851563 V 944.86875 H 8.8593752 v -6.75 H 31.851563 v -22.99219 h 7.003125 v 22.99219 h 22.992188 z"
     id="text130"
     transform="matrix(0.9,0.0,0.0,0.9,1134.0,99.89999999999998)"
     aria-label="+" />
  <path
     style="font-size:86.4px;fill:#666666"
     d="M 61.846876,944.86875 H 38.854688 v 22.99219 H 31.851563 V 944.86875 H 8.8593752 v -6.75 H 31.851563 v -22.99219 h 7.003125 v 22.99219 h 22.992188 z"
     id="text131"
     transform="matrix(0.9,0.0,0.0,0.9,1350.0,99.89999999999998)"
     aria-label="+" />
  <path
     style="font-size:86.4px;fill:#666666"
     d="M 61.846876,944.86875 H 38.854688 v 22.99219 H 31.851563 V 944.86875 H 8.8593752 v -6.75 H 31.851563 v -22.99219 h 7.003125 v 22.99219 h 22.992188 z"
     id="text132"
     transform="matrix(0.9,0.0,0.0,0.9,1134.0,-116.10000000000014)"
     aria-label="+" />
  <path
     style="font-size:86.4px;fill:#666666"
     d="M 61.846876,944.86875 H 38.854688 v 22.99219 H 31.851563 V 944.86875 H 8.8593752 v -6.75 H 31.851563 v -22.99219 h 7.003125 v 22.99219 h 22.992188 z"
     id="text133"
     transform="matrix(0.9,0.0,0.0,0.9,1350.0,-116.10000000000014)"
     aria-label="+" />
  <path
     style="font-size:86.4px;fill:#666666"
     d="M 61.846876,944.86875 H 38.854688 v 22.99219 H 31.851563 V 944.86875 H 8.8593752 v -6.75 H 31.851563 v -22.99219 h 7.003125 v 22.99219 h 22.992188 z"
     id="text134"
     transform="matrix(0.9,0.0,0.0,0.9,1134.0,-116.10000000000014)"
     aria-label="+" />
  <path
     style="font-size:86.4px;fill:#666666"
     d="M 61.846876,944.86875 H 38.854688 v 22.99219 H 31.851563 V 944.86875 H 8.8593752 v -6.75 H 31.851563 v -22.99219 h 7.003125 v 22.99219 h 22.992188 z"
     id="text135"
     transform="matrix(0.9,0.0,0.0,0.9,1350.0,-116.10000000000014)"
     aria-label="+" />
  <path
     style="font-size:86.4px;fill:#666666"
     d="M 61.846876,944.86875 H 38.854688 v 22.99219 H 31.851563 V 944.86875 H 8.8593752 v -6.75 H 31.851563 v -22.99219 h 7.003125 v 22.99219 h 22.992188 z"
     id="text136"
     transform="matrix(0.9,0.0,0.0,0.9,1134.0,-332.10000000000014)"
     aria-label="+" />
  <path
     style="font-size:86.4px;fill:#666666"
     d="M 61.846876,944.86875 H 38.854688 v 22.99219 H 31.851563 V 944.86875 H 8.8593752 v -6.75 H 31.851563 v -22.99219 h 7.003125 v 22.99219 h 22.992188 z"
     id="text137"
     transform="matrix(0.9,0.0,0.0,0.9,1350.0,-332.10000000000014)"
     aria-label="+" />
  <path
     style="font-size:86.4px;fill:#666666"
     d="M 61.846876,944.86875 H 38.854688 v 22.99219 H 31.851563 V 944.86875 H 8.8593752 v -6.75 H 31.851563 v -22.99219 h 7.003125 v 22.99219 h 22.992188 z"
     id="text138"
     transform="matrix(0.9,0.0,0.0,0.9,1134.0,-332.10000000000014)"
     aria-label="+" />
  <path
     style="font-size:86.4px;fill:#666666"
     d="M 61.846876,944.86875 H 38.854688 v 22.99219 H 31.851563 V 944.86875 H 8.8593752 v -6.75 H 31.851563 v -22.99219 h 7.003125 v 22.99219 h 22.992188 z"
     id="text139"
     transform="matrix(0.9,0.0,0.0,0.9,1350.0,-332.10000000000014)"
     aria-label="+" />
  <path
     style="font-size:86.4px;fill:#666666"
     d="M 61.846876,944.86875 H 38.854688 v 22.99219 H 31.851563 V 944.86875 H 8.8593752 v -6.75 H 31.851563 v -22.99219 h 7.003125 v 22.99219 h 22.992188 z"
     id="text140"
     transform="matrix(0.9,0.0,0.0,0.9,1134.0,-548.1000000000001)"
     aria-label="+" />
  <path
     style="font-size:86.4px;fill:#666666"
     d="M 61.846876,944.86875 H 38.854688 v 22.99219 H 31.851563 V 944.86875 H 8.8593752 v -6.75 H 31.851563 v -22.99219 h 7.003125 v 22.99219 h 22.992188 z"
     id="text141"
     transform="matrix(0.9,0.0,0.0,0.9,1350.0,-548.1000000000001)"
     aria-label="+" />
  <path
     style="font-size:86.4px;fill:#666666"
     d="M 61.846876,944.86875 H 38.854688 v 22.99219 H 31.851563 V 944.86875 H 8.8593752 v -6.75 H 31.851563 v -22.99219 h 7.003125 v 22.99219 h 22.992188 z"
     id="text142"
     transform="matrix(0.9,0.0,0.0,0.9,1134.0,-548.1000000000001)"
     aria-label="+" />
  <path
     style="font-size:86.4px;fill:#666666"
     d="M 61.846876,944.86875 H 38.854688 v 22.99219 H 31.851563 V 944.86875 H 8.8593752 v -6.75 H 31.851563 v -22.99219 h 7.003125 v 22.99219 h 22.992188 z"
     id="text143"
     transform="matrix(0.9,0.0,0.0,0.9,1350.0,-548.1000000000001)"
     aria-label="+" />
  <path
     style="font-size:86.4px;fill:#666666"
     d="M 61.846876,944.86875 H 38.854688 v 22.99219 H 31.851563 V 944.86875 H 8.8593752 v -6.75 H 31.851563 v -22.99219 h 7.003125 v 22.99219 h 22.992188 z"
     id="text144"
     transform="matrix(0.9,0.0,0.0,0.9,1134.0,-764.1000000000001)"
     aria-label="+" />
  <path
     style="font-size:86.4px;fill:#666666"
     d="M 61.846876,944.86875 H 38.854688 v 22.99219 H 31.851563 V 944.86875 H 8.8593752 v -6.75 H 31.851563 v -22.99219 h 7.003125 v 22.99219 h 22.992188 z"
     id="text145"
     transform="matrix(0.9,0.0,0.0,0.9,1350.0,-764.1000000000001)"
     aria-label="+" />
  <path
     style="font-size:86.4px;fill:#666666"
     d="M 61.846876,944.86875 H 38.854688 v 22.99219 H 31.851563 V 944.86875 H 8.8593752 v -6.75 H 31.851563 v -22.99219 h 7.003125 v 22.99219 h 22.992188 z"
     id="text146"
     transform="matrix(0.9,0.0,0.0,0.9,1350.0,99.89999999999998)"
     aria-label="+" />
  <path
     style="font-size:86.4px;fill:#666666"
     d="M 61.846876,944.86875 H 38.854688 v 22.99219 H 31.851563 V 944.86875 H 8.8593752 v -6.75 H 31.851563 v -22.99219 h 7.003125 v 22.99219 h 22.992188 z"
     id="text147"
     transform="matrix(0.9,0.0,0.0,0.9,1566.0,99.89999999999998)"
     aria-label="+" />
  <path
     style="font-size:86.4px;fill:#666666"
     d="M 61.846876,944.86875 H 38.854688 v 22.99219 H 31.851563 V 944.86875 H 8.8593752 v -6.75 H 31.851563 v -22.99219 h 7.003125 v 22.99219 h 22.992188 z"
     id="text148"
     transform="matrix(0.9,0.0,0.0,0.9,1350.0,-116.10000000000014)"
     aria-label="+" />
  <path
     style="font-size:86.4px;fill:#666666"
     d="M 61.846876,944.86875 H 38.854688 v 22.99219 H 31.851563 V 944.86875 H 8.8593752 v -6.75 H 31.851563 v -22.99219 h 7.003125 v 22.99219 h 22.992188 z"
     id="text149"
     transform="matrix(0.9,0.0,0.0,0.9,1566.0,-116.10000000000014)"
     aria-label="+" />
  <path
     style="font-size:86.4px;fill:#666666"
     d="M 61.846876,944.86875 H 38.854688 v 22.99219 H 31.851563 V 944.86875 H 8.8593752 v -6.75 H 31.851563 v -22.99219 h 7.003125 v 22.99219 h 22.992188 z"
     id="text150"
     transform="matrix(0.9,0.0,0.0,0.9,1350.0,-116.10000000000014)"
     aria-label="+" />
  <path
     style="font-size:86.4px;fill:#666666"
     d="M 61.846876,944.86875 H 38.854688 v 22.99219 H 31.851563 V 944.86875 H 8.8593752 v -6.75 H 31.851563 v -22.99219 h 7.003125 v 22.99219 h 22.992188 z"
     id="text151"
     transform="matrix(0.9,0.0,0.0,0.9,1566.0,-116.10000000000014)"
     aria-label="+" />
  <path
     style="font-size:86.4px;fill:#666666"
     d="M 61.846876,944.86875 H 38.854688 v 22.99219 H 31.851563 V 944.86875 H 8.8593752 v -6.75 H 31.851563 v -22.99219 h 7.003125 v 22.99219 h 22.992188 z"
     id="text152"
     transform="matrix(0.9,0.0,0.0,0.9,1350.0,-332.10000000000014)"
     aria-label="+" />
  <path
     style="font-size:86.4px;fill:#666666"
     d="M 61.846876,944.86875 H 38.854688 v 22.99219 H 31.851563 V 944.86875 H 8.8593752 v -6.75 H 31.851563 v -22.99219 h 7.003125 v 22.99219 h 22.992188 z"
     id="text153"
     transform="matrix(0.9,0.0,0.0,0.9,1566.0,-332.10000000000014)"
     aria-label="+" />
  <path
     style="font-size:86.4px;fill:#666666"
     d="M 61.846876,944.86875 H 38.854688 v 22.99219 H 31.851563 V 944.86875 H 8.8593752 v -6.75 H 31.851563 v -22.99219 h 7.003125 v 22.99219 h 22.992188 z"
     id="text154"
     transform="matrix(0.9,0.0,0.0,0.9,1350.0,-332.10000000000014)"
     aria-label="+" />
  <path
     style="font-size:86.4px;fill:#666666"
     d="M 61.846876,944.86875 H 38.854688 v 22.99219 H 31.851563 V 944.86875 H 8.8593752 v -6.75 H 31.851563 v -22.99219 h 7.003125 v 22.99219 h 22.992188 z"
     id="text155"
     transform="matrix(0.9,0.0,0.0,0.9,1566.0,-332.10000000000014)"
     aria-label="+" />
  <path
     style="font-size:86.4px;fill:#666666"
     d="M 61.846876,944.86875 H 38.854688 v 22.99219 H 31.851563 V 944.86875 H 8.8593752 v -6.75 H 31.851563 v -22.99219 h 7.003125 v 22.99219 h 22.992188 z"
     id="text156"
     transform="matrix(0.9,0.0,0.0,0.9,1350.0,-548.1000000000001)"
     aria-label="+" />
  <path
     style="font-size:86.4px;fill:#666666"
     d="M 61.846876,944.86875 H 38.854688 v 22.99219 H 31.851563 V 944.86875 H 8.8593752 v -6.75 H 31.851563 v -22.99219 h 7.003125 v 22.99219 h 22.992188 z"
     id="text157"
     transform="matrix(0.9,0.0,0.0,0.9,1566.0,-548.1000000000001)"
     aria-label="+" />
  <path
     style="font-size:86.4px;fill:#666666"
     d="M 61.846876,944.86875 H 38.854688 v 22.99219 H 31.851563 V 944.86875 H 8.8593752 v -6.75 H 31.851563 v -22.99219 h 7.003125 v 22.99219 h 22.992188 z"
     id="text158"
     transform="matrix(0.9,0.0,0.0,0.9,1350.0,-548.1000000000001)"
     aria-label="+" />
  <path
     style="font-size:86.4px;fill:#666666"
     d="M 61.846876,944.86875 H 38.854688 v 22.99219 H 31.851563 V 944.86875 H 8.8593752 v -6.75 H 31.851563 v -22.99219 h 7.003125 v 22.99219 h 22.992188 z"
     id="text159"
     transform="matrix(0.9,0.0,0.0,0.9,1566.0,-548.1000000000001)"
     aria-label="+" />
  <path
     style="font-size:86.4px;fill:#666666"
     d="M 61.846876,944.86875 H 38.854688 v 22.99219 H 31.851563 V 944.86875 H 8.8593752 v -6.75 H 31.851563 v -22.99219 h 7.003125 v 22.99219 h 22.992188 z"
     id="text160"
     transform="matrix(0.9,0.0,0.0,0.9,1350.0,-764.1000000000001)"
     aria-label="+" />
  <path
     style="font-size:86.4px;fill:#666666"
     d="M 61.846876,944.86875 H 38.854688 v 22.99219 H 31.851563 V 944.86875 H 8.8593752 v -6.75 H 31.851563 v -22.99219 h 7.003125 v 22.99219 h 22.992188 z"
     id="text161"
     transform="matrix(0.9,0.0,0.0,0.9,1566.0,-764.1000000000001)"
     aria-label="+" />
  <path
     style="font-size:86.4px;fill:#666666"
     d="M 61.846876,944.86875 H 38.854688 v 22.99219 H 31.851563 V 944.86875 H 8.8593752 v -6.75 H 31.851563 v -22.99219 h 7.003125 v 22.99219 h 22.992188 z"
     id="text162"
     transform="matrix(0.9,0.0,0.0,0.9,1566.0,99.89999999999998)"
     aria-label="+" />
  <path
     style="font-size:86.4px;fill:#666666"
     d="M 61.846876,944.86875 H 38.854688 v 22.99219 H 31.851563 V 944.86875 H 8.8593752 v -6.75 H 31.851563 v -22.99219 h 7.003125 v 22.99219 h 22.992188 z"
     id="text163"
     transform="matrix(0.9,0.0,0.0,0.9,1782.0,99.89999999999998)"
     aria-label="+" />
  <path
     style="font-size:86.4px;fill:#666666"
     d="M 61.846876,944.86875 H 38.854688 v 22.99219 H 31.851563 V 944.86875 H 8.8593752 v -6.75 H 31.851563 v -22.99219 h 7.003125 v 22.99219 h 22.992188 z"
     id="text164"
     transform="matrix(0.9,0.0,0.0,0.9,1566.0,-116.10000000000014)"
     aria-label="+" />
  <path
     style="font-size:86.4px;fill:#666666"
     d="M 61.846876,944.86875 H 38.854688 v 22.99219 H 31.851563 V 944.86875 H 8.8593752 v -6.75 H 31.851563 v -22.99219 h 7.003125 v 22.99219 h 22.992188 z"
     id="text165"
     transform="matrix(0.9,0.0,0.0,0.9,1782.0,-116.10000000000014)"
     aria-label="+" />
  <path
     style="font-size:86.4px;fill:#666666"
     d="M 61.846876,944.86875 H 38.854688 v 22.99219 H 31.851563 V 944.86875 H 8.8593752 v -6.75 H 31.851563 v -22.99219 h 7.003125 v 22.99219 h 22.992188 z"
     id="text166"
     transform="matrix(0.9,0.0,0.0,0.9,1566.0,-116.10000000000014)"
     aria-label="+" />
  <path
     style="font-size:86.4px;fill:#666666"
     d="M 61.846876,944.86875 H 38.854688 v 22.99219 H 31.851563 V 944.86875 H 8.8593752 v -6.75 H 31.851563 v -22.99219 h 7.003125 v 22.99219 h 22.992188 z"
     id="text167"
     transform="matrix(0.9,0.0,0.0,0.9,1782.0,-116.10000000000014)"
     aria-label="+" />
  <path
     style="font-size:86.4px;fill:#666666"
     d="M 61.846876,944.86875 H 38.854688 v 22.99219 H 31.851563 V 944.86875 H 8.8593752 v -6.75 H 31.851563 v -22.99219 h 7.003125 v 22.99219 h 22.992188 z"
     id="text168"
     transform="matrix(0.9,0.0,0.0,0.9,1566.0,-332.10000000000014)"
     aria-label="+" />
  <path
     style="font-size:86.4px;fill:#666666"
     d="M 61.846876,944.86875 H 38.854688 v 22.99219 H 31.851563 V 944.86875 H 8.8593752 v -6.75 H 31.851563 v -22.99219 h 7.003125 v 22.99219 h 22.992188 z"
     id="text169"
     transform="matrix(0.9,0.0,0.0,0.9,1782.0,-332.10000000000014)"
     aria-label="+" />
  <path
     style="font-size:86.4px;fill:#666666"
     d="M 61.846876,944.86875 H 38.854688 v 22.99219 H 31.851563 V 944.86875 H 8.8593752 v -6.75 H 31.851563 v -22.99219 h 7.003125 v 22.99219 h 22.992188 z"
     id="text170"
     transform="matrix(0.9,0.0,0.0,0.9,1566.0,-332.10000000000014)"
     aria-label="+" />
  <path
     style="font-size:86.4px;fill:#666666"
     d="M 61.846876,944.86875 H 38.854688 v 22.99219 H 31.851563 V 944.86875 H 8.8593752 v -6.75 H 31.851563 v -22.99219 h 7.003125 v 22.99219 h 22.992188 z"
     id="text171"
     transform="matrix(0.9,0.0,0.0,0.9,1782.0,-332.10000000000014)"
     aria-label="+" />
  <path
     style="font-size:86.4px;fill:#666666"
     d="M 61.846876,944.86875 H 38.854688 v 22.99219 H 31.851563 V 944.86875 H 8.8593752 v -6.75 H 31.851563 v -22.99219 h 7.003125 v 22.99219 h 22.992188 z"
     id="text172"
     transform="matrix(0.9,0.0,0.0,0.9,1566.0,-548.1000000000001)"
     aria-label="+" />
  <path
     style="font-size:86.4px;fill:#666666"
     d="M 61.846876,944.86875 H 38.854688 v 22.99219 H 31.851563 V 944.86875 H 8.8593752 v -6.75 H 31.851563 v -22.99219 h 7.003125 v 22.99219 h 22.992188 z"
     id="text173"
     transform="matrix(0.9,0.0,0.0,0.9,1782.0,-548.1000000000001)"
     aria-label="+" />
  <path
     style="font-size:86.4px;fill:#666666"
     d="M 61.846876,944.86875 H 38.854688 v 22.99219 H 31.851563 V 944.86875 H 8.8593752 v -6.75 H 31.851563 v -22.99219 h 7.003125 v 22.99219 h 22.992188 z"
     id="text174"
     transform="matrix(0.9,0.0,0.0,0.9,1566.0,-548.1000000000001)"
     aria-label="+" />
  <path
     style="font-size:86.4px;fill:#666666"
     d="M 61.846876,944.86875 H 38.854688 v 22.99219 H 31.851563 V 944.86875 H 8.8593752 v -6.75 H 31.851563 v -22.99219 h 7.003125 v 22.99219 h 22.992188 z"
     id="text175"
     transform="matrix(0.9,0.0,0.0,0.9,1782.0,-548.1000000000001)"
     aria-label="+" />
  <path
     style="font-size:86.4px;fill:#666666"
     d="M 61.846876,944.86875 H 38.854688 v 22.99219 H 31.851563 V 944.86875 H 8.8593752 v -6.75 H 31.851563 v -22.99219 h 7.003125 v 22.99219 h 22.992188 z"
     id="text176"
     transform="matrix(0.9,0.0,0.0,0.9,1566.0,-764.1000000000001)"
     aria-label="+" />
  <path
     style="font-size:86.4px;fill:#666666"
     d="M 61.846876,944.86875 H 38.854688 v 22.99219 H 31.851563 V 944.86875 H 8.8593752 v -6.75 H 31.851563 v -22.99219 h 7.003125 v 22.99219 h 22.992188 z"
     id="text177"
     transform="matrix(0.9,0.0,0.0,0.9,1782.0,-764.1000000000001)"
     aria-label="+" />
</svg>
