<?xml version="1.0" encoding="UTF-8"?>
<svg width="1920" height="1080" viewBox="0 0 1920 1080" version="1.1" xmlns="http://www.w3.org/2000/svg" xmlns:xlink="http://www.w3.org/1999/xlink">
 <path d="M0,0 l1920,0 l0,1080 l-1920,0 Z M0,0" fill="rgb(21,71,85)" transform="matrix(1,0,0,-1,0,1080)"/>
 <text text-anchor="start" transform="matrix(0.9,0.0,0.0,0.9,108.0,347.4)">
  <tspan fill="rgb(102,102,102)" font-family="MyriadArabic-Bold" font-size="336" x="0" y="634">
   €
  </tspan>
 </text>
 <text text-anchor="start" transform="matrix(0.9,0.0,0.0,0.9,54.0,120.60000000000002)">
  <tspan fill="rgb(102,102,102)" font-family="MyriadArabic-Bold" font-size="100.8" x="0" y="946">
   +
  </tspan>
 </text>
 <text text-anchor="start" transform="matrix(0.9,0.0,0.0,0.9,270.0,120.60000000000002)">
  <tspan fill="rgb(102,102,102)" font-family="MyriadArabic-Bold" font-size="100.8" x="0" y="946">
   +
  </tspan>
 </text>
 <text text-anchor="start" transform="matrix(0.9,0.0,0.0,0.9,54.0,-95.40000000000009)">
  <tspan fill="rgb(102,102,102)" font-family="MyriadArabic-Bold" font-size="100.8" x="0" y="946">
   +
  </tspan>
 </text>
 <text text-anchor="start" transform="matrix(0.9,0.0,0.0,0.9,270.0,-95.40000000000009)">
  <tspan fill="rgb(102,102,102)" font-family="MyriadArabic-Bold" font-size="100.8" x="0" y="946">
   +
  </tspan>
 </text>
 <text text-anchor="start" transform="matrix(0.9,0.0,0.0,0.9,108.0,131.39999999999998)">
  <tspan fill="rgb(102,102,102)" font-family="MyriadArabic-Bold" font-size="336" x="0" y="634">
   €
  </tspan>
 </text>
 <text text-anchor="start" transform="matrix(0.9,0.0,0.0,0.9,54.0,-95.40000000000009)">
  <tspan fill="rgb(102,102,102)" font-family="MyriadArabic-Bold" font-size="100.8" x="0" y="946">
   +
  </tspan>
 </text>
 <text text-anchor="start" transform="matrix(0.9,0.0,0.0,0.9,270.0,-95.40000000000009)">
  <tspan fill="rgb(102,102,102)" font-family="MyriadArabic-Bold" font-size="100.8" x="0" y="946">
   +
  </tspan>
 </text>
 <text text-anchor="start" transform="matrix(0.9,0.0,0.0,0.9,54.0,-311.4000000000001)">
  <tspan fill="rgb(102,102,102)" font-family="MyriadArabic-Bold" font-size="100.8" x="0" y="946">
   +
  </tspan>
 </text>
 <text text-anchor="start" transform="matrix(0.9,0.0,0.0,0.9,270.0,-311.4000000000001)">
  <tspan fill="rgb(102,102,102)" font-family="MyriadArabic-Bold" font-size="100.8" x="0" y="946">
   +
  </tspan>
 </text>
 <text text-anchor="start" transform="matrix(0.9,0.0,0.0,0.9,108.0,-84.60000000000014)">
  <tspan fill="rgb(102,102,102)" font-family="MyriadArabic-Bold" font-size="336" x="0" y="634">
   €
  </tspan>
 </text>
 <text text-anchor="start" transform="matrix(0.9,0.0,0.0,0.9,54.0,-311.4000000000001)">
  <tspan fill="rgb(102,102,102)" font-family="MyriadArabic-Bold" font-size="100.8" x="0" y="946">
   +
  </tspan>
 </text>
 <text text-anchor="start" transform="matrix(0.9,0.0,0.0,0.9,270.0,-311.4000000000001)">
  <tspan fill="rgb(102,102,102)" font-family="MyriadArabic-Bold" font-size="100.8" x="0" y="946">
   +
  </tspan>
 </text>
 <text text-anchor="start" transform="matrix(0.9,0.0,0.0,0.9,54.0,-527.4000000000001)">
  <tspan fill="rgb(102,102,102)" font-family="MyriadArabic-Bold" font-size="100.8" x="0" y="946">
   +
  </tspan>
 </text>
 <text text-anchor="start" transform="matrix(0.9,0.0,0.0,0.9,270.0,-527.4000000000001)">
  <tspan fill="rgb(102,102,102)" font-family="MyriadArabic-Bold" font-size="100.8" x="0" y="946">
   +
  </tspan>
 </text>
 <text text-anchor="start" transform="matrix(0.9,0.0,0.0,0.9,108.0,-300.60000000000014)">
  <tspan fill="rgb(102,102,102)" font-family="MyriadArabic-Bold" font-size="336" x="0" y="634">
   €
  </tspan>
 </text>
 <text text-anchor="start" transform="matrix(0.9,0.0,0.0,0.9,54.0,-527.4000000000001)">
  <tspan fill="rgb(102,102,102)" font-family="MyriadArabic-Bold" font-size="100.8" x="0" y="946">
   +
  </tspan>
 </text>
 <text text-anchor="start" transform="matrix(0.9,0.0,0.0,0.9,270.0,-527.4000000000001)">
  <tspan fill="rgb(102,102,102)" font-family="MyriadArabic-Bold" font-size="100.8" x="0" y="946">
   +
  </tspan>
 </text>
 <text text-anchor="start" transform="matrix(0.9,0.0,0.0,0.9,54.0,-743.4000000000001)">
  <tspan fill="rgb(102,102,102)" font-family="MyriadArabic-Bold" font-size="100.8" x="0" y="946">
   +
  </tspan>
 </text>
 <text text-anchor="start" transform="matrix(0.9,0.0,0.0,0.9,270.0,-743.4000000000001)">
  <tspan fill="rgb(102,102,102)" font-family="MyriadArabic-Bold" font-size="100.8" x="0" y="946">
   +
  </tspan>
 </text>
 <text text-anchor="start" transform="matrix(0.9,0.0,0.0,0.9,324.0,347.4)">
  <tspan fill="rgb(102,102,102)" font-family="MyriadArabic-Bold" font-size="336" x="0" y="634">
   €
  </tspan>
 </text>
 <text text-anchor="start" transform="matrix(0.9,0.0,0.0,0.9,270.0,120.60000000000002)">
  <tspan fill="rgb(102,102,102)" font-family="MyriadArabic-Bold" font-size="100.8" x="0" y="946">
   +
  </tspan>
 </text>
 <text text-anchor="start" transform="matrix(0.9,0.0,0.0,0.9,486.0,120.60000000000002)">
  <tspan fill="rgb(102,102,102)" font-family="MyriadArabic-Bold" font-size="100.8" x="0" y="946">
   +
  </tspan>
 </text>
 <text text-anchor="start" transform="matrix(0.9,0.0,0.0,0.9,270.0,-95.40000000000009)">
  <tspan fill="rgb(102,102,102)" font-family="MyriadArabic-Bold" font-size="100.8" x="0" y="946">
   +
  </tspan>
 </text>
 <text text-anchor="start" transform="matrix(0.9,0.0,0.0,0.9,486.0,-95.40000000000009)">
  <tspan fill="rgb(102,102,102)" font-family="MyriadArabic-Bold" font-size="100.8" x="0" y="946">
   +
  </tspan>
 </text>
 <text text-anchor="start" transform="matrix(0.9,0.0,0.0,0.9,324.0,131.39999999999998)">
  <tspan fill="rgb(102,102,102)" font-family="MyriadArabic-Bold" font-size="336" x="0" y="634">
   €
  </tspan>
 </text>
 <text text-anchor="start" transform="matrix(0.9,0.0,0.0,0.9,270.0,-95.40000000000009)">
  <tspan fill="rgb(102,102,102)" font-family="MyriadArabic-Bold" font-size="100.8" x="0" y="946">
   +
  </tspan>
 </text>
 <text text-anchor="start" transform="matrix(0.9,0.0,0.0,0.9,486.0,-95.40000000000009)">
  <tspan fill="rgb(102,102,102)" font-family="MyriadArabic-Bold" font-size="100.8" x="0" y="946">
   +
  </tspan>
 </text>
 <text text-anchor="start" transform="matrix(0.9,0.0,0.0,0.9,270.0,-311.4000000000001)">
  <tspan fill="rgb(102,102,102)" font-family="MyriadArabic-Bold" font-size="100.8" x="0" y="946">
   +
  </tspan>
 </text>
 <text text-anchor="start" transform="matrix(0.9,0.0,0.0,0.9,486.0,-311.4000000000001)">
  <tspan fill="rgb(102,102,102)" font-family="MyriadArabic-Bold" font-size="100.8" x="0" y="946">
   +
  </tspan>
 </text>
 <text text-anchor="start" transform="matrix(0.9,0.0,0.0,0.9,324.0,-84.60000000000014)">
  <tspan fill="rgb(102,102,102)" font-family="MyriadArabic-Bold" font-size="336" x="0" y="634">
   €
  </tspan>
 </text>
 <text text-anchor="start" transform="matrix(0.9,0.0,0.0,0.9,270.0,-311.4000000000001)">
  <tspan fill="rgb(102,102,102)" font-family="MyriadArabic-Bold" font-size="100.8" x="0" y="946">
   +
  </tspan>
 </text>
 <text text-anchor="start" transform="matrix(0.9,0.0,0.0,0.9,486.0,-311.4000000000001)">
  <tspan fill="rgb(102,102,102)" font-family="MyriadArabic-Bold" font-size="100.8" x="0" y="946">
   +
  </tspan>
 </text>
 <text text-anchor="start" transform="matrix(0.9,0.0,0.0,0.9,270.0,-527.4000000000001)">
  <tspan fill="rgb(102,102,102)" font-family="MyriadArabic-Bold" font-size="100.8" x="0" y="946">
   +
  </tspan>
 </text>
 <text text-anchor="start" transform="matrix(0.9,0.0,0.0,0.9,486.0,-527.4000000000001)">
  <tspan fill="rgb(102,102,102)" font-family="MyriadArabic-Bold" font-size="100.8" x="0" y="946">
   +
  </tspan>
 </text>
 <text text-anchor="start" transform="matrix(0.9,0.0,0.0,0.9,324.0,-300.60000000000014)">
  <tspan fill="rgb(102,102,102)" font-family="MyriadArabic-Bold" font-size="336" x="0" y="634">
   €
  </tspan>
 </text>
 <text text-anchor="start" transform="matrix(0.9,0.0,0.0,0.9,270.0,-527.4000000000001)">
  <tspan fill="rgb(102,102,102)" font-family="MyriadArabic-Bold" font-size="100.8" x="0" y="946">
   +
  </tspan>
 </text>
 <text text-anchor="start" transform="matrix(0.9,0.0,0.0,0.9,486.0,-527.4000000000001)">
  <tspan fill="rgb(102,102,102)" font-family="MyriadArabic-Bold" font-size="100.8" x="0" y="946">
   +
  </tspan>
 </text>
 <text text-anchor="start" transform="matrix(0.9,0.0,0.0,0.9,270.0,-743.4000000000001)">
  <tspan fill="rgb(102,102,102)" font-family="MyriadArabic-Bold" font-size="100.8" x="0" y="946">
   +
  </tspan>
 </text>
 <text text-anchor="start" transform="matrix(0.9,0.0,0.0,0.9,486.0,-743.4000000000001)">
  <tspan fill="rgb(102,102,102)" font-family="MyriadArabic-Bold" font-size="100.8" x="0" y="946">
   +
  </tspan>
 </text>
 <text text-anchor="start" transform="matrix(0.9,0.0,0.0,0.9,540.0,347.4)">
  <tspan fill="rgb(102,102,102)" font-family="MyriadArabic-Bold" font-size="336" x="0" y="634">
   €
  </tspan>
 </text>
 <text text-anchor="start" transform="matrix(0.9,0.0,0.0,0.9,486.0,120.60000000000002)">
  <tspan fill="rgb(102,102,102)" font-family="MyriadArabic-Bold" font-size="100.8" x="0" y="946">
   +
  </tspan>
 </text>
 <text text-anchor="start" transform="matrix(0.9,0.0,0.0,0.9,702.0,120.60000000000002)">
  <tspan fill="rgb(102,102,102)" font-family="MyriadArabic-Bold" font-size="100.8" x="0" y="946">
   +
  </tspan>
 </text>
 <text text-anchor="start" transform="matrix(0.9,0.0,0.0,0.9,486.0,-95.40000000000009)">
  <tspan fill="rgb(102,102,102)" font-family="MyriadArabic-Bold" font-size="100.8" x="0" y="946">
   +
  </tspan>
 </text>
 <text text-anchor="start" transform="matrix(0.9,0.0,0.0,0.9,702.0,-95.40000000000009)">
  <tspan fill="rgb(102,102,102)" font-family="MyriadArabic-Bold" font-size="100.8" x="0" y="946">
   +
  </tspan>
 </text>
 <text text-anchor="start" transform="matrix(0.9,0.0,0.0,0.9,540.0,131.39999999999998)">
  <tspan fill="rgb(102,102,102)" font-family="MyriadArabic-Bold" font-size="336" x="0" y="634">
   €
  </tspan>
 </text>
 <text text-anchor="start" transform="matrix(0.9,0.0,0.0,0.9,486.0,-95.40000000000009)">
  <tspan fill="rgb(102,102,102)" font-family="MyriadArabic-Bold" font-size="100.8" x="0" y="946">
   +
  </tspan>
 </text>
 <text text-anchor="start" transform="matrix(0.9,0.0,0.0,0.9,702.0,-95.40000000000009)">
  <tspan fill="rgb(102,102,102)" font-family="MyriadArabic-Bold" font-size="100.8" x="0" y="946">
   +
  </tspan>
 </text>
 <text text-anchor="start" transform="matrix(0.9,0.0,0.0,0.9,486.0,-311.4000000000001)">
  <tspan fill="rgb(102,102,102)" font-family="MyriadArabic-Bold" font-size="100.8" x="0" y="946">
   +
  </tspan>
 </text>
 <text text-anchor="start" transform="matrix(0.9,0.0,0.0,0.9,702.0,-311.4000000000001)">
  <tspan fill="rgb(102,102,102)" font-family="MyriadArabic-Bold" font-size="100.8" x="0" y="946">
   +
  </tspan>
 </text>
 <text text-anchor="start" transform="matrix(0.9,0.0,0.0,0.9,540.0,-84.60000000000014)">
  <tspan fill="rgb(102,102,102)" font-family="MyriadArabic-Bold" font-size="336" x="0" y="634">
   €
  </tspan>
 </text>
 <text text-anchor="start" transform="matrix(0.9,0.0,0.0,0.9,486.0,-311.4000000000001)">
  <tspan fill="rgb(102,102,102)" font-family="MyriadArabic-Bold" font-size="100.8" x="0" y="946">
   +
  </tspan>
 </text>
 <text text-anchor="start" transform="matrix(0.9,0.0,0.0,0.9,702.0,-311.4000000000001)">
  <tspan fill="rgb(102,102,102)" font-family="MyriadArabic-Bold" font-size="100.8" x="0" y="946">
   +
  </tspan>
 </text>
 <text text-anchor="start" transform="matrix(0.9,0.0,0.0,0.9,486.0,-527.4000000000001)">
  <tspan fill="rgb(102,102,102)" font-family="MyriadArabic-Bold" font-size="100.8" x="0" y="946">
   +
  </tspan>
 </text>
 <text text-anchor="start" transform="matrix(0.9,0.0,0.0,0.9,702.0,-527.4000000000001)">
  <tspan fill="rgb(102,102,102)" font-family="MyriadArabic-Bold" font-size="100.8" x="0" y="946">
   +
  </tspan>
 </text>
 <text text-anchor="start" transform="matrix(0.9,0.0,0.0,0.9,540.0,-300.60000000000014)">
  <tspan fill="rgb(102,102,102)" font-family="MyriadArabic-Bold" font-size="336" x="0" y="634">
   €
  </tspan>
 </text>
 <text text-anchor="start" transform="matrix(0.9,0.0,0.0,0.9,486.0,-527.4000000000001)">
  <tspan fill="rgb(102,102,102)" font-family="MyriadArabic-Bold" font-size="100.8" x="0" y="946">
   +
  </tspan>
 </text>
 <text text-anchor="start" transform="matrix(0.9,0.0,0.0,0.9,702.0,-527.4000000000001)">
  <tspan fill="rgb(102,102,102)" font-family="MyriadArabic-Bold" font-size="100.8" x="0" y="946">
   +
  </tspan>
 </text>
 <text text-anchor="start" transform="matrix(0.9,0.0,0.0,0.9,486.0,-743.4000000000001)">
  <tspan fill="rgb(102,102,102)" font-family="MyriadArabic-Bold" font-size="100.8" x="0" y="946">
   +
  </tspan>
 </text>
 <text text-anchor="start" transform="matrix(0.9,0.0,0.0,0.9,702.0,-743.4000000000001)">
  <tspan fill="rgb(102,102,102)" font-family="MyriadArabic-Bold" font-size="100.8" x="0" y="946">
   +
  </tspan>
 </text>
 <text text-anchor="start" transform="matrix(0.9,0.0,0.0,0.9,756.0,347.4)">
  <tspan fill="rgb(102,102,102)" font-family="MyriadArabic-Bold" font-size="336" x="0" y="634">
   €
  </tspan>
 </text>
 <text text-anchor="start" transform="matrix(0.9,0.0,0.0,0.9,702.0,120.60000000000002)">
  <tspan fill="rgb(102,102,102)" font-family="MyriadArabic-Bold" font-size="100.8" x="0" y="946">
   +
  </tspan>
 </text>
 <text text-anchor="start" transform="matrix(0.9,0.0,0.0,0.9,918.0,120.60000000000002)">
  <tspan fill="rgb(102,102,102)" font-family="MyriadArabic-Bold" font-size="100.8" x="0" y="946">
   +
  </tspan>
 </text>
 <text text-anchor="start" transform="matrix(0.9,0.0,0.0,0.9,702.0,-95.40000000000009)">
  <tspan fill="rgb(102,102,102)" font-family="MyriadArabic-Bold" font-size="100.8" x="0" y="946">
   +
  </tspan>
 </text>
 <text text-anchor="start" transform="matrix(0.9,0.0,0.0,0.9,918.0,-95.40000000000009)">
  <tspan fill="rgb(102,102,102)" font-family="MyriadArabic-Bold" font-size="100.8" x="0" y="946">
   +
  </tspan>
 </text>
 <text text-anchor="start" transform="matrix(0.9,0.0,0.0,0.9,756.0,131.39999999999998)">
  <tspan fill="rgb(102,102,102)" font-family="MyriadArabic-Bold" font-size="336" x="0" y="634">
   €
  </tspan>
 </text>
 <text text-anchor="start" transform="matrix(0.9,0.0,0.0,0.9,702.0,-95.40000000000009)">
  <tspan fill="rgb(102,102,102)" font-family="MyriadArabic-Bold" font-size="100.8" x="0" y="946">
   +
  </tspan>
 </text>
 <text text-anchor="start" transform="matrix(0.9,0.0,0.0,0.9,918.0,-95.40000000000009)">
  <tspan fill="rgb(102,102,102)" font-family="MyriadArabic-Bold" font-size="100.8" x="0" y="946">
   +
  </tspan>
 </text>
 <text text-anchor="start" transform="matrix(0.9,0.0,0.0,0.9,702.0,-311.4000000000001)">
  <tspan fill="rgb(102,102,102)" font-family="MyriadArabic-Bold" font-size="100.8" x="0" y="946">
   +
  </tspan>
 </text>
 <text text-anchor="start" transform="matrix(0.9,0.0,0.0,0.9,918.0,-311.4000000000001)">
  <tspan fill="rgb(102,102,102)" font-family="MyriadArabic-Bold" font-size="100.8" x="0" y="946">
   +
  </tspan>
 </text>
 <text text-anchor="start" transform="matrix(0.9,0.0,0.0,0.9,756.0,-84.60000000000014)">
  <tspan fill="rgb(102,102,102)" font-family="MyriadArabic-Bold" font-size="336" x="0" y="634">
   €
  </tspan>
 </text>
 <text text-anchor="start" transform="matrix(0.9,0.0,0.0,0.9,702.0,-311.4000000000001)">
  <tspan fill="rgb(102,102,102)" font-family="MyriadArabic-Bold" font-size="100.8" x="0" y="946">
   +
  </tspan>
 </text>
 <text text-anchor="start" transform="matrix(0.9,0.0,0.0,0.9,918.0,-311.4000000000001)">
  <tspan fill="rgb(102,102,102)" font-family="MyriadArabic-Bold" font-size="100.8" x="0" y="946">
   +
  </tspan>
 </text>
 <text text-anchor="start" transform="matrix(0.9,0.0,0.0,0.9,702.0,-527.4000000000001)">
  <tspan fill="rgb(102,102,102)" font-family="MyriadArabic-Bold" font-size="100.8" x="0" y="946">
   +
  </tspan>
 </text>
 <text text-anchor="start" transform="matrix(0.9,0.0,0.0,0.9,918.0,-527.4000000000001)">
  <tspan fill="rgb(102,102,102)" font-family="MyriadArabic-Bold" font-size="100.8" x="0" y="946">
   +
  </tspan>
 </text>
 <text text-anchor="start" transform="matrix(0.9,0.0,0.0,0.9,756.0,-300.60000000000014)">
  <tspan fill="rgb(102,102,102)" font-family="MyriadArabic-Bold" font-size="336" x="0" y="634">
   €
  </tspan>
 </text>
 <text text-anchor="start" transform="matrix(0.9,0.0,0.0,0.9,702.0,-527.4000000000001)">
  <tspan fill="rgb(102,102,102)" font-family="MyriadArabic-Bold" font-size="100.8" x="0" y="946">
   +
  </tspan>
 </text>
 <text text-anchor="start" transform="matrix(0.9,0.0,0.0,0.9,918.0,-527.4000000000001)">
  <tspan fill="rgb(102,102,102)" font-family="MyriadArabic-Bold" font-size="100.8" x="0" y="946">
   +
  </tspan>
 </text>
 <text text-anchor="start" transform="matrix(0.9,0.0,0.0,0.9,702.0,-743.4000000000001)">
  <tspan fill="rgb(102,102,102)" font-family="MyriadArabic-Bold" font-size="100.8" x="0" y="946">
   +
  </tspan>
 </text>
 <text text-anchor="start" transform="matrix(0.9,0.0,0.0,0.9,918.0,-743.4000000000001)">
  <tspan fill="rgb(102,102,102)" font-family="MyriadArabic-Bold" font-size="100.8" x="0" y="946">
   +
  </tspan>
 </text>
 <text text-anchor="start" transform="matrix(0.9,0.0,0.0,0.9,972.0,347.4)">
  <tspan fill="rgb(102,102,102)" font-family="MyriadArabic-Bold" font-size="336" x="0" y="634">
   €
  </tspan>
 </text>
 <text text-anchor="start" transform="matrix(0.9,0.0,0.0,0.9,918.0,120.60000000000002)">
  <tspan fill="rgb(102,102,102)" font-family="MyriadArabic-Bold" font-size="100.8" x="0" y="946">
   +
  </tspan>
 </text>
 <text text-anchor="start" transform="matrix(0.9,0.0,0.0,0.9,1134.0,120.60000000000002)">
  <tspan fill="rgb(102,102,102)" font-family="MyriadArabic-Bold" font-size="100.8" x="0" y="946">
   +
  </tspan>
 </text>
 <text text-anchor="start" transform="matrix(0.9,0.0,0.0,0.9,918.0,-95.40000000000009)">
  <tspan fill="rgb(102,102,102)" font-family="MyriadArabic-Bold" font-size="100.8" x="0" y="946">
   +
  </tspan>
 </text>
 <text text-anchor="start" transform="matrix(0.9,0.0,0.0,0.9,1134.0,-95.40000000000009)">
  <tspan fill="rgb(102,102,102)" font-family="MyriadArabic-Bold" font-size="100.8" x="0" y="946">
   +
  </tspan>
 </text>
 <text text-anchor="start" transform="matrix(0.9,0.0,0.0,0.9,972.0,131.39999999999998)">
  <tspan fill="rgb(102,102,102)" font-family="MyriadArabic-Bold" font-size="336" x="0" y="634">
   €
  </tspan>
 </text>
 <text text-anchor="start" transform="matrix(0.9,0.0,0.0,0.9,918.0,-95.40000000000009)">
  <tspan fill="rgb(102,102,102)" font-family="MyriadArabic-Bold" font-size="100.8" x="0" y="946">
   +
  </tspan>
 </text>
 <text text-anchor="start" transform="matrix(0.9,0.0,0.0,0.9,1134.0,-95.40000000000009)">
  <tspan fill="rgb(102,102,102)" font-family="MyriadArabic-Bold" font-size="100.8" x="0" y="946">
   +
  </tspan>
 </text>
 <text text-anchor="start" transform="matrix(0.9,0.0,0.0,0.9,918.0,-311.4000000000001)">
  <tspan fill="rgb(102,102,102)" font-family="MyriadArabic-Bold" font-size="100.8" x="0" y="946">
   +
  </tspan>
 </text>
 <text text-anchor="start" transform="matrix(0.9,0.0,0.0,0.9,1134.0,-311.4000000000001)">
  <tspan fill="rgb(102,102,102)" font-family="MyriadArabic-Bold" font-size="100.8" x="0" y="946">
   +
  </tspan>
 </text>
 <text text-anchor="start" transform="matrix(0.9,0.0,0.0,0.9,972.0,-84.60000000000014)">
  <tspan fill="rgb(102,102,102)" font-family="MyriadArabic-Bold" font-size="336" x="0" y="634">
   €
  </tspan>
 </text>
 <text text-anchor="start" transform="matrix(0.9,0.0,0.0,0.9,918.0,-311.4000000000001)">
  <tspan fill="rgb(102,102,102)" font-family="MyriadArabic-Bold" font-size="100.8" x="0" y="946">
   +
  </tspan>
 </text>
 <text text-anchor="start" transform="matrix(0.9,0.0,0.0,0.9,1134.0,-311.4000000000001)">
  <tspan fill="rgb(102,102,102)" font-family="MyriadArabic-Bold" font-size="100.8" x="0" y="946">
   +
  </tspan>
 </text>
 <text text-anchor="start" transform="matrix(0.9,0.0,0.0,0.9,918.0,-527.4000000000001)">
  <tspan fill="rgb(102,102,102)" font-family="MyriadArabic-Bold" font-size="100.8" x="0" y="946">
   +
  </tspan>
 </text>
 <text text-anchor="start" transform="matrix(0.9,0.0,0.0,0.9,1134.0,-527.4000000000001)">
  <tspan fill="rgb(102,102,102)" font-family="MyriadArabic-Bold" font-size="100.8" x="0" y="946">
   +
  </tspan>
 </text>
 <text text-anchor="start" transform="matrix(0.9,0.0,0.0,0.9,972.0,-300.60000000000014)">
  <tspan fill="rgb(102,102,102)" font-family="MyriadArabic-Bold" font-size="336" x="0" y="634">
   €
  </tspan>
 </text>
 <text text-anchor="start" transform="matrix(0.9,0.0,0.0,0.9,918.0,-527.4000000000001)">
  <tspan fill="rgb(102,102,102)" font-family="MyriadArabic-Bold" font-size="100.8" x="0" y="946">
   +
  </tspan>
 </text>
 <text text-anchor="start" transform="matrix(0.9,0.0,0.0,0.9,1134.0,-527.4000000000001)">
  <tspan fill="rgb(102,102,102)" font-family="MyriadArabic-Bold" font-size="100.8" x="0" y="946">
   +
  </tspan>
 </text>
 <text text-anchor="start" transform="matrix(0.9,0.0,0.0,0.9,918.0,-743.4000000000001)">
  <tspan fill="rgb(102,102,102)" font-family="MyriadArabic-Bold" font-size="100.8" x="0" y="946">
   +
  </tspan>
 </text>
 <text text-anchor="start" transform="matrix(0.9,0.0,0.0,0.9,1134.0,-743.4000000000001)">
  <tspan fill="rgb(102,102,102)" font-family="MyriadArabic-Bold" font-size="100.8" x="0" y="946">
   +
  </tspan>
 </text>
 <text text-anchor="start" transform="matrix(0.9,0.0,0.0,0.9,1188.0,347.4)">
  <tspan fill="rgb(102,102,102)" font-family="MyriadArabic-Bold" font-size="336" x="0" y="634">
   €
  </tspan>
 </text>
 <text text-anchor="start" transform="matrix(0.9,0.0,0.0,0.9,1134.0,120.60000000000002)">
  <tspan fill="rgb(102,102,102)" font-family="MyriadArabic-Bold" font-size="100.8" x="0" y="946">
   +
  </tspan>
 </text>
 <text text-anchor="start" transform="matrix(0.9,0.0,0.0,0.9,1350.0,120.60000000000002)">
  <tspan fill="rgb(102,102,102)" font-family="MyriadArabic-Bold" font-size="100.8" x="0" y="946">
   +
  </tspan>
 </text>
 <text text-anchor="start" transform="matrix(0.9,0.0,0.0,0.9,1134.0,-95.40000000000009)">
  <tspan fill="rgb(102,102,102)" font-family="MyriadArabic-Bold" font-size="100.8" x="0" y="946">
   +
  </tspan>
 </text>
 <text text-anchor="start" transform="matrix(0.9,0.0,0.0,0.9,1350.0,-95.40000000000009)">
  <tspan fill="rgb(102,102,102)" font-family="MyriadArabic-Bold" font-size="100.8" x="0" y="946">
   +
  </tspan>
 </text>
 <text text-anchor="start" transform="matrix(0.9,0.0,0.0,0.9,1188.0,131.39999999999998)">
  <tspan fill="rgb(102,102,102)" font-family="MyriadArabic-Bold" font-size="336" x="0" y="634">
   €
  </tspan>
 </text>
 <text text-anchor="start" transform="matrix(0.9,0.0,0.0,0.9,1134.0,-95.40000000000009)">
  <tspan fill="rgb(102,102,102)" font-family="MyriadArabic-Bold" font-size="100.8" x="0" y="946">
   +
  </tspan>
 </text>
 <text text-anchor="start" transform="matrix(0.9,0.0,0.0,0.9,1350.0,-95.40000000000009)">
  <tspan fill="rgb(102,102,102)" font-family="MyriadArabic-Bold" font-size="100.8" x="0" y="946">
   +
  </tspan>
 </text>
 <text text-anchor="start" transform="matrix(0.9,0.0,0.0,0.9,1134.0,-311.4000000000001)">
  <tspan fill="rgb(102,102,102)" font-family="MyriadArabic-Bold" font-size="100.8" x="0" y="946">
   +
  </tspan>
 </text>
 <text text-anchor="start" transform="matrix(0.9,0.0,0.0,0.9,1350.0,-311.4000000000001)">
  <tspan fill="rgb(102,102,102)" font-family="MyriadArabic-Bold" font-size="100.8" x="0" y="946">
   +
  </tspan>
 </text>
 <text text-anchor="start" transform="matrix(0.9,0.0,0.0,0.9,1188.0,-84.60000000000014)">
  <tspan fill="rgb(102,102,102)" font-family="MyriadArabic-Bold" font-size="336" x="0" y="634">
   €
  </tspan>
 </text>
 <text text-anchor="start" transform="matrix(0.9,0.0,0.0,0.9,1134.0,-311.4000000000001)">
  <tspan fill="rgb(102,102,102)" font-family="MyriadArabic-Bold" font-size="100.8" x="0" y="946">
   +
  </tspan>
 </text>
 <text text-anchor="start" transform="matrix(0.9,0.0,0.0,0.9,1350.0,-311.4000000000001)">
  <tspan fill="rgb(102,102,102)" font-family="MyriadArabic-Bold" font-size="100.8" x="0" y="946">
   +
  </tspan>
 </text>
 <text text-anchor="start" transform="matrix(0.9,0.0,0.0,0.9,1134.0,-527.4000000000001)">
  <tspan fill="rgb(102,102,102)" font-family="MyriadArabic-Bold" font-size="100.8" x="0" y="946">
   +
  </tspan>
 </text>
 <text text-anchor="start" transform="matrix(0.9,0.0,0.0,0.9,1350.0,-527.4000000000001)">
  <tspan fill="rgb(102,102,102)" font-family="MyriadArabic-Bold" font-size="100.8" x="0" y="946">
   +
  </tspan>
 </text>
 <text text-anchor="start" transform="matrix(0.9,0.0,0.0,0.9,1188.0,-300.60000000000014)">
  <tspan fill="rgb(102,102,102)" font-family="MyriadArabic-Bold" font-size="336" x="0" y="634">
   €
  </tspan>
 </text>
 <text text-anchor="start" transform="matrix(0.9,0.0,0.0,0.9,1134.0,-527.4000000000001)">
  <tspan fill="rgb(102,102,102)" font-family="MyriadArabic-Bold" font-size="100.8" x="0" y="946">
   +
  </tspan>
 </text>
 <text text-anchor="start" transform="matrix(0.9,0.0,0.0,0.9,1350.0,-527.4000000000001)">
  <tspan fill="rgb(102,102,102)" font-family="MyriadArabic-Bold" font-size="100.8" x="0" y="946">
   +
  </tspan>
 </text>
 <text text-anchor="start" transform="matrix(0.9,0.0,0.0,0.9,1134.0,-743.4000000000001)">
  <tspan fill="rgb(102,102,102)" font-family="MyriadArabic-Bold" font-size="100.8" x="0" y="946">
   +
  </tspan>
 </text>
 <text text-anchor="start" transform="matrix(0.9,0.0,0.0,0.9,1350.0,-743.4000000000001)">
  <tspan fill="rgb(102,102,102)" font-family="MyriadArabic-Bold" font-size="100.8" x="0" y="946">
   +
  </tspan>
 </text>
 <text text-anchor="start" transform="matrix(0.9,0.0,0.0,0.9,1404.0,347.4)">
  <tspan fill="rgb(102,102,102)" font-family="MyriadArabic-Bold" font-size="336" x="0" y="634">
   €
  </tspan>
 </text>
 <text text-anchor="start" transform="matrix(0.9,0.0,0.0,0.9,1350.0,120.60000000000002)">
  <tspan fill="rgb(102,102,102)" font-family="MyriadArabic-Bold" font-size="100.8" x="0" y="946">
   +
  </tspan>
 </text>
 <text text-anchor="start" transform="matrix(0.9,0.0,0.0,0.9,1566.0,120.60000000000002)">
  <tspan fill="rgb(102,102,102)" font-family="MyriadArabic-Bold" font-size="100.8" x="0" y="946">
   +
  </tspan>
 </text>
 <text text-anchor="start" transform="matrix(0.9,0.0,0.0,0.9,1350.0,-95.40000000000009)">
  <tspan fill="rgb(102,102,102)" font-family="MyriadArabic-Bold" font-size="100.8" x="0" y="946">
   +
  </tspan>
 </text>
 <text text-anchor="start" transform="matrix(0.9,0.0,0.0,0.9,1566.0,-95.40000000000009)">
  <tspan fill="rgb(102,102,102)" font-family="MyriadArabic-Bold" font-size="100.8" x="0" y="946">
   +
  </tspan>
 </text>
 <text text-anchor="start" transform="matrix(0.9,0.0,0.0,0.9,1404.0,131.39999999999998)">
  <tspan fill="rgb(102,102,102)" font-family="MyriadArabic-Bold" font-size="336" x="0" y="634">
   €
  </tspan>
 </text>
 <text text-anchor="start" transform="matrix(0.9,0.0,0.0,0.9,1350.0,-95.40000000000009)">
  <tspan fill="rgb(102,102,102)" font-family="MyriadArabic-Bold" font-size="100.8" x="0" y="946">
   +
  </tspan>
 </text>
 <text text-anchor="start" transform="matrix(0.9,0.0,0.0,0.9,1566.0,-95.40000000000009)">
  <tspan fill="rgb(102,102,102)" font-family="MyriadArabic-Bold" font-size="100.8" x="0" y="946">
   +
  </tspan>
 </text>
 <text text-anchor="start" transform="matrix(0.9,0.0,0.0,0.9,1350.0,-311.4000000000001)">
  <tspan fill="rgb(102,102,102)" font-family="MyriadArabic-Bold" font-size="100.8" x="0" y="946">
   +
  </tspan>
 </text>
 <text text-anchor="start" transform="matrix(0.9,0.0,0.0,0.9,1566.0,-311.4000000000001)">
  <tspan fill="rgb(102,102,102)" font-family="MyriadArabic-Bold" font-size="100.8" x="0" y="946">
   +
  </tspan>
 </text>
 <text text-anchor="start" transform="matrix(0.9,0.0,0.0,0.9,1404.0,-84.60000000000014)">
  <tspan fill="rgb(102,102,102)" font-family="MyriadArabic-Bold" font-size="336" x="0" y="634">
   €
  </tspan>
 </text>
 <text text-anchor="start" transform="matrix(0.9,0.0,0.0,0.9,1350.0,-311.4000000000001)">
  <tspan fill="rgb(102,102,102)" font-family="MyriadArabic-Bold" font-size="100.8" x="0" y="946">
   +
  </tspan>
 </text>
 <text text-anchor="start" transform="matrix(0.9,0.0,0.0,0.9,1566.0,-311.4000000000001)">
  <tspan fill="rgb(102,102,102)" font-family="MyriadArabic-Bold" font-size="100.8" x="0" y="946">
   +
  </tspan>
 </text>
 <text text-anchor="start" transform="matrix(0.9,0.0,0.0,0.9,1350.0,-527.4000000000001)">
  <tspan fill="rgb(102,102,102)" font-family="MyriadArabic-Bold" font-size="100.8" x="0" y="946">
   +
  </tspan>
 </text>
 <text text-anchor="start" transform="matrix(0.9,0.0,0.0,0.9,1566.0,-527.4000000000001)">
  <tspan fill="rgb(102,102,102)" font-family="MyriadArabic-Bold" font-size="100.8" x="0" y="946">
   +
  </tspan>
 </text>
 <text text-anchor="start" transform="matrix(0.9,0.0,0.0,0.9,1404.0,-300.60000000000014)">
  <tspan fill="rgb(102,102,102)" font-family="MyriadArabic-Bold" font-size="336" x="0" y="634">
   €
  </tspan>
 </text>
 <text text-anchor="start" transform="matrix(0.9,0.0,0.0,0.9,1350.0,-527.4000000000001)">
  <tspan fill="rgb(102,102,102)" font-family="MyriadArabic-Bold" font-size="100.8" x="0" y="946">
   +
  </tspan>
 </text>
 <text text-anchor="start" transform="matrix(0.9,0.0,0.0,0.9,1566.0,-527.4000000000001)">
  <tspan fill="rgb(102,102,102)" font-family="MyriadArabic-Bold" font-size="100.8" x="0" y="946">
   +
  </tspan>
 </text>
 <text text-anchor="start" transform="matrix(0.9,0.0,0.0,0.9,1350.0,-743.4000000000001)">
  <tspan fill="rgb(102,102,102)" font-family="MyriadArabic-Bold" font-size="100.8" x="0" y="946">
   +
  </tspan>
 </text>
 <text text-anchor="start" transform="matrix(0.9,0.0,0.0,0.9,1566.0,-743.4000000000001)">
  <tspan fill="rgb(102,102,102)" font-family="MyriadArabic-Bold" font-size="100.8" x="0" y="946">
   +
  </tspan>
 </text>
 <text text-anchor="start" transform="matrix(0.9,0.0,0.0,0.9,1620.0,347.4)">
  <tspan fill="rgb(102,102,102)" font-family="MyriadArabic-Bold" font-size="336" x="0" y="634">
   €
  </tspan>
 </text>
 <text text-anchor="start" transform="matrix(0.9,0.0,0.0,0.9,1566.0,120.60000000000002)">
  <tspan fill="rgb(102,102,102)" font-family="MyriadArabic-Bold" font-size="100.8" x="0" y="946">
   +
  </tspan>
 </text>
 <text text-anchor="start" transform="matrix(0.9,0.0,0.0,0.9,1782.0,120.60000000000002)">
  <tspan fill="rgb(102,102,102)" font-family="MyriadArabic-Bold" font-size="100.8" x="0" y="946">
   +
  </tspan>
 </text>
 <text text-anchor="start" transform="matrix(0.9,0.0,0.0,0.9,1566.0,-95.40000000000009)">
  <tspan fill="rgb(102,102,102)" font-family="MyriadArabic-Bold" font-size="100.8" x="0" y="946">
   +
  </tspan>
 </text>
 <text text-anchor="start" transform="matrix(0.9,0.0,0.0,0.9,1782.0,-95.40000000000009)">
  <tspan fill="rgb(102,102,102)" font-family="MyriadArabic-Bold" font-size="100.8" x="0" y="946">
   +
  </tspan>
 </text>
 <text text-anchor="start" transform="matrix(0.9,0.0,0.0,0.9,1620.0,131.39999999999998)">
  <tspan fill="rgb(102,102,102)" font-family="MyriadArabic-Bold" font-size="336" x="0" y="634">
   €
  </tspan>
 </text>
 <text text-anchor="start" transform="matrix(0.9,0.0,0.0,0.9,1566.0,-95.40000000000009)">
  <tspan fill="rgb(102,102,102)" font-family="MyriadArabic-Bold" font-size="100.8" x="0" y="946">
   +
  </tspan>
 </text>
 <text text-anchor="start" transform="matrix(0.9,0.0,0.0,0.9,1782.0,-95.40000000000009)">
  <tspan fill="rgb(102,102,102)" font-family="MyriadArabic-Bold" font-size="100.8" x="0" y="946">
   +
  </tspan>
 </text>
 <text text-anchor="start" transform="matrix(0.9,0.0,0.0,0.9,1566.0,-311.4000000000001)">
  <tspan fill="rgb(102,102,102)" font-family="MyriadArabic-Bold" font-size="100.8" x="0" y="946">
   +
  </tspan>
 </text>
 <text text-anchor="start" transform="matrix(0.9,0.0,0.0,0.9,1782.0,-311.4000000000001)">
  <tspan fill="rgb(102,102,102)" font-family="MyriadArabic-Bold" font-size="100.8" x="0" y="946">
   +
  </tspan>
 </text>
 <text text-anchor="start" transform="matrix(0.9,0.0,0.0,0.9,1620.0,-84.60000000000014)">
  <tspan fill="rgb(102,102,102)" font-family="MyriadArabic-Bold" font-size="336" x="0" y="634">
   €
  </tspan>
 </text>
 <text text-anchor="start" transform="matrix(0.9,0.0,0.0,0.9,1566.0,-311.4000000000001)">
  <tspan fill="rgb(102,102,102)" font-family="MyriadArabic-Bold" font-size="100.8" x="0" y="946">
   +
  </tspan>
 </text>
 <text text-anchor="start" transform="matrix(0.9,0.0,0.0,0.9,1782.0,-311.4000000000001)">
  <tspan fill="rgb(102,102,102)" font-family="MyriadArabic-Bold" font-size="100.8" x="0" y="946">
   +
  </tspan>
 </text>
 <text text-anchor="start" transform="matrix(0.9,0.0,0.0,0.9,1566.0,-527.4000000000001)">
  <tspan fill="rgb(102,102,102)" font-family="MyriadArabic-Bold" font-size="100.8" x="0" y="946">
   +
  </tspan>
 </text>
 <text text-anchor="start" transform="matrix(0.9,0.0,0.0,0.9,1782.0,-527.4000000000001)">
  <tspan fill="rgb(102,102,102)" font-family="MyriadArabic-Bold" font-size="100.8" x="0" y="946">
   +
  </tspan>
 </text>
 <text text-anchor="start" transform="matrix(0.9,0.0,0.0,0.9,1620.0,-300.60000000000014)">
  <tspan fill="rgb(102,102,102)" font-family="MyriadArabic-Bold" font-size="336" x="0" y="634">
   €
  </tspan>
 </text>
 <text text-anchor="start" transform="matrix(0.9,0.0,0.0,0.9,1566.0,-527.4000000000001)">
  <tspan fill="rgb(102,102,102)" font-family="MyriadArabic-Bold" font-size="100.8" x="0" y="946">
   +
  </tspan>
 </text>
 <text text-anchor="start" transform="matrix(0.9,0.0,0.0,0.9,1782.0,-527.4000000000001)">
  <tspan fill="rgb(102,102,102)" font-family="MyriadArabic-Bold" font-size="100.8" x="0" y="946">
   +
  </tspan>
 </text>
 <text text-anchor="start" transform="matrix(0.9,0.0,0.0,0.9,1566.0,-743.4000000000001)">
  <tspan fill="rgb(102,102,102)" font-family="MyriadArabic-Bold" font-size="100.8" x="0" y="946">
   +
  </tspan>
 </text>
 <text text-anchor="start" transform="matrix(0.9,0.0,0.0,0.9,1782.0,-743.4000000000001)">
  <tspan fill="rgb(102,102,102)" font-family="MyriadArabic-Bold" font-size="100.8" x="0" y="946">
   +
  </tspan>
 </text>
 <path d="M60,777 l1104,0 l0,168 l-1104,0 Z M60,777" fill="rgb(21,71,85)" transform="matrix(0.9,0.0,0.0,-0.9,54.0,972.0)"/>
 <text text-anchor="start" transform="matrix(0.9,0.0,0.0,0.9,108.0,-300.60000000000014)">
  <tspan fill="rgb(0,0,0)" font-family="MyriadArabic-Bold" font-size="336" x="0" y="634">
   F
  </tspan>
 </text>
 <text text-anchor="start" transform="matrix(0.9,0.0,0.0,0.9,324.0,-300.60000000000014)">
  <tspan fill="rgb(0,0,0)" font-family="MyriadArabic-Bold" font-size="336" x="0" y="634">
   O
  </tspan>
 </text>
 <text text-anchor="start" transform="matrix(0.9,0.0,0.0,0.9,540.0,-300.60000000000014)">
  <tspan fill="rgb(0,0,0)" font-family="MyriadArabic-Bold" font-size="336" x="0" y="634">
   N
  </tspan>
 </text>
 <text text-anchor="start" transform="matrix(0.9,0.0,0.0,0.9,756.0,-300.60000000000014)">
  <tspan fill="rgb(0,0,0)" font-family="MyriadArabic-Bold" font-size="336" x="0" y="634">
   D
  </tspan>
 </text>
 <text text-anchor="start" transform="matrix(0.9,0.0,0.0,0.9,972.0,-300.60000000000014)">
  <tspan fill="rgb(0,0,0)" font-family="MyriadArabic-Bold" font-size="336" x="0" y="634">
   S
  </tspan>
 </text>
 <path d="M60,537 l384,0 l0,168 l-384,0 Z M60,537" fill="rgb(21,71,85)" transform="matrix(0.9,0.0,0.0,-0.9,54.0,972.0)"/>
 <text text-anchor="start" transform="matrix(0.9,0.0,0.0,0.9,108.0,-84.60000000000014)">
  <tspan fill="rgb(0,0,0)" font-family="MyriadArabic-Bold" font-size="336" x="0" y="634">
   E
  </tspan>
 </text>
 <text text-anchor="start" transform="matrix(0.9,0.0,0.0,0.9,324.0,-84.60000000000014)">
  <tspan fill="rgb(0,0,0)" font-family="MyriadArabic-Bold" font-size="336" x="0" y="634">
   N
  </tspan>
 </text>
 <path d="M60,297 l864,0 l0,168 l-864,0 Z M60,297" fill="rgb(21,71,85)" transform="matrix(0.9,0.0,0.0,-0.9,54.0,972.0)"/>
 <text text-anchor="start" transform="matrix(0.9,0.0,0.0,0.9,108.0,131.39999999999998)">
  <tspan fill="rgb(252,197,0)" font-family="MyriadArabic-Bold" font-size="336" x="0" y="634">
   B
  </tspan>
 </text>
 <text text-anchor="start" transform="matrix(0.9,0.0,0.0,0.9,324.0,131.39999999999998)">
  <tspan fill="rgb(252,197,0)" font-family="MyriadArabic-Bold" font-size="336" x="0" y="634">
   O
  </tspan>
 </text>
 <text text-anchor="start" transform="matrix(0.9,0.0,0.0,0.9,540.0,131.39999999999998)">
  <tspan fill="rgb(252,197,0)" font-family="MyriadArabic-Bold" font-size="336" x="0" y="634">
   E
  </tspan>
 </text>
 <text text-anchor="start" transform="matrix(0.9,0.0,0.0,0.9,756.0,131.39999999999998)">
  <tspan fill="rgb(252,197,0)" font-family="MyriadArabic-Bold" font-size="336" x="0" y="634">
   K
  </tspan>
 </text>
 <path d="M60,57 l1344,0 l0,168 l-1344,0 Z M60,57" fill="rgb(21,71,85)" transform="matrix(0.9,0.0,0.0,-0.9,54.0,972.0)"/>
 <text text-anchor="start" transform="matrix(0.9,0.0,0.0,0.9,108.0,347.4)">
  <tspan fill="rgb(255,255,255)" font-family="MyriadArabic-Bold" font-size="336" x="0" y="634">
   O
  </tspan>
 </text>
 <text text-anchor="start" transform="matrix(0.9,0.0,0.0,0.9,324.0,347.4)">
  <tspan fill="rgb(255,255,255)" font-family="MyriadArabic-Bold" font-size="336" x="0" y="634">
   N
  </tspan>
 </text>
 <text text-anchor="start" transform="matrix(0.9,0.0,0.0,0.9,540.0,347.4)">
  <tspan fill="rgb(255,255,255)" font-family="MyriadArabic-Bold" font-size="336" x="0" y="634">
   L
  </tspan>
 </text>
 <text text-anchor="start" transform="matrix(0.9,0.0,0.0,0.9,756.0,347.4)">
  <tspan fill="rgb(255,255,255)" font-family="MyriadArabic-Bold" font-size="336" x="0" y="634">
   I
  </tspan>
 </text>
 <text text-anchor="start" transform="matrix(0.9,0.0,0.0,0.9,972.0,347.4)">
  <tspan fill="rgb(255,255,255)" font-family="MyriadArabic-Bold" font-size="336" x="0" y="634">
   N
  </tspan>
 </text>
 <text text-anchor="start" transform="matrix(0.9,0.0,0.0,0.9,1188.0,347.4)">
  <tspan fill="rgb(255,255,255)" font-family="MyriadArabic-Bold" font-size="336" x="0" y="634">
   E
  </tspan>
 </text>
</svg>