<?xml version="1.0" encoding="UTF-8" standalone="no"?>
<!-- Created with Inkscape (http://www.inkscape.org/) -->

<svg
   version="1.1"
   id="svg207"
   width="519.39581"
   height="44.059975"
   viewBox="0 0 519.39582 44.059975"
   xmlns="http://www.w3.org/2000/svg"
   xmlns:svg="http://www.w3.org/2000/svg">
  <defs
     id="defs211" />
  <g
     id="g213"
     transform="translate(-21.333334,-13.333334)">
    <path
       style="fill:#000000;stroke-width:0.666667"
       d="m 396.29614,56.075917 c -3.32895,-1.512056 -7.15531,-5.864444 -8.18908,-9.314877 -1.83858,-6.136605 -0.25298,-16.054826 3.52286,-22.036133 3.7742,-5.978718 10.11372,-9.563116 17.0257,-9.626407 12.81382,-0.117333 18.95453,11.147472 14.37246,26.365504 -2.00093,6.645536 -5.51997,11.011663 -11.13792,13.818987 -4.98388,2.49047 -11.16476,2.804756 -15.59402,0.792926 z m 13.90158,-6.658755 c 6.42338,-3.969874 9.61375,-19.452184 5.23758,-25.417161 -2.6878,-3.663631 -8.97434,-4.187881 -13.52745,-1.128088 -6.44473,4.331002 -9.81903,17.542599 -6.24545,24.453148 2.35936,4.562485 8.99321,5.517311 14.53532,2.092101 z m 111.46897,6.981163 c -7.36079,-3.249128 -8.46331,-15.546583 -2.13739,-23.840413 2.64514,-3.468006 8.25835,-6.557911 11.91329,-6.557911 7.90766,0 12.1047,8.006117 7.15333,13.645421 -2.24942,2.561948 -5.93546,3.915026 -12.76256,4.684908 -3.46793,0.391074 -3.83334,0.583035 -3.83334,2.0138 0,0.869836 0.69322,2.387436 1.54049,3.372444 1.28023,1.48835 2.06211,1.780454 4.62799,1.728951 1.69812,-0.03409 4.16808,-0.513469 5.48879,-1.065299 2.57712,-1.076788 2.51544,-1.12301 3.30583,2.477299 0.36961,1.683639 0.1408,1.978703 -2.44432,3.152026 -3.35054,1.520728 -9.84279,1.717118 -12.85211,0.388774 z m 10.60525,-19.296782 c 3.74456,-2.453529 1.25576,-6.282929 -3.26577,-5.024883 -2.12302,0.590699 -5.67281,4.228868 -5.67281,5.814045 0,1.312104 6.62422,0.72727 8.93858,-0.789162 z M 58.03973,55.839231 c -3.324826,-1.118498 -7.759331,-5.658919 -8.633033,-8.839229 -3.548309,-12.915987 6.606657,-23.192039 19.405939,-19.63733 5.917387,1.64342 9.493914,7.053728 9.478661,14.338627 -0.01253,5.970932 -2.154274,10.047481 -6.668881,12.693216 -3.466606,2.031568 -9.827163,2.708105 -13.582686,1.444716 z m 9.77216,-8.437818 c 2.8857,-4.29647 1.415473,-12.610716 -2.469461,-13.965013 -2.783761,-0.970424 -5.693439,0.587139 -6.679753,3.575702 -1.230132,3.727335 -0.556423,9.305429 1.371781,11.357908 2.341264,2.492162 5.737081,2.069248 7.777433,-0.968597 z m 57.61822,8.551959 c -5.43228,-2.175765 -8.21442,-6.949914 -8.21442,-14.095949 0,-5.543635 1.87031,-9.799497 5.61109,-12.767978 3.28771,-2.608948 8.34619,-3.116767 12.00656,-1.205334 l 2.5,1.305491 v -7.261467 -7.261468 h 4.66667 4.66666 v 20.666668 20.666667 h -4 -4 v -2.116209 -2.11621 l -1.5091,1.417724 c -3.1657,2.974024 -8.22924,4.169186 -11.72746,2.768065 z m 10.52151,-8.37661 c 1.07251,-1.36348 1.38172,-2.71599 1.38172,-6.043827 0,-5.062556 -0.58588,-6.394901 -3.30785,-7.52238 -6.81648,-2.823476 -10.9775,7.880202 -5.50316,14.156113 1.63552,1.874991 5.74721,1.548512 7.42929,-0.589906 z m 21.38172,8.63478 c -3.32457,-0.545663 -5.37812,-1.684346 -5.04867,-2.799469 0.17528,-0.593306 0.51994,-1.921631 0.76593,-2.951834 0.32903,-1.377997 0.73388,-1.761959 1.53166,-1.452635 2.58395,1.001877 7.10689,1.490784 8.58667,0.928174 1.14104,-0.433826 1.53006,-1.027963 1.3773,-2.103518 -0.15801,-1.112534 -1.37284,-2.05321 -4.7127,-3.64916 -5.40824,-2.58433 -7.39966,-5.183155 -6.92857,-9.041831 0.16957,-1.388971 0.80872,-3.289109 1.42032,-4.222531 2.33391,-3.562004 9.30987,-5.178966 15.23968,-3.532416 2.50925,0.696754 2.55517,0.765434 2.11479,3.162949 -0.24759,1.347901 -0.67378,2.68269 -0.94709,2.966197 -0.27331,0.283507 -2.03601,0.160201 -3.91713,-0.274013 -2.72445,-0.628877 -3.62995,-0.615418 -4.4512,0.06616 -2.11124,1.75217 -1.17962,3.094876 3.61744,5.213693 5.4452,2.405091 7.34517,4.829779 7.34908,9.378691 0.005,6.138842 -7.01442,9.785938 -15.99751,8.31154 z m 29.24724,-0.548348 c -3.82663,-1.227417 -7.54877,-5.168647 -8.61811,-9.125409 -1.6206,-5.996531 0.55832,-13.499847 4.87679,-16.793707 4.78394,-3.648892 12.57301,-3.94114 16.52015,-0.619843 3.60639,3.034577 6.06199,9.77795 5.04141,13.84429 l -0.42621,1.698143 h -9.03619 c -8.02694,0 -9.01211,0.122412 -8.82063,1.096014 0.61592,3.13179 7.59298,5.116154 12.86771,3.659735 1.43341,-0.395785 2.6638,-0.652741 2.7342,-0.571012 0.0704,0.08173 0.33822,1.421153 0.59516,2.9765 0.43078,2.607603 0.33589,2.877821 -1.21815,3.468664 -3.20153,1.21722 -11.23196,1.42004 -14.51613,0.366625 z m 9.41943,-18.637223 c 0,-2.158196 -2.43508,-4.359303 -4.82268,-4.359303 -2.2389,0 -5.17732,2.631403 -5.17732,4.636363 0,1.252526 0.4074,1.363637 5,1.363637 4.86778,0 5,-0.04339 5,-1.640697 z m 52.83333,19.132651 -4.16666,-0.222243 V 36.380803 16.825226 l 6.16666,-0.458214 c 6.32001,-0.469609 13.21089,0.252734 15.96368,1.673405 6.46644,3.337217 7.44528,9.934035 2.16228,14.57256 -1.26094,1.107125 -2.29262,2.1039 -2.29262,2.215054 0,0.111154 1.04451,0.764607 2.32114,1.452118 8.3493,4.496394 5.1895,16.770763 -4.87994,18.956292 -3.91053,0.848764 -9.88662,1.209564 -15.27454,0.922181 z m 12.98986,-7.628841 c 2.48475,-1.194333 3.41454,-4.558922 1.89903,-6.871886 -1.3841,-2.112409 -3.56769,-2.991227 -7.43229,-2.991227 h -2.9566 v 5.759528 5.759527 l 3.3471,-0.396415 c 1.84091,-0.218027 4.15515,-0.784814 5.14276,-1.259527 z m -0.24643,-17.9115 c 1.96329,-1.54432 2.32795,-4.248703 0.84616,-6.275173 -0.66508,-0.909548 -2.01247,-1.324783 -5,-1.540881 l -4.08959,-0.295814 v 4.746794 4.746794 h 3.24343 c 2.27183,0 3.76963,-0.413909 5,-1.38172 z m 26.18142,25.071846 c -3.2863,-1.171532 -6.25626,-3.962857 -7.8276,-7.356792 -1.62258,-3.504596 -1.63228,-9.791342 -0.0206,-13.339052 3.37158,-7.421653 12.56467,-10.421567 20.5471,-6.704987 5.8176,2.708644 8.66248,8.919355 7.48822,16.347677 -1.4238,9.006836 -11.08643,14.297463 -20.18714,11.053154 z m 9.84226,-7.905679 c 1.86023,-2.501756 1.9701,-9.305677 0.19403,-12.016293 -2.34942,-3.585668 -6.54409,-3.543724 -8.66433,0.08664 -2.23117,3.820286 -1.16028,12.515153 1.68917,13.714839 2.16932,0.913336 5.40871,0.06054 6.78113,-1.785184 z m 24.25034,7.820697 c -3.9128,-1.203516 -7.59974,-4.868587 -8.59434,-8.543368 -0.40616,-1.500643 -0.58668,-4.639248 -0.40117,-6.974678 0.54728,-6.889547 5.18955,-12.178925 11.52246,-13.128603 9.62537,-1.443413 15.43502,4.695598 15.02315,15.874839 l -0.0675,1.833333 h -9.04888 c -8.18844,0 -9.02796,0.108708 -8.82872,1.143222 0.12108,0.628771 1.23745,1.828771 2.4808,2.666666 2.45724,1.655935 6.69788,2.013213 10.6028,0.893296 2.45811,-0.704976 2.66561,-0.473142 2.95081,3.296816 0.17585,2.324499 0.16263,2.336246 -3.49015,3.102383 -4.95358,1.038969 -8.3892,0.992619 -12.14922,-0.163906 z m 9.48256,-18.181904 c 0,-2.316127 -2.56534,-4.756573 -5,-4.756573 -2.43466,0 -5,2.440446 -5,4.756573 0,1.102932 0.56495,1.243427 5,1.243427 4.43504,0 5,-0.140495 5,-1.243427 z m 94.31499,17.743428 c 0.57944,-2.553376 5.01834,-27.207339 5.01834,-27.872201 0,-0.34529 1.35,-0.6278 3,-0.6278 2.55556,0 3.00001,0.19753 3.00001,1.333333 0,1.411623 0.97078,1.792627 1.6729,0.656566 0.878,-1.420631 5.3542,-2.759577 8.20194,-2.453409 3.44401,0.370277 5.85384,2.403245 6.8703,5.795884 0.58836,1.96377 0.39144,4.264065 -1.05925,12.373258 -2.40393,13.437794 -1.86977,12.294369 -5.74352,12.294369 -3.08175,0 -3.27805,-0.09967 -2.95407,-1.5 1.36861,-5.915477 3.008,-16.010723 3.00968,-18.533334 0.003,-4.707128 -2.25486,-5.894541 -6.40116,-3.366186 -3.38475,2.063967 -4.86023,5.291764 -6.62949,14.502833 -0.8987,4.678796 -1.634,8.594605 -1.634,8.701795 0,0.10719 -1.50572,0.194892 -3.34604,0.194892 -3.12638,0 -3.32368,-0.09847 -3.00564,-1.5 z m 31.25285,0.333333 c 0.17839,-0.641667 2.05985,-10.391667 4.18102,-21.666668 l 3.85667,-20.5 h 3.19724 c 1.87033,0 3.19723,0.302707 3.19723,0.729386 0,0.750271 -7.13054,38.416634 -7.7813,41.103949 -0.31604,1.305068 -0.79287,1.5 -3.66923,1.5 -2.82767,0 -3.25905,-0.168794 -2.98163,-1.166667 z m 13.43378,-0.333333 c 0.19819,-0.825 1.50239,-7.423485 2.89822,-14.663301 1.39583,-7.239815 2.70714,-13.33257 2.91403,-13.539454 0.20688,-0.206885 1.69799,-0.2834 3.31357,-0.170034 l 2.93742,0.206121 -2.50607,13.333334 c -1.37834,7.333333 -2.67365,14.008334 -2.87847,14.833334 -0.3242,1.305903 -0.80371,1.5 -3.70572,1.5 -3.11912,0 -3.31018,-0.0964 -2.97298,-1.5 z m 14.02446,-3.000001 c 0.47502,-2.475 1.71348,-9.224729 2.75214,-14.999397 l 1.88845,-10.499397 3.07422,-6.03e-4 c 2.99126,-5.87e-4 3.0651,0.04887 2.73635,1.83273 -0.32165,1.745325 -0.2772,1.781187 0.92578,0.747059 7.04163,-6.053218 16.34154,-2.891084 16.2355,5.520361 -0.0155,1.227919 -0.84775,6.58258 -1.8495,11.899247 l -1.82137,9.666667 -3.36793,0.197488 -3.36793,0.197486 1.88223,-9.864153 c 2.15282,-11.282231 2.04042,-13.966001 -0.61281,-14.63192 -2.49804,-0.626969 -6.14539,1.629475 -8.02298,4.963452 -0.83697,1.486187 -2.10527,5.800143 -2.81843,9.58657 -2.03157,10.786283 -1.55182,9.884411 -5.25797,9.884411 h -3.23944 z M 21.333334,36.333335 V 16.666667 h 12.000001 12 v 3.666667 3.666667 h -7.666667 -7.666667 v 4.310779 4.310779 l 7.166667,0.189221 7.166667,0.189221 0.201507,3.5 0.201506,3.5 h -7.368173 -7.368174 v 8.000001 8 h -4.333333 -4.333334 z m 62.66667,5.333333 V 27.333334 h 3.683333 c 3.519787,0 3.70028,0.08472 4.064934,1.907991 l 0.381593,1.907991 1.70292,-1.578212 c 5.634067,-5.221473 14.908836,-2.606674 16.754606,4.723562 0.41027,1.629336 0.74595,7.179583 0.74595,12.333882 v 9.371454 h -4.2592 -4.2592 l -0.24836,-9.605032 c -0.21392,-8.272673 -0.42348,-9.798535 -1.5108,-11.000001 -1.351762,-1.493683 -3.716456,-1.801872 -5.696149,-0.742374 -2.004287,1.072662 -2.69296,4.426212 -2.69296,13.113555 v 8.233852 h -4.333334 -4.333333 z m 126.000006,0 V 27.333334 h 3.66667 c 3.18506,0 3.66666,0.169962 3.66666,1.293989 0,1.507469 1.04874,2.372501 1.66584,1.374026 0.23354,-0.377887 1.65712,-1.31584 3.1635,-2.084339 5.0027,-2.552184 10.57028,-0.844276 13.48704,4.137281 1.12812,1.926708 1.35384,3.799821 1.57828,13.096981 l 0.26189,10.84873 h -4.74494 -4.74494 v -9.51833 c 0,-10.977677 -0.52087,-12.481671 -4.32275,-12.481671 -1.63358,0 -2.62441,0.479618 -3.62886,1.756573 -1.24696,1.585243 -1.38172,2.658137 -1.38172,11 v 9.243428 h -4.33334 -4.33333 z M 345.33335,35.333335 V 14.666667 h 4.33333 4.33333 v 12.406294 12.406294 l 3.98773,-6.072961 3.98772,-6.07296 h 5.40827 5.40827 l -5.06266,5.576422 c -2.78446,3.067031 -5.06266,5.767159 -5.06266,6.000285 0,0.233124 2.54292,4.098735 5.65092,8.590245 l 5.65092,8.166383 -4.7552,0.197978 c -2.61535,0.108887 -5.11436,0.06015 -5.55334,-0.1083 -0.43898,-0.168452 -2.22056,-2.732543 -3.95908,-5.697978 -1.73852,-2.965435 -3.32435,-5.391701 -3.52409,-5.391701 -1.2375,0 -2.13683,2.850922 -2.1556,6.833334 l -0.0212,4.5 h -4.33333 -4.33333 z m 132.00174,-13.33008 c -1.09161,-2.039698 -0.58292,-4.018488 1.41501,-5.504381 1.41511,-1.052436 2.0183,-1.158016 3.15139,-0.551605 3.88075,2.076916 2.976,6.895482 -1.3626,7.257042 -1.93534,0.161283 -2.61006,-0.09166 -3.2038,-1.201056 z"
       id="path325" />
  </g>
</svg>
