<?xml version="1.0" encoding="UTF-8" standalone="no"?><!DOCTYPE svg PUBLIC "-//W3C//DTD SVG 1.1//EN" "http://www.w3.org/Graphics/SVG/1.1/DTD/svg11.dtd"><svg width="100%" height="100%" viewBox="0 0 106 45" version="1.1" xmlns="http://www.w3.org/2000/svg" xmlns:xlink="http://www.w3.org/1999/xlink" xml:space="preserve" style="fill-rule:evenodd;clip-rule:evenodd;stroke-linejoin:round;stroke-miterlimit:1.41421;"><path d="M57.141,37.76l0.768,0l0,-2.384c0.177,0.045 0.39,0.054 0.619,0.054c0.75,0 1.412,-0.221 1.817,-0.651c0.3,-0.311 0.458,-0.733 0.458,-1.272c0,-0.53 -0.193,-0.962 -0.519,-1.245c-0.354,-0.317 -0.909,-0.493 -1.668,-0.493c-0.618,0 -1.104,0.053 -1.475,0.114l0,5.877Zm0.768,-5.322c0.132,-0.034 0.39,-0.06 0.724,-0.06c0.848,0 1.404,0.379 1.404,1.164c0,0.821 -0.565,1.271 -1.492,1.271c-0.256,0 -0.467,-0.017 -0.636,-0.062l0,-2.313Zm4.699,5.322l0.767,0l0,-2.276c0,-0.133 0.018,-0.257 0.035,-0.363c0.106,-0.583 0.495,-0.998 1.042,-0.998c0.107,0 0.185,0.009 0.265,0.029l0,-0.733c-0.07,-0.017 -0.134,-0.026 -0.222,-0.026c-0.52,0 -0.989,0.362 -1.182,0.934l-0.035,0l-0.027,-0.838l-0.678,0c0.027,0.399 0.035,0.83 0.035,1.333l0,2.938Zm7.176,-1.994c0.008,-0.079 0.027,-0.203 0.027,-0.361c0,-0.785 -0.37,-2.012 -1.765,-2.012c-1.245,0 -2.003,1.014 -2.003,2.303c0,1.289 0.785,2.161 2.1,2.161c0.682,0 1.146,-0.151 1.42,-0.273l-0.131,-0.556c-0.291,0.124 -0.625,0.22 -1.182,0.22c-0.778,0 -1.449,-0.432 -1.464,-1.482l2.998,0Zm-2.991,-0.555c0.063,-0.539 0.405,-1.264 1.192,-1.264c0.873,0 1.086,0.77 1.076,1.264l-2.268,0Zm4.552,2.345c0.299,0.176 0.732,0.301 1.197,0.301c1.019,0 1.599,-0.538 1.599,-1.288c0,-0.636 -0.38,-1.006 -1.121,-1.289c-0.557,-0.211 -0.813,-0.371 -0.813,-0.724c0,-0.317 0.256,-0.582 0.716,-0.582c0.398,0 0.706,0.14 0.873,0.248l0.195,-0.565c-0.239,-0.14 -0.617,-0.264 -1.05,-0.264c-0.919,0 -1.474,0.563 -1.474,1.251c0,0.513 0.361,0.937 1.129,1.21c0.574,0.212 0.795,0.416 0.795,0.786c0,0.353 -0.264,0.636 -0.83,0.636c-0.389,0 -0.794,-0.161 -1.023,-0.311l-0.193,0.591Zm4.335,0c0.299,0.176 0.732,0.301 1.199,0.301c1.014,0 1.598,-0.538 1.598,-1.288c0,-0.636 -0.379,-1.006 -1.121,-1.289c-0.557,-0.211 -0.811,-0.371 -0.811,-0.724c0,-0.317 0.254,-0.582 0.713,-0.582c0.399,0 0.707,0.14 0.875,0.248l0.194,-0.565c-0.239,-0.14 -0.616,-0.264 -1.051,-0.264c-0.918,0 -1.473,0.563 -1.473,1.251c0,0.513 0.36,0.937 1.129,1.21c0.574,0.212 0.795,0.416 0.795,0.786c0,0.353 -0.264,0.636 -0.83,0.636c-0.387,0 -0.793,-0.161 -1.022,-0.311l-0.195,0.591Z" style="fill:#1a161a;fill-rule:nonzero;"/><path d="M57.133,19.459l0,3.504c0,1.845 0.916,2.54 2.135,2.54c1.289,0 2.25,-0.749 2.25,-2.574l0,-3.47l-0.775,0l0,3.521c0,1.316 -0.565,1.898 -1.448,1.898c-0.796,0 -1.386,-0.566 -1.386,-1.898l0,-3.521l-0.776,0Zm6.526,5.948l0.775,0l0,-2.567c0,-0.134 0.018,-0.267 0.051,-0.363c0.134,-0.432 0.532,-0.794 1.042,-0.794c0.733,0 0.989,0.574 0.989,1.261l0,2.463l0.775,0l0,-2.551c0,-1.464 -0.916,-1.816 -1.507,-1.816c-0.707,0 -1.201,0.397 -1.413,0.801l-0.017,0l-0.045,-0.704l-0.688,0c0.027,0.352 0.038,0.715 0.038,1.156l0,3.114Zm6.529,-4.27l-0.776,0l0,4.271l0.776,0l0,-4.271Zm-0.387,-1.678c-0.281,0 -0.484,0.213 -0.484,0.486c0,0.264 0.194,0.476 0.467,0.476c0.307,0 0.502,-0.212 0.494,-0.476c0,-0.273 -0.187,-0.486 -0.477,-0.486m2.048,1.678l1.625,4.27l0.738,0l1.677,-4.27l-0.811,0l-0.83,2.398c-0.14,0.39 -0.264,0.743 -0.361,1.097l-0.026,0c-0.088,-0.354 -0.202,-0.707 -0.345,-1.095l-0.838,-2.4l-0.829,0Zm9.001,2.276c0.008,-0.079 0.025,-0.203 0.025,-0.362c0,-0.785 -0.369,-2.011 -1.763,-2.011c-1.244,0 -2.002,1.014 -2.002,2.303c0,1.289 0.783,2.16 2.099,2.16c0.68,0 1.147,-0.149 1.42,-0.273l-0.133,-0.555c-0.291,0.124 -0.625,0.22 -1.181,0.22c-0.776,0 -1.447,-0.43 -1.465,-1.482l3,0Zm-2.992,-0.555c0.062,-0.54 0.406,-1.263 1.193,-1.263c0.873,0 1.086,0.768 1.076,1.263l-2.269,0Zm4.877,2.549l0.767,0l0,-2.277c0,-0.132 0.018,-0.256 0.034,-0.362c0.107,-0.581 0.496,-0.998 1.042,-0.998c0.106,0 0.186,0.011 0.264,0.028l0,-0.733c-0.07,-0.016 -0.131,-0.025 -0.219,-0.025c-0.521,0 -0.99,0.36 -1.183,0.934l-0.035,0l-0.028,-0.837l-0.675,0c0.023,0.397 0.033,0.83 0.033,1.332l0,2.938Zm3.537,-0.203c0.299,0.176 0.732,0.299 1.201,0.299c1.014,0 1.596,-0.537 1.596,-1.286c0,-0.637 -0.379,-1.007 -1.121,-1.289c-0.555,-0.213 -0.811,-0.371 -0.811,-0.725c0,-0.317 0.256,-0.582 0.715,-0.582c0.396,0 0.705,0.141 0.875,0.248l0.193,-0.565c-0.24,-0.14 -0.619,-0.264 -1.05,-0.264c-0.918,0 -1.475,0.564 -1.475,1.251c0,0.512 0.363,0.936 1.131,1.21c0.574,0.212 0.793,0.415 0.793,0.786c0,0.354 -0.264,0.636 -0.828,0.636c-0.391,0 -0.795,-0.158 -1.026,-0.309l-0.193,0.59Zm5.408,-4.067l-0.775,0l0,4.271l0.775,0l0,-4.271Zm-0.387,-1.678c-0.283,0 -0.486,0.213 -0.486,0.486c0,0.264 0.193,0.476 0.469,0.476c0.304,0 0.5,-0.212 0.492,-0.476c0,-0.273 -0.188,-0.486 -0.475,-0.486m2.733,0.893l0,0.785l-0.662,0l0,0.59l0.662,0l0,2.331c0,0.503 0.08,0.882 0.299,1.111c0.185,0.211 0.476,0.334 0.837,0.334c0.301,0 0.538,-0.053 0.688,-0.113l-0.035,-0.582c-0.115,0.036 -0.238,0.053 -0.449,0.053c-0.434,0 -0.584,-0.3 -0.584,-0.829l0,-2.305l1.113,0l0,-0.59l-1.113,0l0,-1.025l-0.756,0.24Zm3.301,0.785l1.58,3.934c0.035,0.098 0.052,0.159 0.052,0.203c0,0.045 -0.025,0.106 -0.062,0.187c-0.176,0.396 -0.442,0.695 -0.651,0.862c-0.232,0.195 -0.486,0.32 -0.681,0.38l0.195,0.653c0.195,-0.034 0.574,-0.167 0.951,-0.502c0.532,-0.46 0.909,-1.21 1.465,-2.674l1.166,-3.043l-0.82,0l-0.848,2.506c-0.105,0.307 -0.195,0.633 -0.273,0.89l-0.018,0c-0.07,-0.257 -0.176,-0.591 -0.273,-0.873l-0.936,-2.523l-0.847,0Z" style="fill:#1a161a;fill-rule:nonzero;"/><path d="M60.213,11.181l0.635,1.872l0.821,0l-2.03,-5.948l-0.928,0l-2.017,5.948l0.793,0l0.619,-1.872l2.107,0Zm-1.951,-0.598l0.583,-1.721c0.115,-0.363 0.211,-0.725 0.299,-1.077l0.018,0c0.088,0.344 0.176,0.698 0.31,1.085l0.583,1.713l-1.793,0Zm5.117,2.47l0.758,0l0,-2.577c0,-0.133 0.018,-0.265 0.061,-0.379c0.124,-0.39 0.478,-0.776 0.963,-0.776c0.591,0 0.892,0.494 0.892,1.173l0,2.559l0.757,0l0,-2.639c0,-0.141 0.026,-0.282 0.063,-0.387c0.131,-0.381 0.475,-0.706 0.916,-0.706c0.627,0 0.928,0.494 0.928,1.314l0,2.418l0.758,0l0,-2.514c0,-1.483 -0.838,-1.853 -1.402,-1.853c-0.407,0 -0.689,0.104 -0.946,0.3c-0.175,0.131 -0.341,0.317 -0.475,0.554l-0.018,0c-0.186,-0.501 -0.626,-0.854 -1.207,-0.854c-0.708,0 -1.105,0.377 -1.344,0.784l-0.025,0l-0.036,-0.688l-0.68,0c0.028,0.354 0.037,0.715 0.037,1.157l0,3.114Zm7.897,-0.203c0.299,0.176 0.732,0.3 1.201,0.3c1.015,0 1.595,-0.538 1.595,-1.288c0,-0.636 -0.378,-1.006 -1.119,-1.289c-0.557,-0.212 -0.814,-0.37 -0.814,-0.724c0,-0.317 0.257,-0.582 0.715,-0.582c0.398,0 0.708,0.142 0.875,0.247l0.193,-0.564c-0.238,-0.14 -0.615,-0.264 -1.051,-0.264c-0.917,0 -1.472,0.563 -1.472,1.251c0,0.512 0.361,0.937 1.131,1.21c0.574,0.212 0.793,0.415 0.793,0.786c0,0.352 -0.265,0.636 -0.83,0.636c-0.387,0 -0.795,-0.16 -1.022,-0.311l-0.195,0.592Zm4.923,-4.855l0,0.787l-0.662,0l0,0.591l0.662,0l0,2.33c0,0.503 0.079,0.882 0.299,1.112c0.184,0.211 0.475,0.335 0.838,0.335c0.299,0 0.539,-0.054 0.69,-0.116l-0.037,-0.581c-0.114,0.037 -0.237,0.053 -0.45,0.053c-0.431,0 -0.584,-0.3 -0.584,-0.829l0,-2.304l1.114,0l0,-0.591l-1.114,0l0,-1.024l-0.756,0.237Zm6.985,3.064c0.01,-0.08 0.027,-0.203 0.027,-0.361c0,-0.786 -0.369,-2.012 -1.763,-2.012c-1.245,0 -2.002,1.013 -2.002,2.302c0,1.289 0.785,2.162 2.097,2.162c0.683,0 1.149,-0.151 1.422,-0.273l-0.133,-0.556c-0.289,0.124 -0.624,0.219 -1.181,0.219c-0.776,0 -1.448,-0.431 -1.465,-1.481l2.998,0Zm-2.988,-0.555c0.06,-0.539 0.404,-1.263 1.189,-1.263c0.876,0 1.086,0.768 1.076,1.263l-2.265,0Zm4.877,2.549l0.765,0l0,-2.276c0,-0.133 0.018,-0.258 0.035,-0.363c0.106,-0.583 0.493,-0.998 1.041,-0.998c0.106,0 0.184,0.009 0.264,0.028l0,-0.733c-0.07,-0.017 -0.133,-0.025 -0.221,-0.025c-0.521,0 -0.986,0.362 -1.179,0.934l-0.037,0l-0.026,-0.838l-0.679,0c0.027,0.398 0.037,0.829 0.037,1.333l0,2.938Zm6.656,-6.265l0,2.549l-0.016,0c-0.193,-0.342 -0.636,-0.651 -1.289,-0.651c-1.041,0 -1.922,0.872 -1.914,2.293c0,1.298 0.791,2.171 1.826,2.171c0.696,0 1.217,-0.361 1.455,-0.838l0.02,0l0.033,0.741l0.697,0c-0.027,-0.291 -0.035,-0.724 -0.035,-1.103l0,-5.162l-0.777,0Zm0,4.472c0,0.124 -0.008,0.23 -0.033,0.337c-0.143,0.582 -0.619,0.927 -1.141,0.927c-0.836,0 -1.262,-0.716 -1.262,-1.579c0,-0.946 0.477,-1.651 1.28,-1.651c0.584,0 1.007,0.405 1.123,0.9c0.025,0.096 0.033,0.228 0.033,0.325l0,0.741Zm5.933,-0.826c0,-0.858 -0.316,-1.748 -1.623,-1.748c-0.537,0 -1.048,0.149 -1.402,0.377l0.176,0.513c0.301,-0.194 0.715,-0.318 1.113,-0.318c0.873,0 0.969,0.636 0.969,0.988l0,0.088c-1.649,-0.007 -2.567,0.556 -2.567,1.59c0,0.616 0.442,1.226 1.307,1.226c0.61,0 1.067,-0.3 1.307,-0.635l0.025,0l0.063,0.538l0.703,0c-0.053,-0.291 -0.071,-0.653 -0.071,-1.024l0,-1.595Zm-0.75,1.18c0,0.081 -0.017,0.169 -0.041,0.248c-0.125,0.362 -0.478,0.716 -1.035,0.716c-0.396,0 -0.732,-0.239 -0.732,-0.742c0,-0.831 0.963,-0.98 1.808,-0.963l0,0.741Zm2.868,1.439l0.756,0l0,-2.577c0,-0.133 0.017,-0.265 0.062,-0.379c0.123,-0.39 0.477,-0.776 0.963,-0.776c0.592,0 0.891,0.494 0.891,1.173l0,2.559l0.759,0l0,-2.639c0,-0.141 0.026,-0.282 0.059,-0.387c0.135,-0.381 0.478,-0.706 0.92,-0.706c0.627,0 0.928,0.494 0.928,1.314l0,2.418l0.757,0l0,-2.514c0,-1.483 -0.838,-1.853 -1.404,-1.853c-0.404,0 -0.685,0.104 -0.943,0.3c-0.176,0.131 -0.346,0.317 -0.475,0.554l-0.017,0c-0.188,-0.501 -0.627,-0.854 -1.211,-0.854c-0.705,0 -1.104,0.377 -1.34,0.784l-0.028,0l-0.035,-0.688l-0.679,0c0.029,0.354 0.037,0.715 0.037,1.157l0,3.114Z" style="fill:#1a161a;fill-rule:nonzero;"/><path d="M40.925,40.98l3.721,-3.723l0,-0.009l-3.721,-3.721l3.721,-3.721l0,-0.01l-3.721,-3.722l3.721,-3.721l0,-0.008l-3.721,-3.722l3.721,-3.721l0,-0.01l-3.721,-3.721l3.721,-3.72l0,-0.012l-3.721,-3.721l3.721,-3.718l-44.646,0l0,44.644l44.591,0l-3.666,-3.664Z" style="fill:#cb0233;fill-rule:nonzero;"/><path d="M21.381,15.648l-1.763,-1.764l2.683,-2.683l-2.683,-2.684l1.763,-1.762l2.682,2.682l2.683,-2.682l1.764,1.762l-2.683,2.684l2.683,2.683l-1.764,1.764l-2.683,-2.684l-2.682,2.684Z" style="fill:#fff;fill-rule:nonzero;"/><path d="M21.381,26.744l-1.763,-1.764l2.683,-2.681l-2.683,-2.684l1.763,-1.763l2.682,2.683l2.683,-2.683l1.764,1.763l-2.683,2.684l2.683,2.681l-1.764,1.764l-2.683,-2.684l-2.682,2.684Z" style="fill:#fff;fill-rule:nonzero;"/><path d="M21.381,37.863l-1.763,-1.764l2.683,-2.681l-2.683,-2.684l1.763,-1.764l2.682,2.684l2.683,-2.684l1.764,1.764l-2.683,2.684l2.683,2.681l-1.764,1.764l-2.683,-2.684l-2.682,2.684Z" style="fill:#fff;fill-rule:nonzero;"/><path d="M12.363,12.185l-1.112,-3.236l-0.024,0l-1.149,3.236l2.285,0Zm-0.112,-5.408l3.298,8.816l-2.013,0l-0.666,-1.963l-3.298,0l-0.692,1.963l-1.95,0l3.333,-8.816l1.988,0Z" style="fill:#fff;fill-rule:nonzero;"/><path d="M13.998,26.019c-0.666,0.582 -1.587,0.871 -2.765,0.871c-1.194,0 -2.117,-0.289 -2.772,-0.863c-0.654,-0.578 -0.982,-1.467 -0.982,-2.668l0,-5.483l1.939,0l0,5.483c0,0.238 0.02,0.472 0.062,0.703c0.041,0.23 0.128,0.436 0.259,0.611c0.131,0.178 0.314,0.323 0.549,0.434c0.236,0.109 0.55,0.166 0.945,0.166c0.691,0 1.17,-0.154 1.433,-0.463c0.263,-0.309 0.395,-0.793 0.395,-1.451l0,-5.483l1.938,0l0,5.483c0,1.193 -0.333,2.08 -1.001,2.66" style="fill:#fff;fill-rule:nonzero;"/><path d="M11.171,33.209c0.222,0 0.437,-0.016 0.642,-0.049c0.206,-0.033 0.387,-0.096 0.544,-0.191c0.155,-0.094 0.281,-0.229 0.376,-0.401c0.095,-0.174 0.142,-0.4 0.142,-0.679c0,-0.28 -0.047,-0.506 -0.142,-0.68c-0.095,-0.172 -0.221,-0.307 -0.376,-0.4c-0.157,-0.096 -0.338,-0.159 -0.544,-0.192c-0.205,-0.033 -0.42,-0.049 -0.642,-0.049l-1.507,0l0,2.641l1.507,0Zm0.531,-4.148c0.551,0 1.021,0.08 1.408,0.242c0.386,0.16 0.701,0.371 0.945,0.634c0.242,0.264 0.419,0.565 0.53,0.901c0.111,0.338 0.167,0.687 0.167,1.051c0,0.353 -0.056,0.701 -0.167,1.043c-0.111,0.341 -0.288,0.644 -0.53,0.908c-0.244,0.264 -0.559,0.474 -0.945,0.635c-0.387,0.162 -0.857,0.242 -1.408,0.242l-2.038,0l0,3.16l-1.938,0l0,-8.816l3.976,0Z" style="fill:#fff;fill-rule:nonzero;"/></svg>