<?xml version="1.0" encoding="UTF-8" standalone="no"?>
<svg
   width="100%"
   height="100%"
   viewBox="0 0 106 45"
   version="1.1"
   xml:space="preserve"
   style="fill-rule:evenodd;clip-rule:evenodd;stroke-linejoin:round;stroke-miterlimit:1.41421;"
   id="svg10"
   sodipodi:docname="logo-aup-ddb-blue-beter.svg"
   inkscape:export-filename="logo-aup-ddb-blue-v2-beter.png"
   inkscape:export-xdpi="192.22668"
   inkscape:export-ydpi="192.22668"
   inkscape:version="1.3.2 (091e20e, 2023-11-25)"
   xmlns:inkscape="http://www.inkscape.org/namespaces/inkscape"
   xmlns:sodipodi="http://sodipodi.sourceforge.net/DTD/sodipodi-0.dtd"
   xmlns="http://www.w3.org/2000/svg"
   xmlns:svg="http://www.w3.org/2000/svg"><defs
     id="defs10" /><sodipodi:namedview
     id="namedview10"
     pagecolor="#ffffff"
     bordercolor="#000000"
     borderopacity="0.25"
     inkscape:showpageshadow="2"
     inkscape:pageopacity="0.0"
     inkscape:pagecheckerboard="0"
     inkscape:deskcolor="#d1d1d1"
     inkscape:export-bgcolor="#ffffffff"
     inkscape:zoom="9.9812102"
     inkscape:cx="31.358923"
     inkscape:cy="22.842921"
     inkscape:window-width="1280"
     inkscape:window-height="675"
     inkscape:window-x="0"
     inkscape:window-y="25"
     inkscape:window-maximized="0"
     inkscape:current-layer="svg10" /><path
     d="m 55,37.76 h 0.768 v -2.384 c 0.177,0.045 0.39,0.054 0.619,0.054 0.75,0 1.412,-0.221 1.817,-0.651 0.3,-0.311 0.458,-0.733 0.458,-1.272 0,-0.53 -0.193,-0.962 -0.519,-1.245 -0.354,-0.317 -0.909,-0.493 -1.668,-0.493 -0.618,0 -1.104,0.053 -1.475,0.114 z m 0.768,-5.322 c 0.132,-0.034 0.39,-0.06 0.724,-0.06 0.848,0 1.404,0.379 1.404,1.164 0,0.821 -0.565,1.271 -1.492,1.271 -0.256,0 -0.467,-0.017 -0.636,-0.062 z m 4.699,5.322 h 0.767 v -2.276 c 0,-0.133 0.018,-0.257 0.035,-0.363 0.106,-0.583 0.495,-0.998 1.042,-0.998 0.107,0 0.185,0.009 0.265,0.029 v -0.733 c -0.07,-0.017 -0.134,-0.026 -0.222,-0.026 -0.52,0 -0.989,0.362 -1.182,0.934 H 61.137 L 61.11,33.489 h -0.678 c 0.027,0.399 0.035,0.83 0.035,1.333 z m 7.176,-1.994 c 0.008,-0.079 0.027,-0.203 0.027,-0.361 0,-0.785 -0.37,-2.012 -1.765,-2.012 -1.245,0 -2.003,1.014 -2.003,2.303 0,1.289 0.785,2.161 2.1,2.161 0.682,0 1.146,-0.151 1.42,-0.273 l -0.131,-0.556 c -0.291,0.124 -0.625,0.22 -1.182,0.22 -0.778,0 -1.449,-0.432 -1.464,-1.482 z m -2.991,-0.555 c 0.063,-0.539 0.405,-1.264 1.192,-1.264 0.873,0 1.086,0.77 1.076,1.264 z m 4.552,2.345 c 0.299,0.176 0.732,0.301 1.197,0.301 1.019,0 1.599,-0.538 1.599,-1.288 0,-0.636 -0.38,-1.006 -1.121,-1.289 -0.557,-0.211 -0.813,-0.371 -0.813,-0.724 0,-0.317 0.256,-0.582 0.716,-0.582 0.398,0 0.706,0.14 0.873,0.248 l 0.195,-0.565 c -0.239,-0.14 -0.617,-0.264 -1.05,-0.264 -0.919,0 -1.474,0.563 -1.474,1.251 0,0.513 0.361,0.937 1.129,1.21 0.574,0.212 0.795,0.416 0.795,0.786 0,0.353 -0.264,0.636 -0.83,0.636 -0.389,0 -0.794,-0.161 -1.023,-0.311 z m 4.335,0 c 0.299,0.176 0.732,0.301 1.199,0.301 1.014,0 1.598,-0.538 1.598,-1.288 0,-0.636 -0.379,-1.006 -1.121,-1.289 -0.557,-0.211 -0.811,-0.371 -0.811,-0.724 0,-0.317 0.254,-0.582 0.713,-0.582 0.399,0 0.707,0.14 0.875,0.248 l 0.194,-0.565 c -0.239,-0.14 -0.616,-0.264 -1.051,-0.264 -0.918,0 -1.473,0.563 -1.473,1.251 0,0.513 0.36,0.937 1.129,1.21 0.574,0.212 0.795,0.416 0.795,0.786 0,0.353 -0.264,0.636 -0.83,0.636 -0.387,0 -0.793,-0.161 -1.022,-0.311 z"
     style="fill:#1a161a;fill-rule:nonzero"
     id="path1" /><path
     d="m 55,19.459 v 3.504 c 0,1.845 0.916,2.54 2.135,2.54 1.289,0 2.25,-0.749 2.25,-2.574 v -3.47 H 58.61 v 3.521 c 0,1.316 -0.565,1.898 -1.448,1.898 -0.796,0 -1.386,-0.566 -1.386,-1.898 v -3.521 z m 6.526,5.948 h 0.775 V 22.84 c 0,-0.134 0.018,-0.267 0.051,-0.363 0.134,-0.432 0.532,-0.794 1.042,-0.794 0.733,0 0.989,0.574 0.989,1.261 v 2.463 h 0.775 v -2.551 c 0,-1.464 -0.916,-1.816 -1.507,-1.816 -0.707,0 -1.201,0.397 -1.413,0.801 h -0.017 l -0.045,-0.704 h -0.688 c 0.027,0.352 0.038,0.715 0.038,1.156 z m 6.529,-4.27 h -0.776 v 4.271 h 0.776 z m -0.387,-1.678 c -0.281,0 -0.484,0.213 -0.484,0.486 0,0.264 0.194,0.476 0.467,0.476 0.307,0 0.502,-0.212 0.494,-0.476 0,-0.273 -0.187,-0.486 -0.477,-0.486 m 2.048,1.678 1.625,4.27 h 0.738 l 1.677,-4.27 h -0.811 l -0.83,2.398 c -0.14,0.39 -0.264,0.743 -0.361,1.097 H 71.728 C 71.64,24.278 71.526,23.925 71.383,23.537 l -0.838,-2.4 z m 9.001,2.276 c 0.008,-0.079 0.025,-0.203 0.025,-0.362 0,-0.785 -0.369,-2.011 -1.763,-2.011 -1.244,0 -2.002,1.014 -2.002,2.303 0,1.289 0.783,2.16 2.099,2.16 0.68,0 1.147,-0.149 1.42,-0.273 l -0.133,-0.555 c -0.291,0.124 -0.625,0.22 -1.181,0.22 -0.776,0 -1.447,-0.43 -1.465,-1.482 z m -2.992,-0.555 c 0.062,-0.54 0.406,-1.263 1.193,-1.263 0.873,0 1.086,0.768 1.076,1.263 z m 4.877,2.549 h 0.767 V 23.13 c 0,-0.132 0.018,-0.256 0.034,-0.362 0.107,-0.581 0.496,-0.998 1.042,-0.998 0.106,0 0.186,0.011 0.264,0.028 v -0.733 c -0.07,-0.016 -0.131,-0.025 -0.219,-0.025 -0.521,0 -0.99,0.36 -1.183,0.934 h -0.035 l -0.028,-0.837 h -0.675 c 0.023,0.397 0.033,0.83 0.033,1.332 z m 3.537,-0.203 c 0.299,0.176 0.732,0.299 1.201,0.299 1.014,0 1.596,-0.537 1.596,-1.286 0,-0.637 -0.379,-1.007 -1.121,-1.289 -0.555,-0.213 -0.811,-0.371 -0.811,-0.725 0,-0.317 0.256,-0.582 0.715,-0.582 0.396,0 0.705,0.141 0.875,0.248 l 0.193,-0.565 c -0.24,-0.14 -0.619,-0.264 -1.05,-0.264 -0.918,0 -1.475,0.564 -1.475,1.251 0,0.512 0.363,0.936 1.131,1.21 0.574,0.212 0.793,0.415 0.793,0.786 0,0.354 -0.264,0.636 -0.828,0.636 -0.391,0 -0.795,-0.158 -1.026,-0.309 z m 5.408,-4.067 h -0.775 v 4.271 h 0.775 z M 89.16,19.459 c -0.283,0 -0.486,0.213 -0.486,0.486 0,0.264 0.193,0.476 0.469,0.476 0.304,0 0.5,-0.212 0.492,-0.476 0,-0.273 -0.188,-0.486 -0.475,-0.486 m 2.733,0.893 v 0.785 h -0.662 v 0.59 h 0.662 v 2.331 c 0,0.503 0.08,0.882 0.299,1.111 0.185,0.211 0.476,0.334 0.837,0.334 0.301,0 0.538,-0.053 0.688,-0.113 l -0.035,-0.582 c -0.115,0.036 -0.238,0.053 -0.449,0.053 -0.434,0 -0.584,-0.3 -0.584,-0.829 v -2.305 h 1.113 v -0.59 h -1.113 v -1.025 z m 3.301,0.785 1.58,3.934 c 0.035,0.098 0.052,0.159 0.052,0.203 0,0.045 -0.025,0.106 -0.062,0.187 -0.176,0.396 -0.442,0.695 -0.651,0.862 -0.232,0.195 -0.486,0.32 -0.681,0.38 l 0.195,0.653 c 0.195,-0.034 0.574,-0.167 0.951,-0.502 0.532,-0.46 0.909,-1.21 1.465,-2.674 l 1.166,-3.043 h -0.82 l -0.848,2.506 c -0.105,0.307 -0.195,0.633 -0.273,0.89 H 97.25 C 97.18,24.276 97.074,23.942 96.977,23.66 l -0.936,-2.523 z"
     style="fill:#1a161a;fill-rule:nonzero"
     id="path2" /><path
     d="m 58.519,11.181 0.635,1.872 h 0.821 L 57.945,7.105 H 57.017 L 55,13.053 h 0.793 l 0.619,-1.872 z M 56.568,10.583 57.151,8.862 C 57.266,8.499 57.362,8.137 57.45,7.785 h 0.018 c 0.088,0.344 0.176,0.698 0.31,1.085 l 0.583,1.713 z m 5.117,2.47 h 0.758 v -2.577 c 0,-0.133 0.018,-0.265 0.061,-0.379 0.124,-0.39 0.478,-0.776 0.963,-0.776 0.591,0 0.892,0.494 0.892,1.173 v 2.559 h 0.757 v -2.639 c 0,-0.141 0.026,-0.282 0.063,-0.387 0.131,-0.381 0.475,-0.706 0.916,-0.706 0.627,0 0.928,0.494 0.928,1.314 v 2.418 h 0.758 v -2.514 c 0,-1.483 -0.838,-1.853 -1.402,-1.853 -0.407,0 -0.689,0.104 -0.946,0.3 -0.175,0.131 -0.341,0.317 -0.475,0.554 H 64.94 C 64.754,9.039 64.314,8.686 63.733,8.686 c -0.708,0 -1.105,0.377 -1.344,0.784 H 62.364 L 62.328,8.782 h -0.68 c 0.028,0.354 0.037,0.715 0.037,1.157 z m 7.897,-0.203 c 0.299,0.176 0.732,0.3 1.201,0.3 1.015,0 1.595,-0.538 1.595,-1.288 0,-0.636 -0.378,-1.006 -1.119,-1.289 -0.557,-0.212 -0.814,-0.37 -0.814,-0.724 0,-0.317 0.257,-0.582 0.715,-0.582 0.398,0 0.708,0.142 0.875,0.247 L 72.228,8.95 C 71.99,8.81 71.613,8.686 71.177,8.686 c -0.917,0 -1.472,0.563 -1.472,1.251 0,0.512 0.361,0.937 1.131,1.21 0.574,0.212 0.793,0.415 0.793,0.786 0,0.352 -0.265,0.636 -0.83,0.636 -0.387,0 -0.795,-0.16 -1.022,-0.311 z m 4.923,-4.855 v 0.787 h -0.662 v 0.591 h 0.662 v 2.33 c 0,0.503 0.079,0.882 0.299,1.112 0.184,0.211 0.475,0.335 0.838,0.335 0.299,0 0.539,-0.054 0.69,-0.116 l -0.037,-0.581 c -0.114,0.037 -0.237,0.053 -0.45,0.053 -0.431,0 -0.584,-0.3 -0.584,-0.829 V 9.373 h 1.114 V 8.782 H 75.261 V 7.758 Z m 6.985,3.064 c 0.01,-0.08 0.027,-0.203 0.027,-0.361 0,-0.786 -0.369,-2.012 -1.763,-2.012 -1.245,0 -2.002,1.013 -2.002,2.302 0,1.289 0.785,2.162 2.097,2.162 0.683,0 1.149,-0.151 1.422,-0.273 l -0.133,-0.556 c -0.289,0.124 -0.624,0.219 -1.181,0.219 -0.776,0 -1.448,-0.431 -1.465,-1.481 z m -2.988,-0.555 c 0.06,-0.539 0.404,-1.263 1.189,-1.263 0.876,0 1.086,0.768 1.076,1.263 z m 4.877,2.549 h 0.765 v -2.276 c 0,-0.133 0.018,-0.258 0.035,-0.363 0.106,-0.583 0.493,-0.998 1.041,-0.998 0.106,0 0.184,0.009 0.264,0.028 V 8.711 c -0.07,-0.017 -0.133,-0.025 -0.221,-0.025 -0.521,0 -0.986,0.362 -1.179,0.934 H 84.047 L 84.021,8.782 h -0.679 c 0.027,0.398 0.037,0.829 0.037,1.333 z M 90.035,6.788 V 9.337 H 90.019 C 89.826,8.995 89.383,8.686 88.73,8.686 c -1.041,0 -1.922,0.872 -1.914,2.293 0,1.298 0.791,2.171 1.826,2.171 0.696,0 1.217,-0.361 1.455,-0.838 h 0.02 l 0.033,0.741 h 0.697 C 90.82,12.762 90.812,12.329 90.812,11.95 V 6.788 Z m 0,4.472 c 0,0.124 -0.008,0.23 -0.033,0.337 -0.143,0.582 -0.619,0.927 -1.141,0.927 -0.836,0 -1.262,-0.716 -1.262,-1.579 0,-0.946 0.477,-1.651 1.28,-1.651 0.584,0 1.007,0.405 1.123,0.9 0.025,0.096 0.033,0.228 0.033,0.325 z m 5.933,-0.826 c 0,-0.858 -0.316,-1.748 -1.623,-1.748 -0.537,0 -1.048,0.149 -1.402,0.377 l 0.176,0.513 c 0.301,-0.194 0.715,-0.318 1.113,-0.318 0.873,0 0.969,0.636 0.969,0.988 v 0.088 c -1.649,-0.007 -2.567,0.556 -2.567,1.59 0,0.616 0.442,1.226 1.307,1.226 0.61,0 1.067,-0.3 1.307,-0.635 h 0.025 l 0.063,0.538 h 0.703 C 95.986,12.762 95.968,12.4 95.968,12.029 Z m -0.75,1.18 c 0,0.081 -0.017,0.169 -0.041,0.248 -0.125,0.362 -0.478,0.716 -1.035,0.716 -0.396,0 -0.732,-0.239 -0.732,-0.742 0,-0.831 0.963,-0.98 1.808,-0.963 z m 2.868,1.439 h 0.756 v -2.577 c 0,-0.133 0.017,-0.265 0.062,-0.379 0.123,-0.39 0.477,-0.776 0.963,-0.776 0.592,0 0.891,0.494 0.891,1.173 v 2.559 h 0.759 v -2.639 c 0,-0.141 0.026,-0.282 0.059,-0.387 0.135,-0.381 0.478,-0.706 0.92,-0.706 0.627,0 0.928,0.494 0.928,1.314 v 2.418 h 0.757 v -2.514 c 0,-1.483 -0.838,-1.853 -1.404,-1.853 -0.404,0 -0.685,0.104 -0.943,0.3 -0.176,0.131 -0.346,0.317 -0.475,0.554 h -0.017 c -0.188,-0.501 -0.627,-0.854 -1.211,-0.854 -0.705,0 -1.104,0.377 -1.34,0.784 H 98.763 L 98.728,8.782 h -0.679 c 0.029,0.354 0.037,0.715 0.037,1.157 z"
     style="fill:#1a161a;fill-rule:nonzero"
     id="path3" /><path
     d="m 41.016838,41.347863 3.72935,-3.75642 v -0.0091 l -3.72935,-3.754402 3.72935,-3.754402 v -0.01009 l -3.72935,-3.755411 3.72935,-3.754402 v -0.0081 l -3.72935,-3.755411 3.72935,-3.754402 v -0.01009 l -3.72935,-3.754402 3.72935,-3.7533931 V 7.5057772 L 41.016838,3.7513751 44.746188,0 H 0 v 45.044753 h 44.691065 z"
     style="fill:#164856;fill-rule:nonzero;stroke-width:1.0056"
     id="path4" /><path
     d="M21.381,15.648l-1.763,-1.764l2.683,-2.683l-2.683,-2.684l1.763,-1.762l2.682,2.682l2.683,-2.682l1.764,1.762l-2.683,2.684l2.683,2.683l-1.764,1.764l-2.683,-2.684l-2.682,2.684Z"
     style="fill:#fff;fill-rule:nonzero;"
     id="path5" /><path
     d="M21.381,26.744l-1.763,-1.764l2.683,-2.681l-2.683,-2.684l1.763,-1.763l2.682,2.683l2.683,-2.683l1.764,1.763l-2.683,2.684l2.683,2.681l-1.764,1.764l-2.683,-2.684l-2.682,2.684Z"
     style="fill:#fff;fill-rule:nonzero;"
     id="path6" /><path
     d="M21.381,37.863l-1.763,-1.764l2.683,-2.681l-2.683,-2.684l1.763,-1.764l2.682,2.684l2.683,-2.684l1.764,1.764l-2.683,2.684l2.683,2.681l-1.764,1.764l-2.683,-2.684l-2.682,2.684Z"
     style="fill:#fff;fill-rule:nonzero;"
     id="path7" /><path
     d="M12.363,12.185l-1.112,-3.236l-0.024,0l-1.149,3.236l2.285,0Zm-0.112,-5.408l3.298,8.816l-2.013,0l-0.666,-1.963l-3.298,0l-0.692,1.963l-1.95,0l3.333,-8.816l1.988,0Z"
     style="fill:#fff;fill-rule:nonzero;"
     id="path8" /><path
     d="M13.998,26.019c-0.666,0.582 -1.587,0.871 -2.765,0.871c-1.194,0 -2.117,-0.289 -2.772,-0.863c-0.654,-0.578 -0.982,-1.467 -0.982,-2.668l0,-5.483l1.939,0l0,5.483c0,0.238 0.02,0.472 0.062,0.703c0.041,0.23 0.128,0.436 0.259,0.611c0.131,0.178 0.314,0.323 0.549,0.434c0.236,0.109 0.55,0.166 0.945,0.166c0.691,0 1.17,-0.154 1.433,-0.463c0.263,-0.309 0.395,-0.793 0.395,-1.451l0,-5.483l1.938,0l0,5.483c0,1.193 -0.333,2.08 -1.001,2.66"
     style="fill:#fff;fill-rule:nonzero;"
     id="path9" /><path
     d="M11.171,33.209c0.222,0 0.437,-0.016 0.642,-0.049c0.206,-0.033 0.387,-0.096 0.544,-0.191c0.155,-0.094 0.281,-0.229 0.376,-0.401c0.095,-0.174 0.142,-0.4 0.142,-0.679c0,-0.28 -0.047,-0.506 -0.142,-0.68c-0.095,-0.172 -0.221,-0.307 -0.376,-0.4c-0.157,-0.096 -0.338,-0.159 -0.544,-0.192c-0.205,-0.033 -0.42,-0.049 -0.642,-0.049l-1.507,0l0,2.641l1.507,0Zm0.531,-4.148c0.551,0 1.021,0.08 1.408,0.242c0.386,0.16 0.701,0.371 0.945,0.634c0.242,0.264 0.419,0.565 0.53,0.901c0.111,0.338 0.167,0.687 0.167,1.051c0,0.353 -0.056,0.701 -0.167,1.043c-0.111,0.341 -0.288,0.644 -0.53,0.908c-0.244,0.264 -0.559,0.474 -0.945,0.635c-0.387,0.162 -0.857,0.242 -1.408,0.242l-2.038,0l0,3.16l-1.938,0l0,-8.816l3.976,0Z"
     style="fill:#fff;fill-rule:nonzero;"
     id="path10" /></svg>
